<svg width="30" height="10" viewBox="0 0 30 10" fill="none" xmlns="http://www.w3.org/2000/svg">
<path d="M28.9032 3.33222L24.0651 0.234359C23.9489 0.160099 23.8107 0.101156 23.6583 0.0609326C23.506 0.020709 23.3426 0 23.1775 0C23.0125 0 22.8491 0.020709 22.6968 0.0609326C22.5444 0.101156 22.4062 0.160099 22.29 0.234359C22.0571 0.382805 21.9264 0.583613 21.9264 0.792925C21.9264 1.00224 22.0571 1.20305 22.29 1.35149L26.7404 4.19582H1.25014C0.91858 4.19582 0.600603 4.2793 0.366157 4.42788C0.131711 4.57646 0 4.77799 0 4.98812C0 5.19825 0.131711 5.39977 0.366157 5.54835C0.600603 5.69694 0.91858 5.78041 1.25014 5.78041H26.8154L22.29 8.64059C22.1728 8.71424 22.0798 8.80187 22.0163 8.89842C21.9528 8.99496 21.9202 9.09852 21.9202 9.20311C21.9202 9.30771 21.9528 9.41126 22.0163 9.50781C22.0798 9.60436 22.1728 9.69199 22.29 9.76564C22.4062 9.8399 22.5444 9.89884 22.6968 9.93907C22.8491 9.97929 23.0125 10 23.1775 10C23.3426 10 23.506 9.97929 23.6583 9.93907C23.8107 9.89884 23.9489 9.8399 24.0651 9.76564L28.9032 6.69155C29.6055 6.24588 30 5.64176 30 5.01188C30 4.38201 29.6055 3.77789 28.9032 3.33222Z" fill="black"/>
</svg>
