<svg width="223" height="80" viewBox="0 0 223 80" fill="none" xmlns="http://www.w3.org/2000/svg">
<path d="M23.9999 7.7417L19.2008 10.0641L14.4016 12.3866L14.3999 26.3212L19.1985 28.6437L23.9999 30.9675V7.7417Z" fill="#00A9FF"/>
<path d="M38.3958 37.4194L38.4003 0L33.7305 2.33871L29.0606 4.67742L28.8003 32.6132L33.5981 35.0163L38.3958 37.4194Z" fill="#FF4C4C"/>
<path d="M9.59885 24.5161L9.6 15.4839L4.8 17.7419L0 20L4.79942 22.2581L9.59885 24.5161Z" fill="#7C00FE"/>
<path d="M84.0001 18.7097L45.6001 0V37.4194L50.4001 35.0806L55.2001 32.7419L60.0001 30.4032L64.8001 28.0645L69.6001 25.7258L74.4001 23.3871L79.2001 21.0484L84.0001 18.7097Z" fill="#F9E400"/>
<path d="M0 61.0753L38.4 80V42.1506L0 23.2258V61.0753Z" fill="#4A249D"/>
<path d="M50.4001 39.785L45.6001 42.1506V80.0001L50.4001 77.6345L55.2001 75.2689V37.4194L50.4001 39.785Z" fill="#00A9FF"/>
<path d="M64.8 33.3334L60 35.699V73.5484L64.8 71.1828L69.6 68.8173V30.9678L64.8 33.3334Z" fill="#7C00FE"/>
<path d="M79.1999 25.5914L74.3999 27.957V65.8065L79.1999 63.4409L83.9999 61.0753V23.2258L79.1999 25.5914Z" fill="#FF4C4C"/>
<path d="M92.2401 40H90.4858L95.5597 26.1818H97.2869L102.361 40H100.607L96.4773 28.3679H96.3693L92.2401 40ZM92.8878 34.6023H99.9588V36.0866H92.8878V34.6023ZM105.89 33.7656V40H104.297V29.6364H105.836V31.2557H105.971C106.213 30.7294 106.582 30.3066 107.077 29.9872C107.572 29.6634 108.211 29.5014 108.993 29.5014C109.695 29.5014 110.309 29.6454 110.835 29.9332C111.362 30.2166 111.771 30.6484 112.063 31.2287C112.356 31.8045 112.502 32.5331 112.502 33.4148V40H110.909V33.5227C110.909 32.7086 110.698 32.0743 110.275 31.62C109.852 31.1612 109.272 30.9318 108.534 30.9318C108.026 30.9318 107.572 31.042 107.172 31.2624C106.776 31.4828 106.463 31.8045 106.234 32.2273C106.004 32.6501 105.89 33.1629 105.89 33.7656ZM115.411 29.6364H117.004V40.7557C117.004 41.3944 116.894 41.9477 116.673 42.4155C116.457 42.8833 116.129 43.2454 115.688 43.5018C115.252 43.7582 114.701 43.8864 114.035 43.8864C113.981 43.8864 113.927 43.8864 113.873 43.8864C113.819 43.8864 113.765 43.8864 113.711 43.8864V42.402C113.765 42.402 113.815 42.402 113.86 42.402C113.905 42.402 113.954 42.402 114.008 42.402C114.494 42.402 114.849 42.258 115.074 41.9702C115.299 41.6868 115.411 41.282 115.411 40.7557V29.6364ZM116.194 27.9091C115.884 27.9091 115.616 27.8034 115.391 27.592C115.171 27.3806 115.061 27.1264 115.061 26.8295C115.061 26.5327 115.171 26.2785 115.391 26.0671C115.616 25.8557 115.884 25.75 116.194 25.75C116.505 25.75 116.77 25.8557 116.99 26.0671C117.215 26.2785 117.328 26.5327 117.328 26.8295C117.328 27.1264 117.215 27.3806 116.99 27.592C116.77 27.8034 116.505 27.9091 116.194 27.9091ZM122.97 40.2429C122.313 40.2429 121.717 40.1192 121.182 39.8718C120.647 39.6199 120.222 39.2578 119.907 38.7855C119.592 38.3087 119.434 37.733 119.434 37.0582C119.434 36.4645 119.551 35.9832 119.785 35.6143C120.019 35.241 120.332 34.9486 120.723 34.7372C121.115 34.5258 121.546 34.3684 122.019 34.2649C122.495 34.157 122.974 34.0715 123.456 34.0085C124.086 33.9276 124.596 33.8668 124.987 33.8263C125.383 33.7814 125.671 33.7071 125.851 33.6037C126.035 33.5002 126.128 33.3203 126.128 33.0639V33.0099C126.128 32.3442 125.945 31.8269 125.581 31.4581C125.221 31.0893 124.675 30.9048 123.942 30.9048C123.181 30.9048 122.585 31.0713 122.154 31.4041C121.722 31.737 121.418 32.0923 121.243 32.4702L119.731 31.9304C120.001 31.3007 120.361 30.8104 120.811 30.4595C121.265 30.1042 121.76 29.8568 122.295 29.7173C122.835 29.5734 123.366 29.5014 123.888 29.5014C124.22 29.5014 124.603 29.5419 125.035 29.6229C125.471 29.6993 125.892 29.859 126.296 30.1019C126.706 30.3448 127.045 30.7114 127.315 31.2017C127.585 31.692 127.72 32.3487 127.72 33.1719V40H126.128V38.5966H126.047C125.939 38.8215 125.759 39.0621 125.507 39.3185C125.255 39.5749 124.92 39.7931 124.502 39.973C124.083 40.1529 123.573 40.2429 122.97 40.2429ZM123.213 38.8125C123.843 38.8125 124.373 38.6888 124.805 38.4414C125.242 38.194 125.57 37.8746 125.79 37.4833C126.015 37.092 126.128 36.6804 126.128 36.2486V34.7912C126.06 34.8722 125.912 34.9464 125.682 35.0138C125.457 35.0768 125.197 35.133 124.9 35.1825C124.607 35.2275 124.322 35.268 124.043 35.304C123.768 35.3355 123.546 35.3625 123.375 35.3849C122.961 35.4389 122.574 35.5266 122.214 35.6481C121.859 35.765 121.571 35.9427 121.351 36.1811C121.135 36.415 121.027 36.7344 121.027 37.1392C121.027 37.6925 121.231 38.1108 121.641 38.3942C122.055 38.6731 122.579 38.8125 123.213 38.8125ZM132.219 33.7656V40H130.626V29.6364H132.165V31.2557H132.3C132.543 30.7294 132.911 30.3066 133.406 29.9872C133.901 29.6634 134.54 29.5014 135.322 29.5014C136.024 29.5014 136.638 29.6454 137.164 29.9332C137.691 30.2166 138.1 30.6484 138.392 31.2287C138.685 31.8045 138.831 32.5331 138.831 33.4148V40H137.239V33.5227C137.239 32.7086 137.027 32.0743 136.604 31.62C136.181 31.1612 135.601 30.9318 134.864 30.9318C134.355 30.9318 133.901 31.042 133.501 31.2624C133.105 31.4828 132.792 31.8045 132.563 32.2273C132.333 32.6501 132.219 33.1629 132.219 33.7656ZM146.086 40.2159C145.087 40.2159 144.226 39.9955 143.502 39.5547C142.782 39.1094 142.226 38.4886 141.835 37.6925C141.448 36.8918 141.255 35.9607 141.255 34.8991C141.255 33.8376 141.448 32.902 141.835 32.0923C142.226 31.2782 142.771 30.6439 143.468 30.1896C144.17 29.7308 144.988 29.5014 145.924 29.5014C146.464 29.5014 146.997 29.5914 147.523 29.7713C148.049 29.9512 148.528 30.2436 148.96 30.6484C149.392 31.0488 149.736 31.5795 149.992 32.2408C150.249 32.902 150.377 33.7161 150.377 34.6832V35.358H142.388V33.9815H148.758C148.758 33.3968 148.641 32.875 148.407 32.4162C148.177 31.9574 147.849 31.5953 147.422 31.3299C146.999 31.0645 146.5 30.9318 145.924 30.9318C145.29 30.9318 144.741 31.0893 144.278 31.4041C143.819 31.7145 143.466 32.1193 143.218 32.6186C142.971 33.1179 142.847 33.6532 142.847 34.2244V35.142C142.847 35.9247 142.982 36.5882 143.252 37.1325C143.526 37.6722 143.906 38.0838 144.392 38.3672C144.878 38.6461 145.443 38.7855 146.086 38.7855C146.504 38.7855 146.882 38.727 147.219 38.6101C147.561 38.4886 147.856 38.3087 148.103 38.0703C148.351 37.8274 148.542 37.526 148.677 37.1662L150.215 37.598C150.053 38.1198 149.781 38.5786 149.399 38.9744C149.016 39.3658 148.544 39.6716 147.982 39.892C147.419 40.108 146.787 40.2159 146.086 40.2159ZM153.509 43.8864C153.239 43.8864 152.999 43.8639 152.787 43.8189C152.576 43.7784 152.43 43.7379 152.349 43.6974L152.754 42.294C153.14 42.393 153.482 42.429 153.779 42.402C154.076 42.375 154.339 42.2423 154.569 42.0039C154.803 41.77 155.016 41.3899 155.21 40.8636L155.506 40.054L151.674 29.6364H153.401L156.262 37.8949H156.37L159.231 29.6364H160.958L156.559 41.5114C156.361 42.0466 156.116 42.4897 155.824 42.8406C155.531 43.1959 155.192 43.459 154.805 43.63C154.422 43.8009 153.991 43.8864 153.509 43.8864ZM165.794 40.2429C165.137 40.2429 164.541 40.1192 164.006 39.8718C163.471 39.6199 163.046 39.2578 162.731 38.7855C162.416 38.3087 162.259 37.733 162.259 37.0582C162.259 36.4645 162.376 35.9832 162.61 35.6143C162.843 35.241 163.156 34.9486 163.547 34.7372C163.939 34.5258 164.371 34.3684 164.843 34.2649C165.32 34.157 165.799 34.0715 166.28 34.0085C166.91 33.9276 167.42 33.8668 167.812 33.8263C168.207 33.7814 168.495 33.7071 168.675 33.6037C168.86 33.5002 168.952 33.3203 168.952 33.0639V33.0099C168.952 32.3442 168.77 31.8269 168.405 31.4581C168.046 31.0893 167.499 30.9048 166.766 30.9048C166.006 30.9048 165.41 31.0713 164.978 31.4041C164.546 31.737 164.242 32.0923 164.067 32.4702L162.556 31.9304C162.825 31.3007 163.185 30.8104 163.635 30.4595C164.089 30.1042 164.584 29.8568 165.119 29.7173C165.659 29.5734 166.19 29.5014 166.712 29.5014C167.045 29.5014 167.427 29.5419 167.859 29.6229C168.295 29.6993 168.716 29.859 169.121 30.1019C169.53 30.3448 169.869 30.7114 170.139 31.2017C170.409 31.692 170.544 32.3487 170.544 33.1719V40H168.952V38.5966H168.871C168.763 38.8215 168.583 39.0621 168.331 39.3185C168.079 39.5749 167.744 39.7931 167.326 39.973C166.907 40.1529 166.397 40.2429 165.794 40.2429ZM166.037 38.8125C166.667 38.8125 167.198 38.6888 167.629 38.4414C168.066 38.194 168.394 37.8746 168.615 37.4833C168.839 37.092 168.952 36.6804 168.952 36.2486V34.7912C168.884 34.8722 168.736 34.9464 168.507 35.0138C168.282 35.0768 168.021 35.133 167.724 35.1825C167.432 35.2275 167.146 35.268 166.867 35.304C166.593 35.3355 166.37 35.3625 166.199 35.3849C165.785 35.4389 165.398 35.5266 165.039 35.6481C164.683 35.765 164.395 35.9427 164.175 36.1811C163.959 36.415 163.851 36.7344 163.851 37.1392C163.851 37.6925 164.056 38.1108 164.465 38.3942C164.879 38.6731 165.403 38.8125 166.037 38.8125ZM178.255 27.6662V26.1818H188.618V27.6662H184.273V40H182.6V27.6662H178.255ZM193.827 40.2159C192.828 40.2159 191.967 39.9955 191.243 39.5547C190.523 39.1094 189.968 38.4886 189.576 37.6925C189.189 36.8918 188.996 35.9607 188.996 34.8991C188.996 33.8376 189.189 32.902 189.576 32.0923C189.968 31.2782 190.512 30.6439 191.209 30.1896C191.911 29.7308 192.729 29.5014 193.665 29.5014C194.205 29.5014 194.738 29.5914 195.264 29.7713C195.79 29.9512 196.269 30.2436 196.701 30.6484C197.133 31.0488 197.477 31.5795 197.734 32.2408C197.99 32.902 198.118 33.7161 198.118 34.6832V35.358H190.13V33.9815H196.499C196.499 33.3968 196.382 32.875 196.148 32.4162C195.919 31.9574 195.59 31.5953 195.163 31.3299C194.74 31.0645 194.241 30.9318 193.665 30.9318C193.031 30.9318 192.482 31.0893 192.019 31.4041C191.56 31.7145 191.207 32.1193 190.959 32.6186C190.712 33.1179 190.588 33.6532 190.588 34.2244V35.142C190.588 35.9247 190.723 36.5882 190.993 37.1325C191.268 37.6722 191.648 38.0838 192.133 38.3672C192.619 38.6461 193.184 38.7855 193.827 38.7855C194.245 38.7855 194.623 38.727 194.96 38.6101C195.302 38.4886 195.597 38.3087 195.844 38.0703C196.092 37.8274 196.283 37.526 196.418 37.1662L197.956 37.598C197.794 38.1198 197.522 38.5786 197.14 38.9744C196.757 39.3658 196.285 39.6716 195.723 39.892C195.161 40.108 194.529 40.2159 193.827 40.2159ZM204.751 40.2159C203.779 40.2159 202.942 39.9865 202.241 39.5277C201.539 39.0689 200.999 38.4369 200.621 37.6317C200.244 36.8266 200.055 35.9067 200.055 34.8722C200.055 33.8196 200.248 32.8907 200.635 32.0856C201.026 31.2759 201.57 30.6439 202.268 30.1896C202.969 29.7308 203.788 29.5014 204.724 29.5014C205.452 29.5014 206.109 29.6364 206.694 29.9062C207.279 30.1761 207.758 30.554 208.131 31.0398C208.504 31.5256 208.736 32.0923 208.826 32.7401H207.234C207.112 32.2678 206.842 31.8494 206.424 31.4851C206.01 31.1162 205.452 30.9318 204.751 30.9318C204.13 30.9318 203.586 31.0937 203.118 31.4176C202.655 31.737 202.292 32.189 202.032 32.7738C201.775 33.354 201.647 34.0355 201.647 34.8182C201.647 35.6188 201.773 36.3161 202.025 36.9098C202.281 37.5036 202.641 37.9646 203.104 38.293C203.572 38.6213 204.121 38.7855 204.751 38.7855C205.164 38.7855 205.54 38.7135 205.877 38.5696C206.215 38.4257 206.5 38.2188 206.734 37.9489C206.968 37.679 207.135 37.3551 207.234 36.9773H208.826C208.736 37.589 208.513 38.14 208.158 38.6303C207.807 39.1161 207.342 39.503 206.761 39.7908C206.186 40.0742 205.515 40.2159 204.751 40.2159ZM212.746 33.7656V40H211.154V26.1818H212.746V31.2557H212.881C213.124 30.7204 213.488 30.2953 213.974 29.9805C214.464 29.6611 215.117 29.5014 215.931 29.5014C216.637 29.5014 217.255 29.6431 217.786 29.9265C218.317 30.2054 218.728 30.6349 219.021 31.2152C219.318 31.791 219.466 32.5241 219.466 33.4148V40H217.874V33.5227C217.874 32.6996 217.66 32.0631 217.233 31.6133C216.81 31.159 216.223 30.9318 215.472 30.9318C214.95 30.9318 214.482 31.042 214.068 31.2624C213.659 31.4828 213.335 31.8045 213.097 32.2273C212.863 32.6501 212.746 33.1629 212.746 33.7656Z" fill="#021526"/>
<path d="M115.528 52.056C115.117 52.056 114.749 51.9893 114.424 51.856C114.099 51.7227 113.837 51.5253 113.64 51.264C113.448 51.0027 113.347 50.688 113.336 50.32H114.792C114.813 50.528 114.885 50.688 115.008 50.8C115.131 50.9067 115.291 50.96 115.488 50.96C115.691 50.96 115.851 50.9147 115.968 50.824C116.085 50.728 116.144 50.5973 116.144 50.432C116.144 50.2933 116.096 50.1787 116 50.088C115.909 49.9973 115.795 49.9227 115.656 49.864C115.523 49.8053 115.331 49.7387 115.08 49.664C114.717 49.552 114.421 49.44 114.192 49.328C113.963 49.216 113.765 49.0507 113.6 48.832C113.435 48.6133 113.352 48.328 113.352 47.976C113.352 47.4533 113.541 47.0453 113.92 46.752C114.299 46.4533 114.792 46.304 115.4 46.304C116.019 46.304 116.517 46.4533 116.896 46.752C117.275 47.0453 117.477 47.456 117.504 47.984H116.024C116.013 47.8027 115.947 47.6613 115.824 47.56C115.701 47.4533 115.544 47.4 115.352 47.4C115.187 47.4 115.053 47.4453 114.952 47.536C114.851 47.6213 114.8 47.7467 114.8 47.912C114.8 48.0933 114.885 48.2347 115.056 48.336C115.227 48.4373 115.493 48.5467 115.856 48.664C116.219 48.7867 116.512 48.904 116.736 49.016C116.965 49.128 117.163 49.2907 117.328 49.504C117.493 49.7173 117.576 49.992 117.576 50.328C117.576 50.648 117.493 50.9387 117.328 51.2C117.168 51.4613 116.933 51.6693 116.624 51.824C116.315 51.9787 115.949 52.056 115.528 52.056ZM121.074 52.056C120.546 52.056 120.061 51.9333 119.618 51.688C119.181 51.4427 118.831 51.1013 118.57 50.664C118.314 50.2213 118.186 49.7253 118.186 49.176C118.186 48.6267 118.314 48.1333 118.57 47.696C118.831 47.2587 119.181 46.9173 119.618 46.672C120.061 46.4267 120.546 46.304 121.074 46.304C121.602 46.304 122.085 46.4267 122.522 46.672C122.965 46.9173 123.311 47.2587 123.562 47.696C123.818 48.1333 123.946 48.6267 123.946 49.176C123.946 49.7253 123.818 50.2213 123.562 50.664C123.306 51.1013 122.959 51.4427 122.522 51.688C122.085 51.9333 121.602 52.056 121.074 52.056ZM121.074 50.808C121.522 50.808 121.879 50.6587 122.146 50.36C122.418 50.0613 122.554 49.6667 122.554 49.176C122.554 48.68 122.418 48.2853 122.146 47.992C121.879 47.6933 121.522 47.544 121.074 47.544C120.621 47.544 120.258 47.6907 119.986 47.984C119.719 48.2773 119.586 48.6747 119.586 49.176C119.586 49.672 119.719 50.0693 119.986 50.368C120.258 50.6613 120.621 50.808 121.074 50.808ZM128.363 46.384V47.48H126.075V48.664H127.787V49.728H126.075V52H124.707V46.384H128.363ZM133.122 46.384V47.48H131.634V52H130.266V47.48H128.778V46.384H133.122ZM141.536 46.384L140.073 52H138.417L137.521 48.304L136.593 52H134.937L133.513 46.384H134.977L135.785 50.472L136.785 46.384H138.289L139.249 50.472L140.065 46.384H141.536ZM145.719 51.008H143.623L143.287 52H141.855L143.887 46.384H145.471L147.503 52H146.055L145.719 51.008ZM145.367 49.952L144.671 47.896L143.983 49.952H145.367ZM150.985 52L149.817 49.88H149.489V52H148.121V46.384H150.417C150.86 46.384 151.236 46.4613 151.545 46.616C151.86 46.7707 152.094 46.984 152.249 47.256C152.404 47.5227 152.481 47.8213 152.481 48.152C152.481 48.5253 152.374 48.8587 152.161 49.152C151.953 49.4453 151.644 49.6533 151.233 49.776L152.529 52H150.985ZM149.489 48.912H150.337C150.588 48.912 150.774 48.8507 150.897 48.728C151.025 48.6053 151.089 48.432 151.089 48.208C151.089 47.9947 151.025 47.8267 150.897 47.704C150.774 47.5813 150.588 47.52 150.337 47.52H149.489V48.912ZM154.708 47.48V48.616H156.54V49.672H154.708V50.904H156.78V52H153.34V46.384H156.78V47.48H154.708ZM161.395 52.056C160.985 52.056 160.617 51.9893 160.291 51.856C159.966 51.7227 159.705 51.5253 159.507 51.264C159.315 51.0027 159.214 50.688 159.203 50.32H160.659C160.681 50.528 160.753 50.688 160.875 50.8C160.998 50.9067 161.158 50.96 161.355 50.96C161.558 50.96 161.718 50.9147 161.835 50.824C161.953 50.728 162.011 50.5973 162.011 50.432C162.011 50.2933 161.963 50.1787 161.867 50.088C161.777 49.9973 161.662 49.9227 161.523 49.864C161.39 49.8053 161.198 49.7387 160.947 49.664C160.585 49.552 160.289 49.44 160.059 49.328C159.83 49.216 159.633 49.0507 159.467 48.832C159.302 48.6133 159.219 48.328 159.219 47.976C159.219 47.4533 159.409 47.0453 159.787 46.752C160.166 46.4533 160.659 46.304 161.267 46.304C161.886 46.304 162.385 46.4533 162.763 46.752C163.142 47.0453 163.345 47.456 163.371 47.984H161.891C161.881 47.8027 161.814 47.6613 161.691 47.56C161.569 47.4533 161.411 47.4 161.219 47.4C161.054 47.4 160.921 47.4453 160.819 47.536C160.718 47.6213 160.667 47.7467 160.667 47.912C160.667 48.0933 160.753 48.2347 160.923 48.336C161.094 48.4373 161.361 48.5467 161.723 48.664C162.086 48.7867 162.379 48.904 162.603 49.016C162.833 49.128 163.03 49.2907 163.195 49.504C163.361 49.7173 163.443 49.992 163.443 50.328C163.443 50.648 163.361 50.9387 163.195 51.2C163.035 51.4613 162.801 51.6693 162.491 51.824C162.182 51.9787 161.817 52.056 161.395 52.056ZM166.941 52.056C166.413 52.056 165.928 51.9333 165.485 51.688C165.048 51.4427 164.698 51.1013 164.437 50.664C164.181 50.2213 164.053 49.7253 164.053 49.176C164.053 48.6267 164.181 48.1333 164.437 47.696C164.698 47.2587 165.048 46.9173 165.485 46.672C165.928 46.4267 166.413 46.304 166.941 46.304C167.469 46.304 167.952 46.4267 168.389 46.672C168.832 46.9173 169.178 47.2587 169.429 47.696C169.685 48.1333 169.813 48.6267 169.813 49.176C169.813 49.7253 169.685 50.2213 169.429 50.664C169.173 51.1013 168.826 51.4427 168.389 51.688C167.952 51.9333 167.469 52.056 166.941 52.056ZM166.941 50.808C167.389 50.808 167.746 50.6587 168.013 50.36C168.285 50.0613 168.421 49.6667 168.421 49.176C168.421 48.68 168.285 48.2853 168.013 47.992C167.746 47.6933 167.389 47.544 166.941 47.544C166.488 47.544 166.125 47.6907 165.853 47.984C165.586 48.2773 165.453 48.6747 165.453 49.176C165.453 49.672 165.586 50.0693 165.853 50.368C166.125 50.6613 166.488 50.808 166.941 50.808ZM171.942 50.944H173.734V52H170.574V46.384H171.942V50.944ZM175.731 46.384V49.744C175.731 50.08 175.813 50.3387 175.979 50.52C176.144 50.7013 176.387 50.792 176.707 50.792C177.027 50.792 177.272 50.7013 177.443 50.52C177.613 50.3387 177.699 50.08 177.699 49.744V46.384H179.067V49.736C179.067 50.2373 178.96 50.6613 178.747 51.008C178.533 51.3547 178.245 51.616 177.883 51.792C177.525 51.968 177.125 52.056 176.683 52.056C176.24 52.056 175.843 51.9707 175.491 51.8C175.144 51.624 174.869 51.3627 174.667 51.016C174.464 50.664 174.363 50.2373 174.363 49.736V46.384H175.731ZM184.067 46.384V47.48H182.579V52H181.211V47.48H179.723V46.384H184.067ZM186.122 46.384V52H184.754V46.384H186.122ZM189.769 52.056C189.241 52.056 188.756 51.9333 188.313 51.688C187.876 51.4427 187.527 51.1013 187.265 50.664C187.009 50.2213 186.881 49.7253 186.881 49.176C186.881 48.6267 187.009 48.1333 187.265 47.696C187.527 47.2587 187.876 46.9173 188.313 46.672C188.756 46.4267 189.241 46.304 189.769 46.304C190.297 46.304 190.78 46.4267 191.217 46.672C191.66 46.9173 192.007 47.2587 192.257 47.696C192.513 48.1333 192.641 48.6267 192.641 49.176C192.641 49.7253 192.513 50.2213 192.257 50.664C192.001 51.1013 191.655 51.4427 191.217 51.688C190.78 51.9333 190.297 52.056 189.769 52.056ZM189.769 50.808C190.217 50.808 190.575 50.6587 190.841 50.36C191.113 50.0613 191.249 49.6667 191.249 49.176C191.249 48.68 191.113 48.2853 190.841 47.992C190.575 47.6933 190.217 47.544 189.769 47.544C189.316 47.544 188.953 47.6907 188.681 47.984C188.415 48.2773 188.281 48.6747 188.281 49.176C188.281 49.672 188.415 50.0693 188.681 50.368C188.953 50.6613 189.316 50.808 189.769 50.808ZM198.426 52H197.058L194.77 48.536V52H193.402V46.384H194.77L197.058 49.864V46.384H198.426V52Z" fill="#021526"/>
<path d="M111.031 49H95" stroke="#021526" stroke-width="2" stroke-linecap="round" stroke-linejoin="round"/>
<path d="M217.031 49H201" stroke="#021526" stroke-width="2" stroke-linecap="round" stroke-linejoin="round"/>
</svg>
