<svg width="120" height="70" viewBox="0 0 120 70" fill="none" xmlns="http://www.w3.org/2000/svg">
<g clip-path="url(#clip0_84_166)">
<path fill-rule="evenodd" clip-rule="evenodd" d="M50 15C55.5228 15 60 19.4771 60 25V15H70C75.5228 15 80 19.4771 80 25C80 30.5228 75.5228 35 70 35C75.5228 35 80 39.4772 80 45C80 47.7423 78.8961 50.2268 77.1085 52.0334L77.0711 52.0711L77.0379 52.1041C75.2309 53.8943 72.7446 55 70 55C67.2741 55 64.8029 53.9093 62.999 52.1405C62.9756 52.1175 62.9522 52.0943 62.9289 52.0711C62.907 52.0492 62.8852 52.0272 62.8635 52.0051C61.0924 50.2009 60 47.728 60 45C60 50.5228 55.5228 55 50 55C44.4771 55 40 50.5228 40 45V35H50C44.4771 35 40 30.5228 40 25C40 19.4771 44.4771 15 50 15ZM58 25C58 29.4183 54.4183 33 50 33V17C54.4183 17 58 20.5817 58 25ZM78 45C78 40.5817 74.4183 37 70 37C65.5817 37 62 40.5817 62 45H78ZM42 37V45C42 49.4183 45.5817 53 50 53C54.4183 53 58 49.4183 58 45V37H42ZM62 33V17H70C74.4183 17 78 20.5817 78 25C78 29.4183 74.4183 33 70 33H62Z" fill="#2E52E8"/>
</g>
<defs>
<clipPath id="clip0_84_166">
<rect width="40" height="40" fill="white" transform="translate(40 15)"/>
</clipPath>
</defs>
</svg>
