<svg width="120" height="70" viewBox="0 0 120 70" fill="none" xmlns="http://www.w3.org/2000/svg">
<path d="M50.3232 39.4065C50.3232 41.3399 48.7515 42.9182 46.8182 42.9182C45.8881 42.9156 44.997 42.5446 44.3398 41.8864C43.6826 41.2283 43.3128 40.3366 43.3115 39.4065C43.3133 38.4768 43.6832 37.5855 44.3403 36.9277C44.9975 36.2699 45.8884 35.8992 46.8182 35.8965H50.3232V39.4065ZM52.0915 39.4065C52.0915 37.4732 53.6649 35.8965 55.5982 35.8965C56.5277 35.8996 57.4182 36.2706 58.075 36.9283C58.7318 37.586 59.1014 38.477 59.1032 39.4065V48.1965C59.1014 49.126 58.7318 50.0171 58.075 50.6748C57.4182 51.3325 56.5277 51.7035 55.5982 51.7065C54.6681 51.7048 53.7767 51.3343 53.1194 50.6763C52.462 50.0184 52.0924 49.1266 52.0915 48.1965V39.4065ZM55.5982 25.3149C53.6649 25.3149 52.0915 23.7349 52.0915 21.8032C52.0915 19.8715 53.6649 18.2932 55.5982 18.2932C56.5277 18.2963 57.4182 18.6672 58.075 19.325C58.7318 19.9827 59.1014 20.8737 59.1032 21.8032V25.3149H55.5982ZM55.5982 27.0815C56.528 27.0846 57.4187 27.4558 58.0755 28.1139C58.7324 28.772 59.1019 29.6634 59.1032 30.5932C59.1014 31.5227 58.7318 32.4137 58.075 33.0715C57.4182 33.7292 56.5277 34.1001 55.5982 34.1032H46.8199C45.8901 34.1006 44.9992 33.7298 44.342 33.072C43.6849 32.4143 43.3149 31.523 43.3132 30.5932C43.3145 29.6631 43.6842 28.7714 44.3414 28.1133C44.9986 27.4552 45.8898 27.0842 46.8199 27.0815H55.5982ZM69.6765 30.5932C69.6765 28.6599 71.2482 27.0815 73.1815 27.0815C74.1116 27.0842 75.0028 27.4552 75.66 28.1133C76.3172 28.7714 76.6869 29.6631 76.6882 30.5932C76.6864 31.523 76.3165 32.4143 75.6594 33.072C75.0022 33.7298 74.1113 34.1006 73.1815 34.1032H69.6765V30.5932ZM67.9082 30.5932C67.9082 32.5265 66.3349 34.1032 64.4015 34.1032C63.472 34.1001 62.5815 33.7292 61.9248 33.0715C61.268 32.4137 60.8983 31.5227 60.8965 30.5932V21.8032C60.8983 20.8737 61.268 19.9827 61.9248 19.325C62.5815 18.6672 63.472 18.2963 64.4015 18.2932C66.3349 18.2932 67.9082 19.8699 67.9082 21.8032V30.5932ZM64.4015 44.6849C66.3349 44.6849 67.9082 46.2649 67.9082 48.1965C67.9082 50.1282 66.3349 51.7065 64.4015 51.7065C63.472 51.7035 62.5815 51.3325 61.9248 50.6748C61.268 50.0171 60.8983 49.126 60.8965 48.1965V44.6849H64.4015ZM64.4015 42.9182C63.4717 42.9151 62.581 42.5439 61.9242 41.8859C61.2673 41.2278 60.8978 40.3363 60.8965 39.4065C60.8983 38.477 61.268 37.586 61.9248 36.9283C62.5815 36.2706 63.472 35.8996 64.4015 35.8965H73.1815C74.1113 35.8992 75.0022 36.2699 75.6594 36.9277C76.3165 37.5855 76.6864 38.4768 76.6882 39.4065C76.6869 40.3366 76.3172 41.2283 75.66 41.8864C75.0028 42.5446 74.1116 42.9156 73.1815 42.9182H64.4015Z" fill="#2E52E8"/>
</svg>
