<svg width="120" height="70" viewBox="0 0 120 70" fill="none" xmlns="http://www.w3.org/2000/svg">
<path d="M59.999 15C48.9525 15 40 23.9545 40 34.999C40 43.471 45.271 50.7139 52.7121 53.6287C52.5359 52.0472 52.3798 49.6129 52.7801 47.8872C53.1445 46.3258 55.1264 37.9458 55.1264 37.9458C55.1264 37.9458 54.5278 36.7467 54.5278 34.975C54.5278 32.1963 56.1393 30.1204 58.1472 30.1204C59.8549 30.1204 60.6776 31.4016 60.6776 32.937C60.6776 34.6547 59.5846 37.2191 59.0221 39.5974C58.5516 41.5873 60.021 43.2108 61.9829 43.2108C65.5363 43.2108 68.2709 39.4632 68.2709 34.0521C68.2709 29.2635 64.8296 25.9164 59.9169 25.9164C54.2255 25.9164 50.8843 30.1844 50.8843 34.5946C50.8843 36.3122 51.547 38.156 52.3738 39.1589C52.444 39.2345 52.4936 39.3268 52.5178 39.4271C52.542 39.5274 52.54 39.6322 52.5119 39.7315C52.3597 40.3621 52.0214 41.7214 51.9574 41.9996C51.8693 42.366 51.6671 42.4441 51.2867 42.2679C48.7903 41.1048 47.2289 37.4533 47.2289 34.5185C47.2289 28.2105 51.8112 22.417 60.4434 22.417C67.382 22.417 72.7731 27.3597 72.7731 33.968C72.7731 40.8626 68.427 46.4058 62.3953 46.4058C60.3673 46.4058 58.4635 45.3548 57.8109 44.1117L56.5637 48.8642C56.1133 50.6018 54.8941 52.7799 54.0794 54.1091C55.9974 54.7013 57.9936 55.0016 60.001 55C71.0455 55 80 46.0455 80 35.001C80 23.9565 71.0435 15 59.999 15Z" fill="#2E52E8"/>
</svg>
