<svg width="120" height="70" viewBox="0 0 120 70" fill="none" xmlns="http://www.w3.org/2000/svg">
<path d="M60.0083 51.6533V45.1916C66.8483 45.1916 72.155 38.4116 69.5317 31.2116C69.0454 29.8937 68.2782 28.6973 67.2832 27.7055C66.2883 26.7138 65.0895 25.9504 63.77 25.4683C56.5717 22.8633 49.7883 28.1516 49.7883 34.9916H43.3467C43.3467 24.0899 53.8883 15.5883 65.32 19.1599C70.305 20.7266 74.2917 24.6949 75.8417 29.6816C79.41 41.1116 70.9083 51.6533 60.0083 51.6533Z" fill="#2E52E8"/>
<path d="M60.0286 45.2317H53.5869V38.7883H60.0286V45.2317ZM53.5869 50.1633H48.6552V45.2317H53.5869V50.1633ZM48.6552 45.2317H44.5186V41.0933H48.6552V45.2317Z" fill="#2E52E8"/>
</svg>
