<svg width="20" height="15" viewBox="0 0 20 15" fill="none" xmlns="http://www.w3.org/2000/svg">
<path d="M11.7674 7.49999L19.6338 1.60086C20.1221 1.23463 20.1221 0.640865 19.6338 0.274669C19.1455 -0.0915564 18.3538 -0.0915564 17.8655 0.274669L9.99998 6.17441L2.13447 0.274669C1.64617 -0.0915564 0.854487 -0.0915564 0.366226 0.274669C-0.122036 0.640895 -0.122075 1.23466 0.366226 1.60086L8.23255 7.49999L0.366226 13.3991C-0.122075 13.7654 -0.122075 14.3591 0.366226 14.7253C0.854526 15.0915 1.64621 15.0916 2.13447 14.7253L9.99998 8.82556L17.8655 14.7253C18.3538 15.0916 19.1455 15.0916 19.6337 14.7253C20.122 14.3591 20.122 13.7653 19.6337 13.3991L11.7674 7.49999Z" fill="black"/>
</svg>
