<svg width="264" height="259" viewBox="0 0 264 259" fill="none" xmlns="http://www.w3.org/2000/svg">
<path d="M149.735 201.418C149.626 201.447 149.533 201.517 149.478 201.612C149.422 201.707 149.407 201.82 149.437 201.925C149.468 202.03 149.54 202.12 149.638 202.174C149.736 202.228 149.852 202.242 149.961 202.213C153.537 201.455 156.889 199.923 159.767 197.733C170.705 189.91 170.139 178.813 176.365 168.661C181.346 160.921 185.718 161.811 185.378 160.811C185.366 160.772 185.345 160.735 185.317 160.704C185.289 160.672 185.255 160.647 185.216 160.629C185.178 160.611 185.136 160.601 185.093 160.599C185.051 160.598 185.008 160.604 184.968 160.619C165.385 167.593 176.45 192.458 149.735 201.418ZM228.989 177.059C229.541 176.498 230.092 175.909 230.63 175.32C234.79 170.429 237.705 162.853 237.422 157.277C237.415 157.217 237.391 157.159 237.352 157.112C237.314 157.064 237.263 157.028 237.204 157.006C237.146 156.985 237.082 156.98 237.021 156.991C236.959 157.003 236.902 157.03 236.856 157.071C236.432 157.468 237.62 159.66 234.635 166.565C231.805 173.114 229.328 174.785 226.541 177.84C224.044 180.632 222.145 183.877 220.957 187.387C219.769 190.896 219.315 194.6 219.621 198.281C219.638 198.358 219.681 198.428 219.744 198.478C219.807 198.528 219.887 198.555 219.968 198.555C220.05 198.555 220.129 198.528 220.192 198.478C220.255 198.428 220.299 198.358 220.315 198.281C220.218 194.361 220.936 190.463 222.426 186.817C223.916 183.172 226.148 179.853 228.989 177.059ZM104.752 117.903C106.167 116.958 106.068 114.067 104.752 112.998C104.38 112.707 103.946 112.5 103.481 112.39C103.017 112.279 102.533 112.27 102.064 112.361C101.595 112.453 101.153 112.643 100.769 112.919C100.385 113.195 100.068 113.55 99.8417 113.957C99.5791 114.595 99.5318 115.296 99.7066 115.961C99.8815 116.626 100.269 117.221 100.815 117.659C101.36 118.097 102.035 118.357 102.742 118.401C103.45 118.444 104.153 118.27 104.752 117.903ZM100.861 114.766C101.285 113.204 104.073 112.985 104.497 114.546C104.78 115.615 104.653 116.368 104.087 116.779C103.747 116.984 103.36 117.105 102.96 117.131C102.56 117.158 102.16 117.089 101.794 116.93C101.412 116.722 101.112 116.396 100.942 116.004C100.773 115.611 100.744 115.176 100.861 114.766ZM153.102 92.5579C153.048 92.5541 152.993 92.5612 152.942 92.5788C152.891 92.5964 152.844 92.624 152.804 92.66C152.764 92.696 152.732 92.7396 152.71 92.788C152.689 92.8365 152.678 92.8887 152.678 92.9415C152.678 94.3115 150.286 95.6815 149.848 95.8185C149.763 95.8384 149.691 95.8901 149.646 95.962C149.6 96.034 149.587 96.1203 149.607 96.2021C149.628 96.2838 149.681 96.3543 149.756 96.398C149.83 96.4416 149.919 96.4549 150.003 96.435C153.725 95.6952 154.291 92.5305 153.102 92.5579ZM148.136 90.4618C147.966 90.3659 147.216 89.8316 146.947 89.6261C146.947 89.448 147.612 87.1601 147.739 86.7217C147.867 86.2833 147.287 86.1737 147.131 86.5299C146.539 87.6405 146.065 88.8064 145.716 90.0097C145.829 90.407 147.796 90.9276 147.938 90.9276C147.997 90.9353 148.056 90.924 148.108 90.8952C148.16 90.8665 148.2 90.822 148.222 90.7688C148.245 90.7155 148.249 90.6565 148.233 90.6009C148.217 90.5454 148.183 90.4964 148.136 90.4618ZM143.466 83.1186C143.446 83.0001 143.383 82.8925 143.288 82.8149C143.194 82.7373 143.074 82.6947 142.95 82.6947C142.826 82.6947 142.706 82.7373 142.611 82.8149C142.517 82.8925 142.454 83.0001 142.433 83.1186C142.379 84.0631 142.379 85.0099 142.433 85.9545C142.522 86.0949 142.656 86.2027 142.815 86.2608C142.975 86.3189 143.149 86.324 143.311 86.2753C143.474 86.2265 143.615 86.1267 143.712 85.9917C143.809 85.8567 143.857 85.6941 143.848 85.5298C143.652 84.7376 143.524 83.9311 143.466 83.1186ZM153.357 85.5161C153.176 84.7305 153.048 83.9341 152.975 83.1323C152.975 82.9978 152.92 82.8689 152.822 82.7738C152.723 82.6788 152.59 82.6254 152.451 82.6254C152.313 82.6254 152.179 82.6788 152.081 82.7738C151.983 82.8689 151.928 82.9978 151.928 83.1323C151.877 84.0449 151.877 84.9596 151.928 85.8723C151.936 85.9783 151.968 86.0814 152.021 86.1742C152.075 86.2671 152.149 86.3473 152.238 86.4094C152.327 86.4715 152.429 86.5138 152.537 86.5335C152.645 86.5531 152.756 86.5495 152.863 86.523C152.969 86.4965 153.068 86.4477 153.153 86.3801C153.238 86.3124 153.306 86.2275 153.353 86.1315C153.4 86.0354 153.425 85.9305 153.426 85.8242C153.426 85.7178 153.403 85.6127 153.357 85.5161Z" fill="#2E52E8"/>
<path d="M263.596 64.093C263.497 55.5579 260.54 52.1877 251.413 52.448C248.81 52.448 202.383 52.9001 199.058 53.0097C196.829 53.0103 194.623 53.4533 192.578 54.3112C191.403 54.7633 185.262 57.7362 184.583 59.3117C183.847 60.4351 184.71 92.4384 184.583 99.0418C183.6 98.4997 182.589 98.0059 181.555 97.5621C181.368 96.6622 180.971 95.8155 180.395 95.0866C179.818 94.3577 179.078 93.7659 178.229 93.3562C176.928 92.863 175.258 93.4521 174.296 92.5616C173.334 91.6711 175.06 91.1916 175.244 89.8216C175.238 88.8717 175.124 87.9252 174.904 86.9994C174.051 82.0332 172.86 77.1271 171.338 72.313C170.065 68.3537 168.735 64.9972 165.07 62.8463C165.07 56.1881 164.377 17.1705 163.995 15.1018C163.618 13.0602 162.493 11.2186 160.827 9.91499C159.161 8.61142 157.065 7.93335 154.924 8.00524C154.783 8.00524 57.4026 8.00524 57.2894 8.11484C53.3982 10.3616 52.3511 15.3758 52.0964 19.0748C52.0115 20.9243 53.6812 58.2705 54.3462 70.1347C47.4552 70.2717 12.6462 71.1759 10.651 72.2034C6.13716 73.272 1.14221 76.3134 0.165862 81.2591C-0.442588 84.4375 0.788462 145.498 1.19881 148.389C1.49269 151.511 2.93364 154.428 5.25986 156.609C7.79271 158.76 11.2453 159.157 14.2876 159.267L78.854 158.089C72.5431 171.926 65.27 191.544 60.459 203.751C60.4364 203.786 60.4244 203.826 60.4244 203.867C60.4244 203.908 60.4364 203.949 60.459 203.984C61.761 205.222 63.1825 206.337 64.704 207.313C62.3976 214.944 62.6523 215.368 62.1429 215.985C57.7705 221.177 52.4926 224.205 47.2854 224.698C44.8657 224.958 42.4744 225.369 41.6254 227.644C40.932 229.712 42.7715 231.096 44.9223 231.671C46.3373 232.041 55.9876 234.11 57.4168 234.274C58.6832 234.48 59.9825 234.2 61.0392 233.494C62.058 232.767 65.4115 228.931 66.6992 227.781C64.3644 238.741 62.7372 235.247 68.2981 237.59C68.3758 237.63 68.4616 237.653 68.5495 237.657C68.6374 237.661 68.7252 237.646 68.8064 237.613C68.8876 237.581 68.9603 237.531 69.0193 237.467C69.0782 237.404 69.1218 237.329 69.1471 237.247C70.1376 234.507 76.8447 218.848 79.5757 214.779C80.2407 231.329 80.1275 230.466 80.3681 230.534C81.3161 230.767 82.3491 230.986 83.4103 231.192C83.4103 233.494 83.4811 235.85 83.6792 238.426C83.6792 238.508 83.566 238.645 83.4528 238.864C79.9436 246.317 76.0099 249.358 71.7366 251.194C69.8405 252.016 67.2227 253.139 67.2935 255.674C67.2935 257.866 69.6141 258.565 71.8639 258.482C75.2458 258.373 79.6181 257.934 81.5991 257.838C87.2591 257.51 87.4006 256.468 89.8061 251.769C90.358 250.687 91.0089 249.399 91.3768 248.769C92.0418 256.468 91.1645 257.606 92.2541 257.551C95.2114 257.4 96.4991 258.181 96.4991 257.153C96.6123 254.331 97.9141 243.234 98.5933 240.508C98.5933 240.193 98.3669 240.015 98.0273 239.946C98.4518 237.398 99.4423 232.384 99.5696 231.466C100.277 231.37 100.985 231.26 101.536 231.137C101.692 231.137 101.536 231.863 103.928 222.314C121.106 228.877 139.43 230.452 155.872 226.712C156.453 228.89 160.655 243.741 162.947 250.249C163.729 252.375 164.769 254.403 166.046 256.29C166.372 256.592 166.924 257.126 167.461 257.126C167.999 257.126 168.593 256.4 168.735 255.66C168.876 254.92 166.655 233.315 165.905 225.52C169.267 224.714 172.527 223.551 175.626 222.054L180.21 236.795C180.345 237.015 180.547 237.188 180.788 237.291C181.029 237.393 181.298 237.42 181.556 237.367C181.814 237.314 182.048 237.184 182.225 236.996C182.403 236.807 182.515 236.569 182.545 236.316L182.107 218.656C184.249 217.305 186.3 215.822 188.248 214.218C189.132 215.045 190.127 215.755 191.205 216.327C191.316 216.387 191.446 216.401 191.568 216.368C191.69 216.334 191.793 216.256 191.856 216.149C193.033 214.427 194.353 212.8 195.804 211.286C195.521 213.053 194.969 216.67 194.898 217.793C194.896 217.866 194.91 217.938 194.937 218.005C194.965 218.073 195.007 218.134 195.06 218.185C195.113 218.236 195.176 218.277 195.245 218.303C195.315 218.33 195.389 218.343 195.464 218.341C196.967 218.296 198.467 218.485 199.907 218.903C195.294 221.054 193.186 222.876 193.469 224.383C194.022 227.074 194.798 229.718 195.79 232.288C196.554 234.425 197.346 236.645 199.723 237.576C210.619 242.042 226.806 238.782 237.744 234.329C247.027 230.808 248.385 225.109 247.564 217.054C247.395 215.519 245.555 215.341 241.692 215.437L251.102 203.915C253.932 200.641 251.47 200.751 250.578 194.325C251.431 195.548 252.455 196.65 253.621 197.6C253.69 197.652 253.77 197.69 253.855 197.711C253.94 197.733 254.029 197.737 254.116 197.723C254.498 197.654 254.201 197.846 257.71 191.736C257.777 191.625 257.802 191.494 257.781 191.367C257.761 191.24 257.696 191.123 257.597 191.037C256.054 189.804 252.333 186.927 252.333 186.927C254.251 186.488 256.141 185.939 257.993 185.283C258.434 185.173 258.834 184.943 259.145 184.62C259.456 184.297 259.665 183.895 259.748 183.461C259.932 182.393 259.946 160.87 259.974 157.938C259.974 157.459 259.182 157.322 259.097 157.842C257.441 168.706 249.843 177.748 240.136 180.447C240.447 179.228 241.239 176.584 240.801 175.858C239.2 174.882 237.497 174.074 235.721 173.446C237.49 172.474 241.579 169.939 241.876 169.158C242.06 168.706 241.155 147.567 241.112 145.252C241.105 145.156 241.067 145.066 241.003 144.992C240.94 144.919 240.854 144.868 240.758 144.845C240.662 144.822 240.561 144.829 240.469 144.865C240.378 144.902 240.301 144.965 240.249 145.046C237.509 150.284 233.457 154.773 228.462 158.102C227.882 158.486 223.708 160.637 223.382 160.925C222.335 161.897 223.637 163.089 224.189 163.843C224.585 164.363 225.943 166.131 226.212 166.501C221.231 167.09 219.915 165.432 219.661 166.501C219.171 167.896 218.511 169.23 217.694 170.474C217.986 171.674 218.359 172.855 218.812 174.008C217.982 174.14 217.136 174.14 216.307 174.008C216.159 173.977 216.005 174.001 215.874 174.075C215.743 174.148 215.645 174.266 215.6 174.405C215.203 175.652 214.892 176.693 214.609 177.666C212.894 174.85 211.004 172.137 208.949 169.542C207.944 162.117 204.322 153.444 196.667 152.294C202.426 149.965 206.204 143.978 207.11 137.909C209.826 137.909 249.079 137.799 250.663 137.909C259.252 138.142 263.087 134.963 263.894 126.483C264.219 123.099 263.596 64.7095 263.596 64.093ZM68.1991 227.205C68.2347 227.06 68.2122 226.907 68.1361 226.778C68.0599 226.648 67.9358 226.551 67.7887 226.507C66.6426 226.096 65.7653 227.068 65.1285 227.767C63.5166 229.667 61.7466 231.435 59.8364 233.055C58.7752 233.548 46.4222 231.069 44.8799 230.603C44.0496 230.421 43.3274 229.928 42.8706 229.233C42.6919 228.727 42.7113 228.176 42.9253 227.683C43.1392 227.191 43.5327 226.791 44.0309 226.561C45.1204 225.917 45.927 225.972 48.9834 225.424C52.0398 224.876 55.0679 224.342 60.3883 219.492C61.1295 218.805 61.8198 218.068 62.4542 217.286C63.3376 219.188 64.8247 220.767 66.6992 221.794C69.2103 222.873 72.0148 223.138 74.6939 222.547C73.2789 225.287 69.3735 233.85 68.3972 236.466C67.6189 236.165 66.8265 235.891 66.0483 235.672C66.9247 232.89 67.6427 230.063 68.1991 227.205ZM192.464 152.184C190.474 152.267 188.497 152.542 186.564 153.006C180.226 153.7 173.854 154.056 167.475 154.075C166.542 148.595 166.825 149.608 166.584 148.088C166.485 147.43 166.343 146.526 166.839 146.238C173.617 143.306 180.663 140.649 187.413 137.785C188.828 138.785 188.941 138.662 189.068 138.58C189.129 138.517 189.163 138.433 189.163 138.347C189.163 138.261 189.129 138.177 189.068 138.114C188.516 137.574 187.935 137.062 187.328 136.58C181.896 131.876 178.112 125.651 176.503 118.77C176.484 118.688 176.433 118.617 176.36 118.572C176.287 118.527 176.198 118.512 176.114 118.53C176.03 118.548 175.956 118.598 175.91 118.669C175.863 118.739 175.848 118.825 175.866 118.907C177.065 126.063 180.888 132.561 186.635 137.21L167.122 145.019C166.558 145.179 166.062 145.511 165.707 145.964C164.73 145.707 163.848 145.19 163.16 144.471C159.481 141.608 158.009 143.567 153.255 147.211C152.795 147.547 152.36 147.913 151.953 148.307C149.44 146.143 146.935 143.969 144.439 141.786C143.803 140.882 138.001 121.51 135.624 113.728C137.461 109.414 140.426 105.637 144.227 102.768C144.666 104.068 145.22 105.328 145.883 106.536C146.944 107.522 148.316 107.043 149.646 106.727C149.28 107.464 149.069 108.263 149.025 109.08C148.981 109.896 149.106 110.712 149.392 111.481C150.394 113.656 151.958 115.543 153.934 116.961C158.773 121.071 158.533 120.962 158.816 120.962C158.946 120.955 159.07 120.903 159.164 120.815C159.258 120.727 159.315 120.608 159.325 120.482C159.806 115.701 161.391 114.386 165.862 112.865C168.308 112.092 170.377 110.48 171.68 108.333C172.983 106.185 173.43 103.651 172.937 101.206C175.895 101.228 178.842 100.859 181.696 100.11C181.831 100.081 181.948 100.001 182.023 99.888C182.097 99.7751 182.122 99.6383 182.092 99.5075C182.092 99.2747 181.993 99.0006 181.923 98.7129C202.567 108.426 215.147 138.69 198.492 149.937C196.681 151.112 194.621 151.879 192.464 152.184ZM197.219 153.746C200.855 154.499 203.898 157.459 205.879 162.665C215.331 187.393 193.299 217.355 165.947 224.315C165.777 222.657 164.844 213.039 164.66 212.327C164.524 211.698 164.15 211.141 163.613 210.765C161.872 209.834 158.886 210.861 157.302 211.765C155.791 212.736 154.441 213.924 153.297 215.286C153.297 215.725 155.278 223.986 155.703 225.671C138.505 229.153 120.629 227.667 104.296 221.396C106.814 211.258 110.154 197.38 111.088 193.079C120.823 196.01 134.506 195.736 134.647 195.723C134.693 195.711 134.733 195.685 134.761 195.649C134.79 195.613 134.805 195.569 134.805 195.524C134.805 195.479 134.79 195.435 134.761 195.399C134.733 195.363 134.693 195.337 134.647 195.325C126.794 192.791 120.016 186.256 115.573 176.913C108.739 162.952 94.5605 163.117 89.042 170.063C81.0614 180.091 79.7738 209.272 79.6464 212.793C79.1512 213.67 76.307 219.054 75.2316 221.246C66.7416 223.205 64.322 218.506 63.289 216.492C63.1192 216.149 63.2041 217.054 65.836 208.053C67.251 208.724 77.3117 212.163 77.3258 211.149C77.439 199.504 80.3539 171.802 88.2496 165.432C93.9096 160.938 106.149 161.719 111.569 165.61C115.014 168.655 117.833 172.304 119.875 176.365C124.417 185.804 132.242 192.805 140.93 194.558C152.066 193.613 164.985 176.433 168.678 165.446C175.499 157.075 186.748 152.28 197.219 153.746ZM219.364 209.464C219.382 209.545 219.434 209.617 219.507 209.662C219.58 209.707 219.668 209.722 219.753 209.703C219.837 209.685 219.911 209.635 219.957 209.565C220.003 209.494 220.019 209.408 220 209.327C219.109 204.915 216.59 201.107 215.005 196.997C212.26 189.969 214.255 182.42 216.576 175.282C217.611 175.469 218.681 175.335 219.632 174.899C220.411 174.31 219.788 173.309 218.911 170.789C219.632 169.732 220.199 168.584 220.595 167.377C222.806 167.884 225.106 167.912 227.33 167.46C227.416 167.438 227.496 167.397 227.563 167.341C227.63 167.284 227.682 167.212 227.715 167.132C227.749 167.052 227.762 166.965 227.754 166.88C227.746 166.794 227.717 166.711 227.67 166.638C226.722 165.432 224.217 162.13 224.09 161.884C223.962 161.637 224.09 161.664 224.5 161.486C231.263 158.506 236.81 153.431 240.263 147.06C240.433 151.54 240.985 168.213 240.829 168.884C238.631 170.425 236.312 171.799 233.896 172.994C233.79 173.051 233.704 173.136 233.649 173.24C233.594 173.344 233.571 173.461 233.585 173.577C233.599 173.693 233.648 173.802 233.726 173.891C233.804 173.98 233.907 174.045 234.023 174.077C236.025 174.739 237.966 175.564 239.824 176.543C240.079 176.94 239.188 180.077 239.032 180.886L237.617 181.16C237.476 181.195 237.355 181.282 237.279 181.402C237.202 181.522 237.176 181.666 237.207 181.803C237.575 184.228 238.409 190.202 238.409 190.202C234.348 186.544 234.377 184.516 233.499 184.434C233.412 184.423 233.324 184.434 233.242 184.465C233.161 184.496 233.089 184.547 233.032 184.612C226.379 192.087 222.643 201.584 222.477 211.45C222.492 211.524 222.534 211.591 222.595 211.638C222.655 211.686 222.731 211.712 222.809 211.712C222.887 211.712 222.963 211.686 223.023 211.638C223.084 211.591 223.126 211.524 223.142 211.45C223.674 202.115 227.251 193.184 233.358 185.941C234.765 188.288 236.613 190.36 238.806 192.051C238.899 192.131 239.016 192.181 239.141 192.193C239.265 192.205 239.39 192.179 239.498 192.119C239.606 192.058 239.692 191.966 239.743 191.855C239.794 191.745 239.808 191.621 239.782 191.503C239.782 191.503 238.763 184.831 238.367 182.119C248.003 180.461 256.281 172.529 259.068 162.418C259.068 168.049 258.87 182.009 258.87 182.146C258.87 183.036 258.87 183.886 258.05 184.283C255.729 185.072 253.367 185.745 250.975 186.297C250.877 186.322 250.787 186.372 250.716 186.442C250.645 186.512 250.594 186.599 250.57 186.694C250.545 186.789 250.548 186.889 250.576 186.983C250.605 187.077 250.66 187.162 250.734 187.229C251.399 187.749 255.22 190.777 256.479 191.75C256.479 191.75 254.753 194.942 253.875 196.517C252.441 195.232 251.252 193.71 250.366 192.024C250.309 191.928 250.22 191.853 250.115 191.81C250.009 191.767 249.892 191.76 249.781 191.788C249.67 191.815 249.572 191.878 249.501 191.965C249.431 192.052 249.392 192.159 249.39 192.27C249.786 201.422 252.814 200.23 250.31 203.23C241.678 213.738 240.164 217.136 230.867 219.794C232.735 211.574 239.131 208.244 241.692 202.312C243.107 199.065 242.796 195.462 243.914 192.202C244.692 189.939 245.964 187.865 247.644 186.12C249.324 184.375 251.372 183.001 253.649 182.091C253.732 182.064 253.8 182.006 253.838 181.93C253.876 181.854 253.882 181.767 253.854 181.687C253.826 181.607 253.766 181.541 253.688 181.504C253.61 181.467 253.519 181.461 253.437 181.488C250.471 182.501 247.855 184.292 245.878 186.66C243.902 189.028 242.644 191.881 242.244 194.901C241.636 199.107 241.763 201.175 239.046 204.861C236.046 208.902 231.136 212.478 229.552 220.136C227.091 220.729 224.572 221.069 222.038 221.15C221.741 218.698 220.184 217.259 219.08 217.204C218.062 215.478 207.322 199.655 203.36 196.188C207.741 188.555 209.756 179.859 209.161 171.145C210.859 173.57 213.76 178.118 214.27 179.009C209.331 197.449 217.397 200.216 219.364 209.464ZM197.049 210.067C197.049 209.97 197.02 209.875 196.965 209.794C196.911 209.713 196.835 209.648 196.744 209.608C196.653 209.568 196.552 209.553 196.454 209.567C196.355 209.58 196.262 209.62 196.186 209.683C194.376 211.422 192.733 213.316 191.276 215.341C190.443 214.87 189.66 214.32 188.941 213.697C192.361 210.82 195.462 207.606 198.195 204.107C213.222 221.561 212.501 221.054 212.925 220.725C212.959 220.703 212.987 220.675 213.009 220.642C213.03 220.609 213.045 220.573 213.052 220.534C213.058 220.496 213.057 220.457 213.047 220.419C213.038 220.381 213.02 220.345 212.996 220.314C212.006 218.862 201.917 206.614 198.846 203.175C200.304 201.224 201.637 199.188 202.836 197.079C208.496 202.436 217.283 216.533 218.104 217.862C217.323 218.95 216.958 220.268 217.071 221.588C215.284 222.072 213.405 222.151 211.581 221.821C209.416 221.41 201.322 217.56 196.016 217.41C196.356 215.916 196.893 211.354 197.091 210.067H197.049ZM160.004 211.806H160.245C161.349 211.56 163.075 211.19 163.485 212.272C163.697 213.012 167.971 253.879 167.971 255.14C167.993 255.338 167.971 255.539 167.905 255.728C167.839 255.918 167.731 256.091 167.589 256.236C163.91 254.866 154.854 218.519 154.5 215.437C155.926 213.729 157.841 212.466 160.004 211.806ZM9.33506 147.115C9.33506 143.978 7.18426 81.7797 7.39651 79.5329C7.76441 75.2996 9.33506 73.3953 12.8018 72.9569C16.4667 72.2719 50.6814 71.3266 54.417 71.2307C54.5019 72.6007 54.5726 73.5597 54.6009 73.7378C54.7578 74.8157 55.2887 75.8098 56.1065 76.5567C56.9242 77.3036 57.9801 77.759 59.1006 77.8478C59.1006 77.7108 58.1667 77.8478 87.4006 77.9437C87.4006 82.2181 87.6695 102.302 87.6836 103.248C79.3634 103.549 70.7885 103.878 69.1471 104.029C68.9207 104.029 68.7226 104.426 68.8075 104.618C71.2696 110.509 82.2359 134.429 85.3064 140.566C85.5928 141.264 86.0849 141.864 86.7214 142.293C87.1176 142.868 87.5846 143.512 88.1364 144.156C83.6509 147.622 82.0378 151.458 79.4342 157.075C67.4491 157.322 18.8722 158.294 17.7826 158.253C14.7545 158.13 12.6179 157.28 11.2878 155.664C9.26431 153.335 9.34921 150.156 9.33506 147.115ZM173.036 92.3972C173.334 93.4384 174.451 94.0001 176.178 94.0412C179.149 93.9179 180.423 96.3976 180.96 99.2472C178.068 99.7946 175.134 100.111 172.187 100.193C172.102 100.193 172.018 100.213 171.942 100.251C171.866 100.289 171.8 100.343 171.75 100.409C171.699 100.475 171.665 100.552 171.65 100.634C171.635 100.715 171.64 100.798 171.664 100.878C172.116 102.441 172.12 104.095 171.676 105.661C171.233 107.227 170.358 108.647 169.145 109.769C165.339 113.317 159.24 111.358 158.349 119.537C157.075 118.468 152.363 114.591 151.401 113.454C149.745 111.605 149.08 108.536 150.778 106.604C154.414 106.029 158.089 105.713 161.773 105.659C161.856 105.659 161.935 105.627 161.993 105.571C162.052 105.514 162.084 105.437 162.084 105.357C162.084 105.278 162.052 105.201 161.993 105.144C161.935 105.088 161.856 105.056 161.773 105.056C157.535 104.765 153.275 105.06 149.123 105.933C147.538 106.358 146.76 106.659 146.052 105.22C145.699 104.494 143.59 98.2746 143.222 97.1237C142.571 95.6304 142.968 96.0826 144.156 95.3701C145.321 96.323 146.628 97.0991 148.033 97.6718C148.033 97.8362 148.769 100.014 148.882 100.412C148.93 100.741 149.1 101.042 149.361 101.259C149.621 101.476 149.954 101.593 150.297 101.59C153.597 101.883 156.922 101.416 159.999 100.225C163.076 99.0343 165.817 97.1546 167.999 94.7399C168.042 94.6825 168.062 94.6115 168.055 94.5408C168.047 94.47 168.013 94.4045 167.958 94.3568C167.904 94.3091 167.833 94.2827 167.759 94.2826C167.686 94.2825 167.615 94.3088 167.56 94.3563C165.369 96.501 162.736 98.1752 159.832 99.2704C156.929 100.366 153.82 100.857 150.708 100.713C149.717 100.645 149.845 100.85 149.01 97.9732C152.83 99.0144 153.792 97.6032 152.434 98.9047C152.39 98.956 152.365 99.0205 152.365 99.0873C152.364 99.1541 152.388 99.219 152.431 99.2708C152.475 99.3227 152.536 99.3582 152.603 99.3714C152.671 99.3846 152.741 99.3746 152.802 99.3432C157.949 95.6173 161.704 90.3709 163.499 84.3964C163.512 84.3578 163.517 84.317 163.513 84.2765C163.51 84.236 163.498 84.1966 163.478 84.1608C163.458 84.125 163.431 84.0934 163.398 84.068C163.365 84.0425 163.327 84.0238 163.287 84.0128C162.551 83.7662 163.047 85.1773 159.594 90.6436C158.179 85.1636 159.127 79.3685 157.599 73.8611C157.578 73.783 157.526 73.716 157.455 73.6749C157.383 73.6338 157.297 73.622 157.217 73.6419C157.136 73.6619 157.067 73.7121 157.024 73.7815C156.982 73.8509 156.97 73.9337 156.99 74.0118C157.238 75.1773 157.399 76.3586 157.471 77.5464C154.457 74.6557 148.09 70.0388 143.067 71.0937C141.985 71.126 140.959 71.5696 140.212 72.3286C139.465 73.0876 139.057 74.1008 139.076 75.1489C137.86 73.5597 138.708 71.1348 139.812 69.7922C142.727 66.1069 147.906 64.3122 153.071 62.9422C157.641 61.764 163.754 61.9284 167.221 65.9288C168.725 67.9253 169.811 70.1871 170.419 72.587C172.226 77.9953 173.487 83.5608 174.183 89.2051C174.236 89.4328 174.225 89.6703 174.151 89.8923C174.076 90.1143 173.94 90.3125 173.758 90.4655C173.476 90.6997 173.261 91.0007 173.134 91.3392C173.008 91.6778 172.974 92.0423 173.036 92.3972ZM86.3394 140.238C85.0093 137.498 71.8639 109.276 69.7697 104.618C74.4534 104.618 127.304 102.741 128.223 102.713C130.02 108.303 140.491 142.06 140.491 142.347C140.491 142.347 127.983 142.649 121.233 142.909C109.843 137.347 99.3008 137.95 91.6315 141.882C87.3016 141.704 87.1035 141.786 86.3394 140.238ZM140.109 83.41C139.911 79.3 140.109 76.4367 140.774 76.149C143.208 75.0804 147.75 74.779 152.802 76.3271C153.439 76.5326 155.476 77.5601 157.528 78.3958C157.754 82.7798 157.528 87.4241 158.943 91.6711C157.692 93.7947 156.086 95.7022 154.189 97.3156C145.628 98.4116 140.491 91.7807 140.081 83.41H140.109ZM153.099 165.336C152.759 165.966 158.519 170.158 159.141 170.611C161.179 172.474 158.688 173.488 156.622 171.693C145.302 161.843 135.652 150.554 123.073 143.813C130.402 143.58 139.473 143.32 141.029 143.306C142.6 144.772 160.839 161.308 165.551 165.226C152.392 165.322 153.226 165.117 153.071 165.336H153.099ZM166.994 165.144C166.853 165.021 142.939 144.101 142.02 143.06C141.482 142.183 131.563 109.591 129.285 103.028C130.682 103.951 131.719 105.302 132.228 106.864C133.077 109.207 142.713 140.443 142.755 140.594C142.871 141.352 143.221 142.059 143.76 142.621C147.482 146.088 163.273 159.952 168.409 164.062C168.112 164.418 167.815 164.774 167.532 165.144H166.994ZM165.961 151.979C163.499 151.787 162.721 151.513 162.113 152.239C161.915 152.54 161.349 153.212 160.627 153.061C160.502 153.033 160.384 152.98 160.281 152.905C160.178 152.831 160.092 152.737 160.028 152.629C159.964 152.521 159.924 152.401 159.91 152.278C159.897 152.154 159.909 152.029 159.948 151.91C160.641 151.28 161.363 150.732 162.014 150.061C162.048 150.013 162.066 149.956 162.063 149.898C162.06 149.84 162.038 149.784 161.999 149.74C161.96 149.696 161.906 149.666 161.848 149.654C161.789 149.643 161.728 149.651 161.674 149.677C160.952 150.129 160.259 150.855 159.438 151.335C159.37 151.336 159.304 151.351 159.243 151.379C159.182 151.408 159.128 151.448 159.085 151.499C158.915 151.566 158.732 151.593 158.549 151.58C158.367 151.567 158.19 151.513 158.033 151.423C157.875 151.333 157.741 151.209 157.642 151.061C157.542 150.912 157.479 150.743 157.457 150.567C157.457 149.471 158.674 148.745 159.382 147.937C159.665 147.663 159.24 147.252 158.943 147.512C158.185 148.132 157.48 148.81 156.835 149.54C156.019 149.791 155.187 149.988 154.344 150.129C153.962 150.129 154.344 150.362 152.675 148.978C154.415 147.397 156.311 145.984 158.335 144.759C161.773 142.567 162.41 146.362 165.509 146.8C165.506 148.536 165.657 150.268 165.961 151.979ZM169.145 163.267L154.896 150.937C155.413 150.839 155.923 150.711 156.424 150.554C156.413 150.851 156.473 151.147 156.6 151.418C156.727 151.689 156.918 151.928 157.157 152.115C157.396 152.303 157.676 152.434 157.976 152.498C158.277 152.562 158.588 152.558 158.886 152.485C158.943 152.776 159.07 153.05 159.256 153.284C159.443 153.518 159.684 153.706 159.96 153.833C160.235 153.96 160.538 154.022 160.844 154.014C161.149 154.006 161.448 153.928 161.716 153.787C163.669 152.924 161.716 152.595 164.872 152.869C165.282 152.869 165.721 152.951 166.145 152.965C166.273 153.609 166.4 154.198 166.542 154.76C166.576 154.872 166.647 154.97 166.744 155.039C166.841 155.108 166.959 155.145 167.079 155.143C192.379 154.623 179.956 151.239 169.117 163.267H169.145ZM135.185 112.249C133.586 107.056 132.751 102.864 129.525 101.795C129.525 101.96 130.728 101.617 88.8439 103.165C88.8439 96.4935 88.5468 80.3549 88.5043 77.9026H139.232C138.836 83.8347 139.232 90.2327 143.477 94.6441C142.968 94.8358 142.062 95.2468 141.85 95.5893C142.372 97.8036 143.072 99.9748 143.944 102.083C140.148 104.677 137.11 108.179 135.129 112.249H135.185ZM129.37 69.9018C129.37 67.9838 128.917 57.6677 128.818 55.7771H132.426C132.426 57.7225 132.695 67.9975 132.78 69.8881C131.648 69.8607 130.502 69.8744 129.37 69.9018ZM108.64 70.3128C108.654 66.5864 108.159 35.0764 108.088 30.9664H111.696C111.696 41.3784 112.007 67.4221 112.064 70.258L108.64 70.3128ZM86.3111 36.2546H89.9335C89.9335 45.2555 90.2306 67.9838 90.3014 70.6827H86.8771C86.8912 67.3125 86.396 40.0084 86.3111 36.2546ZM55.5914 73.135C55.3933 71.9705 53.7519 35.4874 53.0869 21.5134C52.9312 17.2116 54.1057 11.9234 57.0913 9.47114C57.0913 19.0611 58.3648 71.9842 58.6478 76.7792C57.815 76.5466 57.0758 76.0727 56.5294 75.4212C55.983 74.7697 55.6557 73.9719 55.5914 73.135ZM185.418 61.7503C185.301 60.8561 185.522 59.9512 186.04 59.2021C187.148 58.3578 188.337 57.6191 189.592 56.9964C188.177 59.4624 188.545 58.7775 189.295 102.069C188.128 101.208 186.914 100.408 185.658 99.672C185.517 92.7672 185.446 67.6687 185.46 61.7503H185.418ZM197.785 76.971C198.442 76.0674 199.316 75.3313 200.331 74.8256C201.346 74.3198 202.473 74.0594 203.615 74.0666C209.374 74.0666 211.468 80.6974 212.6 86.0952C213.59 90.3285 213.661 95.3153 216.845 98.7677C231.646 111.755 232.764 93.6302 241.763 94.3289C244.593 94.644 246.475 97.1511 248.498 98.9595C249.363 99.9002 250.577 100.472 251.875 100.552C253.173 100.631 254.451 100.212 255.432 99.3843V118.852C251.951 118.852 207.746 118.537 202.893 118.592C201.711 116.197 200.32 113.905 198.733 111.742C198.903 110.084 197.856 78.4506 197.827 76.971H197.785ZM203.445 119.523C209.954 119.619 251.258 119.729 255.545 119.729C255.551 120.251 255.584 120.772 255.644 121.291C255.654 121.401 255.706 121.504 255.79 121.579C255.873 121.655 255.983 121.699 256.097 121.702C256.932 121.702 256.55 122.948 256.408 85.7938C256.408 85.703 256.371 85.6159 256.305 85.5517C256.238 85.4874 256.148 85.4513 256.054 85.4513C255.961 85.4513 255.871 85.4874 255.804 85.5517C255.738 85.6159 255.701 85.703 255.701 85.7938C255.701 88.2324 255.545 96.288 255.531 97.8772C255.206 98.3725 254.765 98.7861 254.243 99.0844C253.721 99.3826 253.134 99.5569 252.53 99.593C251.925 99.6291 251.32 99.5259 250.764 99.292C250.209 99.058 249.718 98.7 249.333 98.2471C245.244 94.1371 241.197 90.7122 235.282 96.0004C230.443 100.836 227.783 104.919 221.132 100.741C218.44 99.3513 216.41 97.0031 215.472 94.1919C213.237 86.424 213.859 74.4365 204.407 72.8473C203.143 72.7223 201.867 72.8992 200.69 73.3625C199.514 73.8259 198.472 74.5616 197.657 75.5051C197.657 73.4227 197.502 71.3951 197.417 69.2853C197.417 69.1981 197.381 69.1145 197.317 69.0528C197.254 68.9912 197.167 68.9565 197.077 68.9565C196.987 68.9565 196.901 68.9912 196.837 69.0528C196.773 69.1145 196.738 69.1981 196.738 69.2853C196.738 71.5595 197.473 103.316 197.7 110.289C195.519 107.527 193.012 105.021 190.229 102.823C190.229 97.6032 189.748 63.7094 189.691 61.6133C189.606 57.8047 191.177 55.599 194.799 54.6811C197.771 53.8865 251.201 53.0919 256.281 53.7632C259.649 54.1742 261.573 57.3663 262.054 60.1337C262.648 63.5724 262.818 120.414 262.832 121.167C262.946 127.88 262.125 135.539 254.908 136.484C253.281 136.703 213.024 136.799 207.18 136.744C207.361 130.801 206.091 124.901 203.473 119.523H203.445ZM162.014 12.8824C163.712 15.7594 162.749 14.9648 163.952 62.2846C158.094 59.7227 149.802 62.0791 144.142 65.0246V24.4315C144.142 24.1164 144.878 24.2123 139.897 24.2123C139.586 24.2123 139.614 21.3901 140.661 67.2988C139.812 68.0409 139.074 68.894 138.468 69.8333H133.714C133.714 68.0523 133.176 55.4209 133.119 55.3113C133.103 55.2401 133.062 55.1766 133.002 55.1316C132.943 55.0866 132.869 55.063 132.794 55.0647C131.265 55.0151 129.734 55.0471 128.209 55.1606C128.164 55.1905 128.128 55.2319 128.106 55.2803C128.083 55.3286 128.075 55.382 128.082 55.4346C128.082 56.8046 128.337 67.929 128.436 69.9018L123.101 70.0114C123.37 46.6118 123.469 47.8448 123.101 47.8174C119.266 47.9681 119.182 47.8996 119.182 48.1736V70.0936L112.956 70.2169C112.956 67.1618 112.474 32.6378 112.375 30.6376C112.38 30.5476 112.348 30.4593 112.288 30.3906C112.227 30.322 112.142 30.2781 112.05 30.2677C112.05 30.2677 107.621 30.2677 107.479 30.4047C107.069 30.7198 107.706 68.7647 107.706 70.3265L100.985 70.4498V49.9957C100.935 49.9767 100.879 49.9767 100.829 49.9957C96.9236 49.9957 96.966 49.9957 96.966 50.2971V70.532L91.2211 70.6964C90.8249 35.323 90.4995 35.9669 90.641 35.9669C90.6416 35.8792 90.6087 35.7943 90.5486 35.7286C90.4886 35.6628 90.4055 35.6209 90.3155 35.6107C90.3155 35.6107 85.9149 35.6107 85.7734 35.7203C85.2923 36.008 85.9715 68.3674 85.9715 70.806L78.189 70.943C78.2314 17.5541 78.3871 20.0064 78.0192 20.0064L74.5524 20.1297C74.3119 20.1297 74.3968 16.8554 74.3968 70.9978C68.567 71.1074 68.7368 70.9978 68.6519 71.217C68.6247 71.2598 68.6095 71.3086 68.6078 71.3588C68.6062 71.4089 68.6181 71.4587 68.6424 71.503C68.6667 71.5473 68.7026 71.5847 68.7464 71.6114C68.7903 71.6382 68.8406 71.6533 68.8924 71.6554C77.4815 71.6554 129.497 71.1485 137.973 70.9019C137.124 72.998 137.279 75.3133 139.246 76.5326V76.834C131.068 77.0669 61.0816 76.834 59.8223 76.834C59.8223 75.0393 58.2375 12.3618 58.2233 8.85464C68.0293 8.85464 154.443 8.97794 156.693 9.33414C157.796 9.5071 158.846 9.91515 159.766 10.5288C160.686 11.1425 161.454 11.9464 162.014 12.8824ZM7.77856 74.3954C6.15131 76.6696 6.06641 79.6288 6.06641 82.4921C6.06641 83.1223 8.04741 150.554 8.34456 152.198C8.51379 153.391 8.94482 154.535 9.60867 155.554C10.2725 156.572 11.1538 157.441 12.1934 158.102C10.5301 158.021 8.90413 157.596 7.42481 156.856C4.28351 155.184 3.09491 151.746 2.67041 149.841C1.92046 146.416 0.929962 87.5885 1.09976 84.5471C1.00071 79.5055 2.76946 76.7792 7.75026 74.3954H7.77856ZM220.029 229.329C225.692 228.946 231.24 227.592 236.414 225.328C240.093 223.684 244.678 221.081 246.574 219.013C246.871 225.479 245.513 229.658 238.65 232.713C229.566 236.823 208.015 241.864 198.704 235.85C197.87 235.069 195.875 229.137 195.082 226.397C199.143 229.014 210.973 230.027 220 229.329H220.029ZM92.056 247.276C90.8674 247.18 90.3014 248.331 89.9052 249.166C86.5941 256.016 86.6365 256.455 83.2688 256.674C82.2076 256.742 72.2177 257.537 71.4819 257.537C68.9066 257.715 67.4774 256.003 69.3028 253.907C70.3433 253.147 71.4982 252.546 72.7271 252.126C76.6608 250.358 82.8868 245.687 84.2593 239.905C85.6796 241.521 87.6172 242.63 89.7637 243.056C92.4212 243.332 95.1015 242.801 97.433 241.535C96.8953 244.495 95.6501 253.715 95.4944 256.605C94.6672 256.521 93.8356 256.485 93.004 256.496C92.9899 255.715 92.721 247.331 92.0277 247.276H92.056ZM97.2632 240.22C95.4244 241.479 93.2183 242.137 90.9664 242.097C89.7752 242.01 88.6152 241.687 87.5587 241.147C86.5021 240.607 85.5717 239.863 84.8253 238.96C84.8253 238.535 84.6697 233.946 84.7121 231.48C89.2968 231.83 93.8989 231.917 98.4942 231.74C98.2678 232.946 97.5462 237.836 97.2349 240.22H97.2632Z" fill="#2E52E8"/>
<path d="M238.625 66.1443C238.705 66.1285 238.777 66.0865 238.829 66.0254C238.88 65.9642 238.909 65.8876 238.909 65.8086C238.909 65.7296 238.88 65.653 238.829 65.5919C238.777 65.5307 238.705 65.4887 238.625 65.473H236.248C218.461 66.0073 219.042 65.9936 219.056 66.4731C219.07 66.9526 218.518 67.0622 238.625 66.1443ZM239.219 69.3501C236.05 69.3501 223.654 69.5145 220.471 69.7611C220.359 69.7798 220.258 69.8361 220.185 69.9201C220.112 70.0041 220.072 70.1103 220.072 70.22C220.072 70.3297 220.112 70.436 220.185 70.5199C220.258 70.6039 220.359 70.6602 220.471 70.679C223.711 70.679 236.036 70.0625 239.234 69.9392C239.303 69.9231 239.364 69.8845 239.408 69.8299C239.451 69.7753 239.474 69.708 239.472 69.6391C239.47 69.5702 239.444 69.5039 239.399 69.4514C239.353 69.3988 239.289 69.363 239.219 69.3501ZM236.106 74.3917C233.899 74.4739 226.81 74.3917 220.046 74.3917C219.896 74.3917 219.752 74.4494 219.646 74.5522C219.54 74.6549 219.48 74.7943 219.48 74.9397C219.48 75.085 219.54 75.2244 219.646 75.3271C219.752 75.4299 219.896 75.4877 220.046 75.4877C221.461 75.5836 234.734 75.0493 236.121 74.9945C236.203 74.9926 236.282 74.9591 236.339 74.9013C236.396 74.8435 236.427 74.7661 236.425 74.6862C236.423 74.6063 236.388 74.5303 236.329 74.4751C236.269 74.4199 236.189 74.3898 236.106 74.3917ZM190.515 5.93276C188.857 6.32701 187.34 7.14938 186.127 8.31224C184.913 9.47511 184.048 10.9349 183.624 12.5362C182.053 18.3587 187.501 24.7018 193.77 23.688C195.14 23.4079 196.436 22.86 197.579 22.0779C198.723 21.2958 199.69 20.296 200.42 19.1396C201.134 17.8632 201.539 16.4467 201.605 14.9967C201.671 13.5468 201.397 12.1011 200.802 10.7689C199.953 8.41245 197.434 4.64496 190.515 5.93276ZM193.939 17.4819C191.208 19.304 188.011 15.9886 189.27 13.9473C191.534 10.3031 195.553 13.0568 195.652 14.4268C195.65 15.035 195.491 15.6332 195.19 16.1669C194.888 16.7005 194.454 17.1526 193.925 17.4819H193.939ZM193.77 11.2484C192.815 10.9574 191.787 10.9811 190.847 11.3158C189.908 11.6504 189.109 12.2771 188.577 13.0979C188.141 13.8368 187.977 14.6966 188.111 15.5374C188.244 16.3781 188.668 17.1504 189.312 17.7285C189.826 18.2057 190.457 18.5473 191.146 18.7208C191.835 18.8942 192.558 18.8936 193.247 18.7191C193.936 18.5445 194.566 18.2018 195.079 17.7237C195.592 17.2456 195.969 16.6482 196.175 15.9886C197.383 16.7554 198.733 17.2859 200.151 17.5504C199.65 18.7338 198.882 19.7936 197.902 20.6518C196.923 21.51 195.757 22.1449 194.491 22.5098C188.831 24.099 183.794 19.1259 184.431 13.7555C184.617 12.5047 185.095 11.3113 185.827 10.2653C186.56 9.21937 187.528 8.34817 188.659 7.71749C189.79 7.08682 191.054 6.71315 192.356 6.62469C193.658 6.53624 194.964 6.7353 196.175 7.20686C195.055 8.35329 194.226 9.73719 193.755 11.2484H193.77Z" fill="#2E52E8"/>
<path d="M177.78 29.4557C181.232 29.2776 244.455 28.8118 249.067 27.4829C252.619 26.8527 253.836 25.2635 253.652 21.7974C253.652 20.6466 253.85 7.45349 253.482 5.11079C253.157 2.22009 251.558 0.85009 248.19 0.67199C245.36 0.41169 179.775 1.39809 176.676 2.04199C174.157 2.52149 172.431 3.41199 172.091 6.15199C171.936 6.98769 172.615 22.455 172.7 23.962C172.898 27.2226 174.582 29.1543 177.78 29.4557ZM183.298 28.5241C182.465 28.4269 181.665 28.1515 180.955 27.7179C180.245 27.2843 179.644 26.7033 179.195 26.017C178.197 24.3538 177.684 22.4601 177.709 20.537C177.553 18.208 177.101 9.57699 177.044 7.49459C177.044 6.64519 177.044 3.82299 179.195 2.80919C182.52 2.48039 244.469 1.58989 247.115 1.67209C248.53 1.67209 250.44 1.78169 251.515 2.83659C253.1 4.38469 252.591 6.94659 252.69 21.6741C253.001 25.4279 251.53 26.2499 247.907 26.7568C244.653 27.2363 183.864 28.5241 183.327 28.5241H183.298ZM176.082 5.75469C175.898 6.98769 176.648 18.7697 176.718 20.3315C176.888 24.2086 178.034 26.9623 180.298 28.5515H178.883C175.431 28.5515 173.86 26.9486 173.705 23.5373C173.62 21.5919 172.969 7.09729 173.11 6.27529C173.407 3.78189 175.148 3.23389 177.454 2.95989C176.739 3.74774 176.273 4.71774 176.11 5.75469H176.082Z" fill="#2E52E8"/>
<path d="M209.476 9.30292C209.999 9.30292 226.243 8.90562 226.102 8.90562C226.175 8.89064 226.24 8.85185 226.287 8.79573C226.334 8.73962 226.36 8.66959 226.36 8.59737C226.36 8.52515 226.334 8.45512 226.287 8.399C226.24 8.34289 226.175 8.3041 226.102 8.28912C224.899 8.28912 210.877 8.05622 209.447 8.28912C209.338 8.32735 209.245 8.39785 209.179 8.49062C209.114 8.58338 209.081 8.6937 209.084 8.80591C209.087 8.91811 209.126 9.02652 209.197 9.11573C209.267 9.20495 209.365 9.27044 209.476 9.30292ZM231.083 13.6047C229.045 13.7965 208.584 13.1252 208.443 14.1253C208.443 14.3171 208.627 14.4678 208.768 14.4952C210.551 14.7007 231.012 14.276 231.153 14.2623C231.198 14.2578 231.241 14.2449 231.281 14.2242C231.32 14.2035 231.355 14.1755 231.383 14.1418C231.412 14.1081 231.433 14.0693 231.445 14.0277C231.458 13.9861 231.462 13.9424 231.458 13.8993C231.453 13.8561 231.44 13.8142 231.418 13.776C231.397 13.7379 231.368 13.7042 231.333 13.6768C231.298 13.6495 231.258 13.629 231.215 13.6166C231.172 13.6043 231.127 13.6002 231.083 13.6047ZM230.672 18.8655C227.177 18.8655 209.561 18.7833 208.641 18.934C208.55 18.9572 208.47 19.0088 208.413 19.0806C208.356 19.1525 208.325 19.2406 208.325 19.3313C208.325 19.422 208.356 19.5101 208.413 19.582C208.47 19.6538 208.55 19.7054 208.641 19.7286C209.617 19.8793 229.243 19.4409 230.687 19.3998C230.749 19.3845 230.804 19.3492 230.843 19.2997C230.881 19.2502 230.902 19.1893 230.9 19.1272C230.898 19.0651 230.875 19.0053 230.834 18.9578C230.792 18.9102 230.735 18.8777 230.672 18.8655ZM30.6197 106.628C40.1992 105.874 45.2791 93.9278 37.8362 87.297C37.5673 87.0641 38.0767 86.5435 30.2376 97.5172C20.7571 88.8177 21.2665 89.1465 21.0543 89.2972C13.5548 96.4623 20.9835 107.395 30.6197 106.628Z" fill="#2E52E8"/>
<path d="M29.5728 93.0237C29.8416 93.3114 29.7143 93.3525 36.1242 82.8857C36.1396 82.8625 36.15 82.8365 36.1548 82.8092C36.1595 82.782 36.1586 82.7542 36.152 82.7273C36.1454 82.7005 36.1332 82.6752 36.1163 82.6529C36.0994 82.6307 36.078 82.612 36.0535 82.598C33.7931 81.4462 31.2033 81.0489 28.6858 81.4675C26.1683 81.8861 23.8639 83.0973 22.1299 84.9133C21.9601 85.1188 21.7054 84.7215 29.5728 93.0237ZM14.786 143.782C15.149 143.78 15.5031 143.674 15.8038 143.477C16.1046 143.28 16.3385 143.002 16.4761 142.677C16.6138 142.352 16.649 141.994 16.5774 141.65C16.5058 141.305 16.3305 140.989 16.0737 140.741C16.7812 139.631 21.3658 132.329 22.71 130.356C23.0584 130.512 23.4472 130.563 23.8258 130.502C24.2044 130.441 24.5552 130.271 24.8325 130.014L31.3698 134.891C31.2633 135.196 31.2442 135.524 31.3148 135.839C31.3854 136.154 31.543 136.444 31.7707 136.679C31.9985 136.915 32.2878 137.085 32.608 137.174C32.9281 137.262 33.267 137.265 33.5886 137.181C33.9101 137.098 34.2023 136.932 34.4339 136.7C34.6655 136.469 34.8279 136.181 34.9037 135.867C34.9795 135.553 34.9659 135.225 34.8644 134.918C34.7629 134.611 34.5772 134.337 34.3272 134.124L36.6478 131.165C37.0631 131.348 37.534 131.378 37.9701 131.246C38.4062 131.115 38.7768 130.832 39.0108 130.452L45.7745 132.672C45.738 132.966 45.7781 133.265 45.8912 133.541C46.0043 133.817 46.1868 134.061 46.4221 134.251C46.6574 134.441 46.9381 134.572 47.2386 134.63C47.5392 134.688 47.8501 134.673 48.143 134.586C48.4359 134.498 48.7016 134.341 48.916 134.129C49.1303 133.917 49.2865 133.656 49.3703 133.371C49.4541 133.085 49.4629 132.784 49.3959 132.495C49.3289 132.205 49.1882 131.936 48.9866 131.712C49.5526 129.753 54.4485 115.272 54.9437 113.902C55.4189 113.862 55.8598 113.646 56.1748 113.3C57.5191 114.327 61.5518 117.245 62.8536 118.095C62.7792 118.378 62.7781 118.675 62.8504 118.959C62.9228 119.243 63.0662 119.506 63.2682 119.723C63.4702 119.941 63.7244 120.107 64.0084 120.207C64.2924 120.307 64.5975 120.338 64.8966 120.296C65.1958 120.255 65.4798 120.143 65.7236 119.97C65.9673 119.797 66.1634 119.569 66.2943 119.305C66.4253 119.041 66.4871 118.75 66.4744 118.458C66.4616 118.166 66.3747 117.881 66.2213 117.629C69.9852 111.82 70.155 111.916 69.7588 111.656C69.6843 111.611 69.5953 111.595 69.509 111.61C69.4227 111.625 69.3453 111.671 69.2919 111.738C68.6268 112.67 65.4855 116.944 65.4855 116.944C65.1508 116.784 64.7749 116.724 64.4049 116.77C64.0349 116.817 63.6873 116.967 63.4054 117.204C62.0895 116.314 57.9152 113.423 56.5851 112.423C56.642 112.107 56.6095 111.782 56.4912 111.482C56.3729 111.182 56.1731 110.919 55.913 110.72C55.6529 110.521 55.3422 110.394 55.0135 110.352C54.6849 110.31 54.3507 110.355 54.0462 110.481C53.7417 110.608 53.4783 110.812 53.2837 111.072C53.0891 111.332 52.9707 111.638 52.9408 111.957C52.911 112.277 52.971 112.598 53.1143 112.888C53.2576 113.177 53.479 113.424 53.7551 113.601C52.5382 116.807 49.0007 127.904 48.0951 131.137C47.7551 131.052 47.3973 131.061 47.0623 131.163C46.7272 131.264 46.4282 131.455 46.199 131.712C44.784 131.247 40.539 130 39.2514 129.603C39.2514 129.134 39.0591 128.684 38.7168 128.353C38.3744 128.022 37.9102 127.835 37.426 127.835C36.9419 127.835 36.4776 128.022 36.1353 128.353C35.793 128.684 35.6007 129.134 35.6007 129.603C35.6038 129.994 35.7378 130.374 35.9827 130.685L33.4499 133.74C33.2073 133.689 32.9563 133.686 32.7127 133.734C32.4692 133.781 32.2384 133.876 32.0349 134.014L25.2853 129.068C25.359 128.644 25.2704 128.209 25.0362 127.843C24.802 127.478 24.4382 127.208 24.0131 127.083C23.5879 126.959 23.1304 126.989 22.7265 127.168C22.3225 127.347 21.9997 127.662 21.8186 128.055C21.6778 128.337 21.6205 128.651 21.653 128.963C21.6855 129.275 21.8064 129.572 22.0025 129.822C20.6724 131.754 15.8473 139.22 15.1539 140.302C14.9 140.241 14.6353 140.233 14.3778 140.279C14.1203 140.325 13.876 140.424 13.6616 140.569C13.4472 140.715 13.2676 140.903 13.135 141.122C13.0025 141.341 12.9201 141.584 12.8934 141.837C12.8668 142.089 12.8965 142.344 12.9805 142.584C13.0645 142.824 13.2009 143.044 13.3805 143.228C13.56 143.413 13.7784 143.558 14.021 143.653C14.2635 143.749 14.5244 143.793 14.786 143.782ZM39.407 148.632C39.302 148.632 39.2012 148.672 39.1269 148.744C39.0526 148.816 39.0108 148.914 39.0108 149.016C39.0108 149.117 39.0526 149.215 39.1269 149.287C39.2012 149.359 39.302 149.399 39.407 149.399C41.8833 149.399 70.9474 148.303 71.952 148.29C72.0181 148.275 72.0771 148.24 72.1194 148.189C72.1617 148.138 72.1847 148.074 72.1847 148.009C72.1847 147.943 72.1617 147.88 72.1194 147.829C72.0771 147.778 72.0181 147.742 71.952 147.728C68.0042 147.742 41.9399 148.358 39.407 148.632ZM51.8449 138.837C51.935 138.837 52.0213 138.802 52.085 138.74C52.1487 138.679 52.1845 138.595 52.1845 138.508C52.1845 138.421 52.1487 138.337 52.085 138.275C52.0213 138.214 51.935 138.179 51.8449 138.179C50.727 138.179 46.6801 137.946 45.7321 137.987C45.567 137.987 45.4086 138.051 45.2919 138.164C45.1751 138.277 45.1095 138.43 45.1095 138.59C45.1095 138.75 45.1751 138.903 45.2919 139.016C45.4086 139.129 45.567 139.193 45.7321 139.193C46.666 139.302 50.6704 138.932 51.8449 138.837ZM36.7185 140.59H30.6199C30.488 140.596 30.3602 140.636 30.2499 140.707C30.1396 140.777 30.0509 140.875 29.993 140.989C29.9351 141.104 29.9102 141.232 29.921 141.36C29.9317 141.487 29.9776 141.609 30.0539 141.713C30.4359 142.261 30.7331 141.837 36.7468 141.344C36.8215 141.309 36.8841 141.254 36.9269 141.186C36.9698 141.117 36.991 141.038 36.988 140.958C36.985 140.878 36.9579 140.8 36.91 140.735C36.8621 140.67 36.7956 140.619 36.7185 140.59ZM12.5928 147.906C12.8899 147.906 17.1915 147.454 18.1396 147.413C18.2447 147.413 18.3455 147.372 18.4198 147.3C18.4941 147.228 18.5358 147.131 18.5358 147.029C18.5358 146.927 18.4941 146.83 18.4198 146.758C18.3455 146.686 18.2447 146.645 18.1396 146.645C17.5877 146.645 12.805 146.837 12.4796 146.988C12.3932 147.038 12.3237 147.112 12.2793 147.2C12.235 147.287 12.2178 147.385 12.2298 147.482C12.2417 147.579 12.2823 147.671 12.3467 147.746C12.4111 147.821 12.4966 147.877 12.5928 147.906Z" fill="#2E52E8"/>
<path d="M62.5284 124.15H62.7548C68.7686 123.629 68.5563 124.027 68.811 123.753C68.858 123.699 68.8889 123.634 68.9002 123.564C68.9114 123.495 68.9027 123.423 68.8749 123.358C68.8472 123.293 68.8014 123.237 68.7427 123.195C68.684 123.154 68.6147 123.128 68.5422 123.123C66.4338 123.123 64.4528 122.944 62.5567 123.027C61.7502 123.04 61.8209 124.15 62.5284 124.15ZM30.889 112.19C30.7352 112.19 30.5876 112.249 30.4788 112.354C30.37 112.46 30.3089 112.603 30.3089 112.752C30.3089 112.901 30.37 113.044 30.4788 113.149C30.5876 113.254 30.7352 113.313 30.889 113.313C32.9125 113.313 40.794 112.615 42.7043 112.423C42.7948 112.406 42.8764 112.359 42.9351 112.291C42.9938 112.222 43.0259 112.135 43.0259 112.046C43.0259 111.957 42.9938 111.87 42.9351 111.802C42.8764 111.733 42.7948 111.686 42.7043 111.669C40.7374 111.82 32.8417 112.026 30.889 112.19ZM29.9268 115.396C29.813 115.423 29.7134 115.49 29.6468 115.583C29.5801 115.677 29.551 115.79 29.5649 115.903C29.5788 116.016 29.6348 116.12 29.7223 116.195C29.8098 116.271 29.9228 116.313 30.04 116.314C32.2757 116.314 41.0487 115.546 43.2561 115.533C43.3537 115.533 43.4473 115.495 43.5163 115.428C43.5853 115.362 43.624 115.271 43.624 115.177C43.624 115.082 43.5853 114.991 43.5163 114.925C43.4473 114.858 43.3537 114.82 43.2561 114.82C38.8048 114.725 34.3518 114.918 29.9268 115.396ZM42.1241 117.588C38.4211 117.536 34.7178 117.678 31.0305 118.012C30.3513 118.095 30.323 119.095 31.0305 119.095C32.2899 119.095 39.1668 118.41 42.1383 118.3C42.1866 118.299 42.2342 118.289 42.2785 118.27C42.3228 118.252 42.3628 118.225 42.3964 118.191C42.4299 118.157 42.4562 118.118 42.4738 118.074C42.4914 118.03 42.5 117.984 42.4991 117.937C42.4982 117.89 42.4877 117.844 42.4684 117.801C42.449 117.758 42.4212 117.72 42.3863 117.687C42.3515 117.655 42.3104 117.629 42.2655 117.612C42.2205 117.595 42.1724 117.587 42.1241 117.588ZM46.7795 88.078C47.4728 88.078 54.5337 87.3656 55.9204 87.2697C56.018 87.2697 56.1115 87.2321 56.1805 87.1653C56.2495 87.0985 56.2883 87.0079 56.2883 86.9135C56.2883 86.819 56.2495 86.7284 56.1805 86.6616C56.1115 86.5948 56.018 86.5573 55.9204 86.5573C55.227 86.5573 47.6568 86.7765 46.8219 86.8313C45.9871 86.8861 45.9871 88.078 46.7795 88.078ZM48.2369 90.8454C50.4585 90.8454 59.1183 90.0508 61.3115 89.9138C61.3915 89.898 61.4634 89.856 61.515 89.7949C61.5667 89.7337 61.5949 89.6571 61.5949 89.5781C61.5949 89.4991 61.5667 89.4225 61.515 89.3614C61.4634 89.3002 61.3915 89.2582 61.3115 89.2424C59.1041 89.3383 50.3877 89.3795 48.2228 89.5987C48.0686 89.6225 47.9285 89.6991 47.8278 89.8146C47.7271 89.9301 47.6727 90.0768 47.6744 90.2279C47.6762 90.379 47.7339 90.5245 47.8371 90.6379C47.9404 90.7512 48.0823 90.8248 48.2369 90.8454Z" fill="#2E52E8"/>
</svg>
