<svg width="26" height="27" viewBox="0 0 26 27" fill="none" xmlns="http://www.w3.org/2000/svg">
<g clip-path="url(#clip0_119_493)">
<path d="M7.79375 4.5C8.94271 4.5 9.87708 3.49088 9.87708 2.25C9.87708 1.00912 8.94271 0 7.79375 0C6.64479 0 5.71042 1.00912 5.71042 2.25C5.71042 3.49088 6.64479 4.5 7.79375 4.5ZM7.79375 1.125C8.36771 1.125 8.83542 1.63013 8.83542 2.25C8.83542 2.86987 8.36771 3.375 7.79375 3.375C7.21979 3.375 6.75208 2.86987 6.75208 2.25C6.75208 1.63013 7.21979 1.125 7.79375 1.125ZM13.0021 7.875C14.151 7.875 15.0854 6.86588 15.0854 5.625C15.0854 4.38412 14.151 3.375 13.0021 3.375C11.8531 3.375 10.9188 4.38412 10.9188 5.625C10.9188 6.86588 11.8531 7.875 13.0021 7.875ZM13.0021 4.5C13.576 4.5 14.0438 5.00513 14.0438 5.625C14.0438 6.24487 13.576 6.75 13.0021 6.75C12.4281 6.75 11.9604 6.24487 11.9604 5.625C11.9604 5.00513 12.4281 4.5 13.0021 4.5ZM18.2104 4.5C19.3594 4.5 20.2938 3.49088 20.2938 2.25C20.2938 1.00912 19.3594 0 18.2104 0C17.0615 0 16.1271 1.00912 16.1271 2.25C16.1271 3.49088 17.0615 4.5 18.2104 4.5ZM18.2104 1.125C18.7844 1.125 19.2521 1.63013 19.2521 2.25C19.2521 2.86987 18.7844 3.375 18.2104 3.375C17.6365 3.375 17.1688 2.86987 17.1688 2.25C17.1688 1.63013 17.6365 1.125 18.2104 1.125ZM25.5021 7.3125V18.6761C25.5021 20.9295 24.6896 23.049 23.2135 24.642L21.1823 26.8358C21.0802 26.946 20.9469 27 20.8135 27C20.6802 27 20.5469 26.9449 20.4448 26.8358C20.2417 26.6164 20.2417 26.2597 20.4448 26.0404L22.476 23.8466C23.7552 22.4651 24.4594 20.6291 24.4594 18.6761V7.3125C24.4594 6.38212 23.7583 5.625 22.8969 5.625C22.0354 5.625 21.3344 6.38212 21.3344 7.3125C21.3344 7.3125 21.325 16.3541 21.3229 16.3766C21.3094 16.9965 21.1156 17.613 20.726 18.1136L17.9781 21.2029C17.876 21.3176 17.7396 21.375 17.6031 21.375C17.4729 21.375 17.3427 21.3232 17.2417 21.2175C17.0344 21.0026 17.0281 20.646 17.2271 20.4221L19.9521 17.361C20.1875 17.0573 20.3021 16.6691 20.2938 16.2787V16.2743C20.2844 15.8839 20.1531 15.4935 19.8958 15.183C19.3229 14.4934 18.3365 14.4338 17.6948 15.0525L14.8521 17.8785C14.3094 18.4185 13.8885 19.0642 13.5729 19.782C13.876 20.6201 14.0438 21.5168 14.0438 22.4325V26.4364C14.0438 26.7469 13.8104 26.9989 13.5229 26.9989C13.2354 26.9989 13.0021 26.7469 13.0021 26.4364V22.4325C13.0021 20.7068 12.3281 19.0474 11.1521 17.8796L8.30417 15.0491C7.66979 14.4349 6.68125 14.4934 6.10833 15.1841C5.59375 15.804 5.58021 16.7524 6.075 17.3891L8.77604 20.421C8.975 20.6449 8.96875 21.0015 8.76146 21.2164C8.55313 21.4324 8.22396 21.4245 8.025 21.2006L5.3 18.1395C4.90417 17.6321 4.68958 17.0179 4.66771 16.4025C4.6625 16.371 4.66771 7.31025 4.66771 7.31025C4.66771 6.37988 3.96667 5.62275 3.10521 5.62275C2.24375 5.62275 1.54271 6.37988 1.54271 7.31025V18.6739C1.54271 20.6269 2.24688 22.464 3.52604 23.8444L5.55729 26.0381C5.76042 26.2575 5.76042 26.6141 5.55729 26.8335C5.45521 26.9437 5.32188 26.9977 5.18854 26.9977C5.05521 26.9977 4.92188 26.9426 4.81979 26.8335L2.78854 24.6398C1.3125 23.0456 0.5 20.9273 0.5 18.6739V7.3125C0.5 5.76225 1.66875 4.5 3.10417 4.5C4.30104 4.5 5.30104 5.38088 5.60417 6.57113C6.18125 5.98725 6.95208 5.625 7.79167 5.625C8.22188 5.625 8.63854 5.715 9.03333 5.89275C9.29896 6.012 9.42396 6.34163 9.31354 6.6285C9.20312 6.91538 8.89896 7.05262 8.63229 6.93112C8.36563 6.81187 8.08229 6.75 7.79063 6.75C6.79063 6.75 5.92188 7.49025 5.70729 8.514V14.0625C6.67917 13.2761 8.0625 13.3099 9.00104 14.2166L11.8542 17.0527C12.3021 17.4971 12.6802 18.0079 12.9979 18.5557C13.3167 18.0045 13.6958 17.4982 14.1438 17.0527L16.9917 14.2222C17.9344 13.3099 19.3188 13.2761 20.2906 14.0625V8.514C20.076 7.49025 19.2073 6.75 18.2073 6.75C17.9156 6.75 17.6323 6.81075 17.3656 6.93112C17.1021 7.0515 16.7958 6.91538 16.6844 6.6285C16.574 6.34163 16.699 6.012 16.9646 5.89275C17.3594 5.715 17.7771 5.625 18.2063 5.625C19.0458 5.625 19.8167 5.98725 20.3938 6.57113C20.6979 5.382 21.6979 4.5 22.8938 4.5C24.3292 4.5 25.4979 5.76225 25.4979 7.3125H25.5021ZM9.23854 11.5661C9.95313 9.98325 11.4146 9 13.0542 9C14.6938 9 16.1563 9.98325 16.8698 11.5661C16.9958 11.8463 16.8479 12.4189 16.4021 12.375C16.2083 12.375 16.024 12.2591 15.9333 12.0589C15.3948 10.8652 14.2917 10.125 13.0531 10.125C11.8146 10.125 10.7115 10.8664 10.1729 12.0589C10.0469 12.3379 9.73646 12.456 9.47708 12.3176C9.21875 12.1815 9.11146 11.8451 9.2375 11.5661H9.23854Z" fill="#2E52E8"/>
</g>
<defs>
<clipPath id="clip0_119_493">
<rect width="25" height="27" fill="white" transform="translate(0.5)"/>
</clipPath>
</defs>
</svg>
