<svg width="39" height="38" viewBox="0 0 39 38" fill="none" xmlns="http://www.w3.org/2000/svg">
<path d="M38.5 8.73344C38.5032 7.43197 37.721 6.28566 36.5082 5.81225L23.5524 0.755194C20.9954 -0.242285 18.1756 -0.247035 15.6154 0.744111L2.50283 5.817C1.28688 6.28724 0.5 7.43355 0.501583 8.73819C0.503167 10.0428 1.28847 11.1876 2.50442 11.6562L8.41475 13.9362V22.9626C8.41475 23.3995 8.7694 23.7542 9.20638 23.7542C9.64337 23.7542 9.99802 23.3995 9.99802 22.9626V14.5473L15.5426 16.6864C16.814 17.1772 18.1503 17.4226 19.4865 17.4226C20.8228 17.4226 22.1591 17.1772 23.4305 16.6864L28.9972 14.5394V22.9626C28.9972 23.3995 29.3519 23.7542 29.7889 23.7542C30.2258 23.7542 30.5805 23.3995 30.5805 22.9626V13.9282L36.4972 11.6467C36.6507 11.5881 36.7742 11.4884 36.9136 11.4092V21.3793C36.9136 21.8162 37.2682 22.1709 37.7052 22.1709C38.1422 22.1709 38.4968 21.8162 38.4968 21.3793V8.75402C38.4968 8.75402 38.5 8.74136 38.5 8.73344ZM35.9272 10.1695L22.8605 15.2107C20.6851 16.0499 18.2896 16.0499 16.1142 15.2107L3.07439 10.179C2.34609 9.89717 2.08485 9.2496 2.08485 8.73661C2.08485 8.22362 2.34451 7.57605 3.07439 7.29422L16.187 2.21975C18.3783 1.3711 20.7896 1.37585 22.9792 2.22925L35.9351 7.28631C36.6523 7.56655 36.9104 8.20145 36.9167 8.70969C36.9167 8.70969 36.9167 8.71128 36.9167 8.71286V8.75402C36.9088 9.26226 36.6476 9.89242 35.9303 10.1695H35.9272ZM37.1099 26.145C36.1948 25.4246 35.0168 25.1681 33.8737 25.4452C30.4269 26.2796 23.9767 27.6792 19.4992 27.6792C15.0217 27.6792 8.57149 26.2796 5.12314 25.4452C3.97844 25.1649 2.80049 25.4246 1.88694 26.145C1.00506 26.8385 0.5 27.8708 0.5 28.9775V34.3623C0.5 35.469 1.00506 36.5014 1.88694 37.1948C2.80207 37.9152 3.98002 38.1686 5.12314 37.8947C8.56991 37.0603 15.0201 35.6606 19.4976 35.6606C23.9751 35.6606 30.4253 37.0603 33.8737 37.8947C34.1745 37.9675 34.4785 38.0039 34.7793 38.0039C35.6184 38.0039 36.4354 37.7252 37.1099 37.1948C37.9918 36.5014 38.4968 35.469 38.4968 34.3623V28.9775C38.4968 27.8708 37.9918 26.8385 37.1099 26.145ZM4.75107 36.3573C4.08293 36.5188 3.39738 36.3699 2.8654 35.952C2.36825 35.5593 2.08168 34.9814 2.08168 34.3639V28.9791C2.08168 28.3616 2.36825 27.7821 2.8654 27.391C3.3958 26.9731 4.08293 26.8242 4.74949 26.9857C8.79632 27.9658 14.3821 29.1105 18.7044 29.2388V34.1042C14.3821 34.2341 8.79632 35.3772 4.74949 36.3573H4.75107ZM36.9136 34.3639C36.9136 34.9814 36.627 35.5609 36.1298 35.952C35.5994 36.3699 34.9123 36.5188 34.2458 36.3573C30.1989 35.3772 24.6132 34.2325 20.2908 34.1042V29.2388C24.6132 29.1089 30.1989 27.9658 34.2458 26.9857C34.9139 26.8242 35.5994 26.9731 36.1314 27.391C36.6286 27.7837 36.9151 28.3616 36.9151 28.9791L36.9136 34.3639Z" fill="#2E52E8"/>
</svg>
