<svg width="84" height="80" viewBox="0 0 84 80" fill="none" xmlns="http://www.w3.org/2000/svg">
<path d="M23.9999 7.7417L19.2008 10.0641L14.4016 12.3866L14.3999 26.3212L19.1985 28.6437L23.9999 30.9675V7.7417Z" fill="#00A9FF"/>
<path d="M38.3958 37.4194L38.4003 0L33.7305 2.33871L29.0606 4.67742L28.8003 32.6132L33.5981 35.0163L38.3958 37.4194Z" fill="#FF4C4C"/>
<path d="M9.59885 24.5161L9.6 15.4839L4.8 17.7419L0 20L4.79942 22.2581L9.59885 24.5161Z" fill="#7C00FE"/>
<path d="M84.0001 18.7097L45.6001 0V37.4194L50.4001 35.0806L55.2001 32.7419L60.0001 30.4032L64.8001 28.0645L69.6001 25.7258L74.4001 23.3871L79.2001 21.0484L84.0001 18.7097Z" fill="#F9E400"/>
<path d="M0 61.0753L38.4 80V42.1506L0 23.2258V61.0753Z" fill="#4A249D"/>
<path d="M50.4001 39.785L45.6001 42.1506V80.0001L50.4001 77.6345L55.2001 75.2689V37.4194L50.4001 39.785Z" fill="#00A9FF"/>
<path d="M64.8 33.3334L60 35.699V73.5484L64.8 71.1828L69.6 68.8173V30.9678L64.8 33.3334Z" fill="#7C00FE"/>
<path d="M79.1999 25.5914L74.3999 27.957V65.8065L79.1999 63.4409L83.9999 61.0753V23.2258L79.1999 25.5914Z" fill="#FF4C4C"/>
</svg>
