<svg width="431" height="447" viewBox="0 0 431 447" fill="none" xmlns="http://www.w3.org/2000/svg">
<g filter="url(#filter0_d_78_94)">
<path d="M205.363 10H22.8963C21.2967 10 20 11.5028 20 13.3567V203.849C20 205.703 21.2967 207.206 22.8963 207.206H205.363C206.963 207.206 208.259 205.703 208.259 203.849V13.3567C208.259 11.5028 206.963 10 205.363 10Z" fill="black"/>
</g>
<path d="M205.363 10H22.8963C21.2967 10 20 11.5028 20 13.3567V203.849C20 205.703 21.2967 207.206 22.8963 207.206H205.363C206.963 207.206 208.259 205.703 208.259 203.849V13.3567C208.259 11.5028 206.963 10 205.363 10Z" fill="white"/>
<path fill-rule="evenodd" clip-rule="evenodd" d="M32 24.002H198.744V194.007H32V24.002Z" fill="#FAFAFA" stroke="#E5E9EA"/>
<path fill-rule="evenodd" clip-rule="evenodd" d="M31.7358 108.605H198.48V109.444H31.7358V108.605ZM31.7358 124.543H198.48V125.383H31.7358V124.543ZM31.7358 140.481H198.48V141.32H31.7358V140.481ZM31.7358 156.419H198.48V157.258H31.7358V156.419ZM31.7358 44.8529H198.48V45.6921H31.7358V44.8529ZM31.7358 28.9153H198.48V29.7545H31.7358V28.9153ZM31.7358 60.7913H198.48V61.6305H31.7358V60.7913ZM31.7358 76.729H198.48V77.5681H31.7358V76.729ZM31.7358 92.6674H198.48V93.5066H31.7358V92.6674ZM31.7358 172.357H198.48V173.196H31.7358V172.357ZM31.7358 188.295H198.48V189.134H31.7358V188.295Z" fill="#E5E9EA"/>
<path fill-rule="evenodd" clip-rule="evenodd" d="M36.1357 108.596H58.6291V146.902C58.6291 148.015 58.2477 149.082 57.5687 149.869C56.8898 150.656 55.9689 151.098 55.0087 151.098H39.7561C38.7959 151.098 37.8751 150.656 37.1961 149.869C36.5172 149.082 36.1357 148.015 36.1357 146.902V108.596Z" fill="#021526"/>
<path fill-rule="evenodd" clip-rule="evenodd" d="M36.1357 108.605H58.6291V136.285C58.6291 137.398 58.2477 138.465 57.5687 139.252C56.8898 140.039 55.9689 140.481 55.0087 140.481H39.7561C38.7959 140.481 37.8751 140.039 37.1961 139.252C36.5172 138.465 36.1357 137.398 36.1357 136.285V108.605ZM70.3642 108.382H92.8576V79.3665C92.8576 78.2537 92.4761 77.1865 91.7972 76.3996C91.1182 75.6127 90.1974 75.1707 89.2372 75.1707H73.9846C73.0244 75.1707 72.1035 75.6127 71.4246 76.3996C70.7456 77.1865 70.3642 78.2537 70.3642 79.3665V108.382Z" fill="#2E52E8"/>
<path fill-rule="evenodd" clip-rule="evenodd" d="M70.3657 108.385H92.8591V152.014C92.8591 153.127 92.4777 154.194 91.7987 154.981C91.1198 155.768 90.1989 156.21 89.2387 156.21H73.9861C73.0259 156.21 72.1051 155.768 71.4261 154.981C70.7472 154.194 70.3657 153.127 70.3657 152.014V108.385ZM137.357 108.609H159.85V48.7696C159.85 48.2186 159.757 47.673 159.575 47.1639C159.393 46.6548 159.126 46.1923 158.79 45.8027C158.454 45.4131 158.055 45.104 157.616 44.8931C157.176 44.6823 156.706 44.5737 156.23 44.5737H140.977C140.017 44.5737 139.096 45.0158 138.417 45.8027C137.739 46.5896 137.357 47.6568 137.357 48.7696V108.609Z" fill="#021526"/>
<path fill-rule="evenodd" clip-rule="evenodd" d="M137.356 108.609H159.849V64.7794C159.849 64.2284 159.756 63.6827 159.574 63.1737C159.392 62.6646 159.125 62.2021 158.789 61.8124C158.453 61.4228 158.054 61.1137 157.614 60.9029C157.175 60.692 156.704 60.5835 156.229 60.5835H140.976C140.016 60.5835 139.095 61.0256 138.416 61.8124C137.737 62.5993 137.356 63.6666 137.356 64.7794V108.609Z" fill="#2E52E8"/>
<path fill-rule="evenodd" clip-rule="evenodd" d="M171.587 108.617H194.081V157.689C194.081 158.802 193.699 159.869 193.02 160.656C192.341 161.443 191.42 161.885 190.46 161.885H175.207C174.247 161.885 173.326 161.443 172.647 160.656C171.968 159.869 171.586 158.802 171.586 157.689L171.587 108.617Z" fill="#021526"/>
<path fill-rule="evenodd" clip-rule="evenodd" d="M171.587 108.617H194.081V147.036C194.081 148.149 193.699 149.216 193.02 150.003C192.341 150.79 191.42 151.232 190.46 151.232H175.207C174.247 151.232 173.326 150.79 172.647 150.003C171.968 149.216 171.586 148.149 171.586 147.036L171.587 108.617Z" fill="#2E52E8"/>
<path fill-rule="evenodd" clip-rule="evenodd" d="M103.617 108.617H126.11V184.324C126.11 185.437 125.729 186.504 125.05 187.291C124.371 188.078 123.45 188.52 122.49 188.52H107.237C106.276 188.52 105.356 188.078 104.677 187.291C103.998 186.504 103.616 185.437 103.616 184.324L103.617 108.617Z" fill="#2E52E8"/>
<path fill-rule="evenodd" clip-rule="evenodd" d="M103.617 108.617H126.11V136.382C126.11 137.495 125.729 138.562 125.05 139.349C124.371 140.136 123.45 140.578 122.49 140.578H107.237C106.276 140.578 105.356 140.136 104.677 139.349C103.998 138.562 103.616 137.495 103.616 136.382L103.617 108.617Z" fill="#021526"/>
<g filter="url(#filter1_d_78_94)">
<path d="M408.107 10H225.64C224.041 10 222.744 11.5028 222.744 13.3567V203.849C222.744 205.703 224.041 207.206 225.64 207.206H408.107C409.707 207.206 411.004 205.703 411.004 203.849V13.3567C411.004 11.5028 409.707 10 408.107 10Z" fill="black"/>
</g>
<path d="M408.107 10H225.64C224.041 10 222.744 11.5028 222.744 13.3567V203.849C222.744 205.703 224.041 207.206 225.64 207.206H408.107C409.707 207.206 411.004 205.703 411.004 203.849V13.3567C411.004 11.5028 409.707 10 408.107 10Z" fill="white"/>
<path d="M317.12 159.826C341.529 159.826 361.317 136.895 361.317 108.608C361.317 80.3211 341.529 57.3899 317.12 57.3899C292.711 57.3899 272.923 80.3211 272.923 108.608C272.923 136.895 292.711 159.826 317.12 159.826Z" stroke="white" stroke-width="40"/>
<mask id="mask0_78_94" style="mask-type:luminance" maskUnits="userSpaceOnUse" x="258" y="40" width="118" height="137">
<path d="M317.119 176.61C349.526 176.61 375.797 146.165 375.797 108.608C375.797 71.0521 349.526 40.6067 317.119 40.6067C284.712 40.6067 258.441 71.0521 258.441 108.608C258.441 146.165 284.712 176.61 317.119 176.61Z" fill="white"/>
</mask>
<g mask="url(#mask0_78_94)">
<path d="M317.12 176.607C349.527 176.607 375.798 146.162 375.798 108.605C375.798 71.0489 349.527 40.6035 317.12 40.6035C284.713 40.6035 258.442 71.0489 258.442 108.605C258.442 146.162 284.713 176.607 317.12 176.607Z" stroke="#F3603C" stroke-width="80" stroke-dasharray="502 502"/>
</g>
<mask id="mask1_78_94" style="mask-type:luminance" maskUnits="userSpaceOnUse" x="258" y="40" width="118" height="137">
<path d="M317.119 176.61C349.526 176.61 375.797 146.165 375.797 108.608C375.797 71.0521 349.526 40.6067 317.119 40.6067C284.712 40.6067 258.441 71.0521 258.441 108.608C258.441 146.165 284.712 176.61 317.119 176.61Z" fill="white"/>
</mask>
<g mask="url(#mask1_78_94)">
<path d="M317.12 176.607C349.527 176.607 375.798 146.162 375.798 108.605C375.798 71.0489 349.527 40.6035 317.12 40.6035C284.713 40.6035 258.442 71.0489 258.442 108.605C258.442 146.162 284.713 176.607 317.12 176.607Z" stroke="#021526" stroke-width="80" stroke-dasharray="340 340"/>
</g>
<g filter="url(#filter2_d_78_94)">
<path d="M306.733 219.802H124.266C122.667 219.802 121.37 221.305 121.37 223.158V413.651C121.37 415.505 122.667 417.008 124.266 417.008H306.733C308.333 417.008 309.629 415.505 309.629 413.651V223.158C309.629 221.305 308.333 219.802 306.733 219.802Z" fill="black"/>
</g>
<path d="M306.733 219.802H124.266C122.667 219.802 121.37 221.305 121.37 223.158V413.651C121.37 415.505 122.667 417.008 124.266 417.008H306.733C308.333 417.008 309.629 415.505 309.629 413.651V223.158C309.629 221.305 308.333 219.802 306.733 219.802Z" fill="white"/>
<path d="M206.874 338H135.896C134.297 338 133 339.503 133 341.357V400.378C133 402.232 134.297 403.735 135.896 403.735H206.874C208.474 403.735 209.771 402.232 209.771 400.378V341.357C209.771 339.503 208.474 338 206.874 338Z" fill="#2E52E8"/>
<path d="M149.792 387.527V384.248H152.614V382.755H149.792V379.475H148.503V382.754H145.673V384.247H148.503V387.527H149.791H149.792ZM158.672 389.237V377.4H157.11L154.624 379.915V381.907L157.023 379.409V389.236H158.671L158.672 389.237ZM163.333 389.403C163.61 389.403 163.847 389.29 164.046 389.063C164.244 388.836 164.342 388.562 164.342 388.24C164.342 387.92 164.244 387.644 164.046 387.415C163.953 387.305 163.843 387.217 163.72 387.158C163.597 387.099 163.466 387.069 163.333 387.071C163.061 387.071 162.825 387.185 162.623 387.415C162.527 387.522 162.451 387.65 162.399 387.792C162.347 387.934 162.321 388.087 162.323 388.241C162.323 388.557 162.424 388.828 162.624 389.058C162.825 389.288 163.061 389.403 163.333 389.403ZM169.548 389.395C170.598 389.395 171.448 389.022 172.095 388.279C172.742 387.534 173.065 386.556 173.065 385.344C173.065 384.137 172.748 383.209 172.112 382.558C171.477 381.909 170.52 381.584 169.241 381.584H168.123L168.345 379.135H172.6V377.408H166.906L166.376 383.21H169.005C170.605 383.21 171.404 383.944 171.404 385.411C171.404 386.074 171.236 386.611 170.9 387.017C170.563 387.424 170.101 387.627 169.513 387.627C169.003 387.627 168.567 387.455 168.206 387.112C167.845 386.768 167.665 386.254 167.665 385.568C167.665 385.43 167.682 385.23 167.716 384.971L166.061 385.087C166.037 385.325 166.024 385.524 166.024 385.684C166.024 386.454 166.19 387.124 166.519 387.697C166.834 388.255 167.278 388.698 167.801 388.975C168.327 389.255 168.909 389.395 169.549 389.395H169.548ZM176.215 382.438C176.51 382.444 176.803 382.379 177.075 382.248C177.348 382.116 177.594 381.921 177.798 381.675C178.232 381.16 178.45 380.543 178.45 379.824C178.45 379.11 178.232 378.498 177.798 377.989C177.594 377.742 177.348 377.547 177.075 377.416C176.803 377.284 176.51 377.219 176.215 377.225C175.6 377.225 175.071 377.48 174.632 377.989C174.42 378.226 174.252 378.512 174.139 378.827C174.025 379.143 173.969 379.482 173.973 379.824C173.973 380.548 174.192 381.166 174.629 381.675C175.065 382.184 175.595 382.438 176.215 382.438ZM177.003 389.246L182.404 377.383H180.971L175.585 389.246H177.003ZM176.215 381.119C175.909 381.119 175.647 380.993 175.427 380.741C175.321 380.623 175.237 380.48 175.18 380.323C175.123 380.165 175.095 379.995 175.098 379.824C175.098 379.463 175.208 379.161 175.427 378.914C175.531 378.795 175.654 378.701 175.789 378.638C175.924 378.574 176.069 378.543 176.215 378.545C176.526 378.545 176.789 378.67 177.003 378.919C177.218 379.168 177.325 379.469 177.325 379.824C177.325 380.183 177.219 380.49 177.006 380.741C176.794 380.993 176.53 381.119 176.215 381.119ZM181.852 389.378C182.468 389.378 182.992 389.124 183.425 388.614C183.634 388.375 183.799 388.089 183.911 387.774C184.022 387.459 184.077 387.121 184.073 386.78C184.073 386.061 183.855 385.447 183.421 384.941C183.218 384.697 182.975 384.503 182.705 384.373C182.435 384.242 182.144 384.177 181.852 384.182C181.231 384.182 180.701 384.435 180.262 384.941C180.049 385.179 179.881 385.465 179.768 385.781C179.654 386.098 179.598 386.438 179.603 386.78C179.603 387.499 179.822 388.113 180.258 388.619C180.696 389.125 181.227 389.378 181.852 389.378ZM181.852 388.067C181.537 388.067 181.273 387.941 181.057 387.689C180.953 387.571 180.871 387.429 180.815 387.273C180.76 387.117 180.732 386.949 180.735 386.78C180.735 386.415 180.843 386.108 181.057 385.859C181.16 385.737 181.284 385.641 181.421 385.577C181.558 385.512 181.704 385.481 181.852 385.485C182.153 385.485 182.415 385.612 182.637 385.867C182.858 386.121 182.97 386.426 182.97 386.78C182.97 387.134 182.86 387.437 182.64 387.689C182.42 387.941 182.158 388.067 181.852 388.067Z" fill="white"/>
<path d="M294.997 337.672H224.019C222.42 337.672 221.123 339.174 221.123 341.028V400.05C221.123 401.904 222.42 403.407 224.019 403.407H294.997C296.597 403.407 297.894 401.904 297.894 400.05V341.028C297.894 339.174 296.597 337.672 294.997 337.672Z" fill="#FAFAFA"/>
<path d="M237.129 389.394C237.807 389.394 238.416 389.253 238.955 388.97C239.478 388.699 239.924 388.261 240.241 387.709C240.559 387.155 240.717 386.516 240.717 385.791C240.717 385.078 240.56 384.454 240.245 383.923C239.925 383.387 239.48 382.967 238.963 382.711C239.345 382.451 239.645 382.112 239.865 381.694C240.086 381.273 240.2 380.788 240.195 380.295C240.195 379.399 239.905 378.665 239.324 378.092C238.744 377.519 238.012 377.232 237.129 377.232C236.231 377.232 235.491 377.518 234.908 378.088C234.326 378.657 234.034 379.393 234.034 380.295C234.034 380.81 234.146 381.277 234.371 381.694C234.595 382.112 234.904 382.451 235.295 382.711C234.746 382.982 234.315 383.383 234.002 383.915C233.69 384.446 233.533 385.072 233.533 385.791C233.533 386.516 233.692 387.155 234.01 387.709C234.327 388.261 234.774 388.698 235.298 388.966C235.841 389.251 236.45 389.394 237.129 389.394ZM237.129 382.122C236.689 382.122 236.319 381.957 236.019 381.628C235.873 381.473 235.757 381.283 235.679 381.072C235.601 380.861 235.563 380.633 235.567 380.403C235.567 379.928 235.718 379.527 236.019 379.203C236.319 378.88 236.689 378.718 237.129 378.718C237.563 378.718 237.931 378.88 238.232 379.204C238.533 379.527 238.684 379.928 238.684 380.403C238.684 380.885 238.531 381.291 238.228 381.624C237.933 381.952 237.538 382.131 237.129 382.122ZM237.129 387.667C236.57 387.667 236.107 387.476 235.739 387.094C235.372 386.712 235.188 386.203 235.188 385.567C235.188 384.942 235.372 384.441 235.739 384.065C236.107 383.687 236.57 383.5 237.129 383.5C237.678 383.5 238.136 383.688 238.505 384.064C238.872 384.441 239.056 384.942 239.056 385.566C239.056 386.198 238.872 386.706 238.504 387.09C238.136 387.474 237.679 387.667 237.129 387.667ZM245.149 389.394C245.827 389.394 246.435 389.253 246.975 388.971C247.498 388.699 247.944 388.262 248.261 387.709C248.579 387.155 248.737 386.517 248.737 385.792C248.737 385.079 248.579 384.455 248.264 383.924C247.944 383.388 247.5 382.968 246.983 382.712C247.364 382.452 247.665 382.113 247.885 381.695C248.106 381.274 248.22 380.789 248.215 380.296C248.215 379.4 247.925 378.666 247.344 378.092C246.764 377.52 246.032 377.233 245.149 377.233C244.251 377.233 243.511 377.518 242.928 378.089C242.346 378.658 242.054 379.394 242.054 380.296C242.054 380.811 242.166 381.278 242.391 381.695C242.615 382.113 242.924 382.452 243.315 382.712C242.766 382.983 242.335 383.384 242.022 383.915C241.709 384.447 241.553 385.073 241.553 385.792C241.553 386.517 241.712 387.155 242.029 387.709C242.347 388.262 242.794 388.699 243.318 388.966C243.861 389.252 244.47 389.394 245.149 389.394ZM245.149 382.123C244.709 382.123 244.339 381.958 244.038 381.629C243.892 381.473 243.776 381.284 243.699 381.073C243.621 380.862 243.583 380.634 243.587 380.404C243.587 379.929 243.738 379.528 244.038 379.204C244.339 378.881 244.709 378.719 245.149 378.719C245.583 378.719 245.951 378.881 246.252 379.205C246.553 379.528 246.703 379.929 246.703 380.404C246.703 380.886 246.551 381.292 246.248 381.624C245.953 381.953 245.558 382.132 245.149 382.123ZM245.149 387.667C244.59 387.667 244.126 387.477 243.759 387.095C243.391 386.713 243.208 386.204 243.208 385.568C243.208 384.943 243.391 384.442 243.759 384.066C244.126 383.688 244.59 383.501 245.149 383.501C245.698 383.501 246.156 383.689 246.525 384.065C246.892 384.442 247.075 384.943 247.075 385.567C247.075 386.199 246.892 386.707 246.525 387.091C246.156 387.475 245.698 387.667 245.149 387.667ZM251.256 389.403C251.534 389.403 251.771 389.29 251.97 389.062C252.167 388.836 252.266 388.561 252.266 388.24C252.266 387.919 252.167 387.644 251.97 387.415C251.877 387.304 251.766 387.216 251.644 387.157C251.521 387.098 251.389 387.069 251.256 387.071C250.985 387.071 250.748 387.185 250.548 387.415C250.451 387.521 250.375 387.649 250.323 387.791C250.271 387.933 250.245 388.086 250.247 388.241C250.247 388.556 250.347 388.828 250.548 389.058C250.748 389.288 250.985 389.402 251.257 389.402L251.256 389.403ZM260.896 389.237V387.51H256.182L259.184 383.907C259.666 383.326 260.02 382.781 260.244 382.272C260.469 381.763 260.581 381.207 260.581 380.603C260.581 379.552 260.278 378.725 259.671 378.122C259.065 377.518 258.284 377.216 257.329 377.216C256.312 377.216 255.505 377.546 254.908 378.205C254.311 378.863 254.012 379.807 254.012 381.035V381.699L255.653 381.882V381.01C255.653 380.241 255.803 379.681 256.104 379.329C256.405 378.978 256.816 378.802 257.336 378.802C257.832 378.802 258.226 378.962 258.518 379.28C258.809 379.598 258.955 380.042 258.955 380.612C258.955 381.348 258.614 382.122 257.931 382.936L253.847 387.792V389.237H260.896ZM267.921 389.237V386.921H269.325V385.202H267.92V377.399H265.408L261.476 385.194V386.921H266.275V389.237H267.922H267.921ZM266.274 385.202H263.079L266.274 378.628V385.202ZM272.16 382.438C272.455 382.443 272.747 382.379 273.02 382.247C273.292 382.116 273.538 381.921 273.743 381.674C274.177 381.16 274.394 380.543 274.394 379.824C274.394 379.109 274.177 378.498 273.743 377.988C273.538 377.742 273.292 377.547 273.02 377.415C272.747 377.284 272.455 377.219 272.16 377.225C271.543 377.225 271.016 377.48 270.576 377.988C270.364 378.226 270.196 378.511 270.083 378.827C269.969 379.143 269.913 379.482 269.917 379.824C269.917 380.548 270.136 381.165 270.573 381.674C271.01 382.183 271.538 382.438 272.16 382.438ZM272.947 389.245L278.348 377.382H276.915L271.529 389.245H272.947ZM272.16 381.118C271.854 381.118 271.591 380.993 271.371 380.741C271.265 380.622 271.181 380.48 271.124 380.322C271.067 380.164 271.039 379.995 271.042 379.824C271.042 379.463 271.152 379.161 271.371 378.914C271.475 378.794 271.598 378.7 271.733 378.637C271.869 378.573 272.014 378.542 272.16 378.545C272.47 378.545 272.732 378.67 272.947 378.918C273.163 379.167 273.27 379.469 273.27 379.824C273.27 380.183 273.163 380.489 272.951 380.741C272.738 380.993 272.475 381.118 272.16 381.118ZM277.797 389.378C278.412 389.378 278.936 389.123 279.369 388.614C279.578 388.375 279.743 388.089 279.855 387.774C279.966 387.458 280.022 387.12 280.017 386.78C280.017 386.06 279.8 385.447 279.366 384.941C279.163 384.696 278.919 384.503 278.649 384.372C278.379 384.241 278.089 384.177 277.797 384.181C277.176 384.181 276.645 384.434 276.207 384.941C275.994 385.179 275.826 385.465 275.712 385.781C275.599 386.097 275.543 386.437 275.548 386.78C275.548 387.499 275.766 388.112 276.203 388.618C276.64 389.124 277.172 389.378 277.797 389.378ZM277.797 388.066C277.482 388.066 277.217 387.94 277.002 387.688C276.898 387.57 276.815 387.429 276.76 387.272C276.705 387.116 276.677 386.948 276.679 386.78C276.679 386.415 276.787 386.107 277.002 385.858C277.105 385.736 277.229 385.64 277.366 385.576C277.502 385.512 277.649 385.481 277.797 385.485C278.097 385.485 278.358 385.611 278.581 385.867C278.803 386.121 278.914 386.425 278.914 386.78C278.914 387.134 278.804 387.437 278.584 387.688C278.365 387.94 278.102 388.066 277.797 388.066Z" fill="#1E272E"/>
<path d="M294.997 233.396H136.002C134.403 233.396 133.106 234.899 133.106 236.753V320.709C133.106 322.563 134.403 324.066 136.002 324.066H294.997C296.597 324.066 297.894 322.563 297.894 320.709V236.753C297.894 234.899 296.597 233.396 294.997 233.396Z" fill="#FAFAFA"/>
<path d="M153.949 304.568C155.395 304.568 156.694 304.266 157.845 303.665C158.996 303.05 159.911 302.153 160.588 300.972C161.265 299.792 161.604 298.428 161.604 296.882C161.604 295.358 161.268 294.031 160.596 292.897C159.923 291.764 159.011 290.902 157.86 290.312C158.675 289.757 159.317 289.034 159.786 288.142C160.255 287.251 160.489 286.257 160.489 285.158C160.489 283.246 159.869 281.679 158.632 280.457C157.394 279.235 155.833 278.624 153.949 278.624C152.034 278.624 150.454 279.232 149.212 280.448C147.969 281.664 147.347 283.234 147.347 285.158C147.347 286.257 147.586 287.251 148.066 288.142C148.544 289.034 149.201 289.757 150.037 290.312C148.865 290.891 147.945 291.747 147.278 292.879C146.612 294.012 146.278 295.347 146.278 296.882C146.278 298.428 146.616 299.792 147.294 300.972C147.971 302.153 148.888 303.048 150.044 303.655C151.201 304.264 152.502 304.568 153.949 304.568ZM153.949 289.055C153.011 289.055 152.222 288.703 151.58 288.001C150.938 287.298 150.617 286.428 150.617 285.389C150.617 284.374 150.938 283.52 151.58 282.83C152.222 282.139 153.011 281.794 153.948 281.794C154.875 281.794 155.66 282.139 156.301 282.83C156.943 283.52 157.264 284.374 157.264 285.389C157.264 286.416 156.941 287.284 156.294 287.992C155.647 288.7 154.866 289.055 153.949 289.055ZM153.949 300.884C152.757 300.884 151.768 300.477 150.984 299.662C150.199 298.848 149.808 297.761 149.808 296.404C149.808 295.07 150.199 294.001 150.984 293.198C151.768 292.395 152.757 291.994 153.949 291.994C155.12 291.994 156.098 292.395 156.883 293.198C157.667 294.001 158.059 295.07 158.059 296.404C158.059 297.749 157.667 298.833 156.883 299.653C156.098 300.474 155.12 300.884 153.949 300.884ZM169.688 304.231L176.732 293.428C178.015 291.422 178.658 289.385 178.658 287.319C178.658 285.666 178.311 284.176 177.619 282.847C176.942 281.536 175.966 280.467 174.799 279.757C173.612 279.026 172.295 278.66 170.849 278.66C169.433 278.66 168.132 279.022 166.945 279.748C165.758 280.475 164.811 281.514 164.102 282.865C163.394 284.217 163.045 285.737 163.056 287.425C163.066 289.078 163.405 290.545 164.072 291.825C164.74 293.107 165.598 294.078 166.647 294.739C167.687 295.398 168.854 295.739 170.039 295.731C170.518 295.731 170.976 295.677 171.415 295.572L165.608 304.231H169.688ZM170.941 292.684C169.637 292.684 168.57 292.21 167.739 291.259C166.909 290.309 166.489 289.06 166.479 287.514C166.469 285.991 166.886 284.754 167.731 283.804C168.577 282.853 169.647 282.378 170.941 282.378C172.255 282.378 173.314 282.839 174.119 283.759C174.924 284.681 175.326 285.92 175.326 287.479C175.326 288.954 174.916 290.191 174.096 291.188C173.276 292.186 172.224 292.684 170.941 292.684ZM183.731 304.585C184.321 304.585 184.828 304.343 185.251 303.859C185.455 303.633 185.617 303.361 185.726 303.059C185.836 302.757 185.89 302.433 185.885 302.105C185.885 301.421 185.674 300.834 185.251 300.343C185.054 300.107 184.818 299.92 184.556 299.793C184.295 299.667 184.014 299.604 183.731 299.609C183.15 299.609 182.646 299.854 182.217 300.344C181.79 300.834 181.576 301.421 181.576 302.106C181.576 302.778 181.79 303.36 182.218 303.85C182.645 304.34 183.149 304.585 183.731 304.585ZM194.03 304.231L204.283 282.219V278.978H189.141V282.644H200.326L190.026 304.23H194.031L194.03 304.231ZM218.922 304.231V299.29H221.918V295.624H218.922V278.978H213.559L205.17 295.607V299.291H215.408V304.231H218.922ZM215.408 295.624H208.592L215.408 281.599V295.624ZM227.785 289.728C229.11 289.728 230.235 289.185 231.163 288.098C232.089 287 232.553 285.684 232.553 284.149C232.553 282.626 232.089 281.322 231.163 280.236C230.236 279.149 229.11 278.606 227.785 278.606C226.471 278.606 225.345 279.149 224.408 280.236C223.471 281.322 223.002 282.626 223.002 284.149C223.002 285.695 223.469 287.012 224.4 288.098C225.333 289.185 226.461 289.728 227.785 289.728ZM229.466 304.249L240.988 278.942H237.932L226.441 304.249H229.466ZM227.785 286.911C227.134 286.911 226.573 286.643 226.104 286.106C225.877 285.853 225.698 285.549 225.577 285.212C225.456 284.875 225.396 284.513 225.402 284.149C225.402 283.382 225.636 282.736 226.104 282.21C226.325 281.955 226.587 281.754 226.876 281.619C227.165 281.483 227.474 281.416 227.785 281.421C228.447 281.421 229.008 281.687 229.466 282.219C229.924 282.75 230.154 283.393 230.154 284.149C230.154 284.917 229.927 285.569 229.473 286.106C229.021 286.643 228.457 286.911 227.785 286.911ZM239.812 304.532C241.125 304.532 242.244 303.989 243.166 302.903C244.087 301.817 244.548 300.512 244.548 298.99C244.548 297.454 244.085 296.147 243.158 295.066C242.231 293.986 241.115 293.447 239.812 293.447C238.487 293.447 237.356 293.986 236.419 295.066C235.482 296.147 235.013 297.455 235.013 298.99C235.013 300.524 235.479 301.831 236.411 302.912C237.343 303.992 238.476 304.532 239.812 304.532ZM239.812 301.734C239.138 301.734 238.573 301.465 238.115 300.928C237.893 300.676 237.718 300.374 237.599 300.041C237.481 299.707 237.423 299.35 237.427 298.99C237.427 298.21 237.657 297.555 238.115 297.023C238.573 296.492 239.139 296.226 239.812 296.226C240.453 296.226 241.011 296.498 241.484 297.041C241.958 297.584 242.195 298.233 242.195 298.99C242.195 299.745 241.961 300.391 241.492 300.928C241.024 301.465 240.463 301.734 239.812 301.734Z" fill="#343A40"/>
<defs>
<filter id="filter0_d_78_94" x="0" y="0" width="228.259" height="237.206" filterUnits="userSpaceOnUse" color-interpolation-filters="sRGB">
<feFlood flood-opacity="0" result="BackgroundImageFix"/>
<feColorMatrix in="SourceAlpha" type="matrix" values="0 0 0 0 0 0 0 0 0 0 0 0 0 0 0 0 0 0 127 0" result="hardAlpha"/>
<feOffset dy="10"/>
<feGaussianBlur stdDeviation="10"/>
<feColorMatrix type="matrix" values="0 0 0 0 0.311766 0 0 0 0 0.336514 0 0 0 0 0.386011 0 0 0 0.03 0"/>
<feBlend mode="normal" in2="BackgroundImageFix" result="effect1_dropShadow_78_94"/>
<feBlend mode="normal" in="SourceGraphic" in2="effect1_dropShadow_78_94" result="shape"/>
</filter>
<filter id="filter1_d_78_94" x="202.744" y="0" width="228.259" height="237.206" filterUnits="userSpaceOnUse" color-interpolation-filters="sRGB">
<feFlood flood-opacity="0" result="BackgroundImageFix"/>
<feColorMatrix in="SourceAlpha" type="matrix" values="0 0 0 0 0 0 0 0 0 0 0 0 0 0 0 0 0 0 127 0" result="hardAlpha"/>
<feOffset dy="10"/>
<feGaussianBlur stdDeviation="10"/>
<feColorMatrix type="matrix" values="0 0 0 0 0.311766 0 0 0 0 0.336514 0 0 0 0 0.386011 0 0 0 0.03 0"/>
<feBlend mode="normal" in2="BackgroundImageFix" result="effect1_dropShadow_78_94"/>
<feBlend mode="normal" in="SourceGraphic" in2="effect1_dropShadow_78_94" result="shape"/>
</filter>
<filter id="filter2_d_78_94" x="101.37" y="209.802" width="228.259" height="237.206" filterUnits="userSpaceOnUse" color-interpolation-filters="sRGB">
<feFlood flood-opacity="0" result="BackgroundImageFix"/>
<feColorMatrix in="SourceAlpha" type="matrix" values="0 0 0 0 0 0 0 0 0 0 0 0 0 0 0 0 0 0 127 0" result="hardAlpha"/>
<feOffset dy="10"/>
<feGaussianBlur stdDeviation="10"/>
<feColorMatrix type="matrix" values="0 0 0 0 0.311766 0 0 0 0 0.336514 0 0 0 0 0.386011 0 0 0 0.03 0"/>
<feBlend mode="normal" in2="BackgroundImageFix" result="effect1_dropShadow_78_94"/>
<feBlend mode="normal" in="SourceGraphic" in2="effect1_dropShadow_78_94" result="shape"/>
</filter>
</defs>
</svg>
