<svg width="16" height="15" viewBox="0 0 16 15" fill="none" xmlns="http://www.w3.org/2000/svg">
<path d="M8 1.35125C10.0025 1.35125 10.24 1.35875 11.0306 1.395C11.8481 1.4325 12.69 1.61875 13.2856 2.21437C13.8869 2.81562 14.0675 3.64937 14.105 4.46938C14.1412 5.26 14.1487 5.4975 14.1487 7.5C14.1487 9.5025 14.1412 9.74 14.105 10.5306C14.0681 11.3438 13.8775 12.1938 13.2856 12.7856C12.6844 13.3869 11.8513 13.5675 11.0306 13.605C10.24 13.6412 10.0025 13.6487 8 13.6487C5.9975 13.6487 5.76 13.6412 4.96938 13.605C4.1625 13.5681 3.30125 13.3731 2.71437 12.7856C2.11625 12.1875 1.9325 11.3456 1.895 10.5306C1.85875 9.74 1.85125 9.5025 1.85125 7.5C1.85125 5.4975 1.85875 5.26 1.895 4.46938C1.93188 3.65938 2.12437 2.80437 2.71437 2.21437C3.31437 1.61438 4.15125 1.4325 4.96938 1.395C5.76 1.35875 5.9975 1.35125 8 1.35125ZM8 0C5.96312 0 5.7075 0.00875 4.9075 0.045C3.74813 0.098125 2.59687 0.420625 1.75875 1.25875C0.9175 2.1 0.598125 3.24875 0.545 4.4075C0.50875 5.2075 0.5 5.46312 0.5 7.5C0.5 9.53688 0.50875 9.7925 0.545 10.5925C0.598125 11.7506 0.921875 12.905 1.75875 13.7413C2.59937 14.5819 3.75 14.9019 4.9075 14.955C5.7075 14.9912 5.96312 15 8 15C10.0369 15 10.2925 14.9912 11.0925 14.955C12.2512 14.9019 13.4038 14.5788 14.2413 13.7413C15.0831 12.8994 15.4019 11.7512 15.455 10.5925C15.4912 9.7925 15.5 9.53688 15.5 7.5C15.5 5.46312 15.4912 5.2075 15.455 4.4075C15.4019 3.24813 15.0788 2.09625 14.2413 1.25875C13.4019 0.419375 12.2481 0.0975 11.0925 0.045C10.2925 0.00875 10.0369 0 8 0Z" fill="#717171"/>
<path d="M8.00018 3.64874C5.8733 3.64874 4.14893 5.37312 4.14893 7.49999C4.14893 9.62687 5.8733 11.3512 8.00018 11.3512C10.1271 11.3512 11.8514 9.62687 11.8514 7.49999C11.8514 5.37312 10.1271 3.64874 8.00018 3.64874ZM8.00018 9.99999C6.61955 9.99999 5.50018 8.88062 5.50018 7.49999C5.50018 6.11937 6.61955 4.99999 8.00018 4.99999C9.3808 4.99999 10.5002 6.11937 10.5002 7.49999C10.5002 8.88062 9.3808 9.99999 8.00018 9.99999Z" fill="#717171"/>
<path d="M12.0035 4.39625C12.5006 4.39625 12.9035 3.99331 12.9035 3.49625C12.9035 2.9992 12.5006 2.59625 12.0035 2.59625C11.5065 2.59625 11.1035 2.9992 11.1035 3.49625C11.1035 3.99331 11.5065 4.39625 12.0035 4.39625Z" fill="white"/>
</svg>
