<svg width="29" height="27" viewBox="0 0 29 27" fill="none" xmlns="http://www.w3.org/2000/svg">
<path d="M5.16667 20.25H13.3333V21.375H5.16667V20.25ZM13.3333 15.75H5.16667V16.875H13.3333V15.75ZM13.3333 11.25H5.16667V12.375H13.3333V11.25ZM28.5 14.6565V19.5457C28.5 24.1526 23.964 26.2721 22.5733 26.811L22.0588 27.0112L21.5618 26.7716C20.1793 26.1034 15.6667 23.6104 15.6667 19.5457V14.6565C15.6667 13.8769 16.1835 13.1861 16.9535 12.9397L22.0833 11.3006L27.212 12.9397C27.982 13.1873 28.5 13.8769 28.5 14.6565ZM27.3333 14.6565C27.3333 14.3617 27.1373 14.1007 26.8445 14.0074L22.0833 12.4841L17.321 14.0074C17.0293 14.1007 16.8333 14.3617 16.8333 14.6565V19.5457C16.8333 22.9657 20.8525 25.1707 22.0845 25.7648L22.1102 25.7782L22.1358 25.767C23.3562 25.2934 27.3322 23.4473 27.3322 19.5457L27.3333 14.6565ZM16.3037 25.875C16.7353 26.2935 17.181 26.6659 17.6208 27H0.5V2.8125C0.5 1.26113 1.80783 0 3.41667 0H15.3248L23.8333 8.20463V9H14.5V1.125H3.41667C2.45183 1.125 1.66667 1.88213 1.66667 2.8125V25.875H16.3037ZM15.6667 7.875H21.8418L15.6667 1.92037V7.875Z" fill="#2E52E8"/>
</svg>
