<svg width="33" height="30" viewBox="0 0 33 30" fill="none" xmlns="http://www.w3.org/2000/svg">
<path d="M20.8434 14.6466C20.6026 14.6466 20.379 14.5804 20.1804 14.4739V14.4767C20.1804 14.8556 20.0332 15.2113 19.766 15.4778C19.4988 15.745 19.1433 15.8922 18.7649 15.8922C18.5206 15.8922 18.2942 15.8244 18.0935 15.715C18.0732 16.0616 17.9347 16.3855 17.6875 16.6329C17.4204 16.9001 17.0649 17.0474 16.6862 17.0474C15.9339 17.0474 15.323 16.456 15.279 15.7148C15.0462 15.8406 14.7831 15.9066 14.5116 15.8891C13.7716 15.8406 13.192 15.2012 13.192 14.4331V8.06648L12.4671 9.32244C12.191 9.80282 11.6741 10.1011 11.1176 10.1011C10.8464 10.1011 10.5785 10.0299 10.3413 9.89399C10.0458 9.72272 9.83451 9.44777 9.74663 9.11885C9.65828 8.78972 9.70399 8.44551 9.8748 8.15052C9.87503 8.15052 12.2468 4.04332 12.3915 3.79104C12.4087 3.7531 12.4577 3.64308 12.4994 3.54931C12.5392 3.45979 12.5734 3.3679 12.6061 3.27555C13.3214 1.25627 15.0924 0.00193405 17.2283 0.00193405C20.002 0.00193405 22.2585 2.44884 22.2585 5.45653L22.2588 13.2309C22.2588 13.6092 22.1118 13.9648 21.8448 14.2322C21.5777 14.4994 21.2222 14.6466 20.8433 14.6466L20.8434 14.6466ZM17.2283 0.754076C15.393 0.754076 13.9302 1.79074 13.3151 3.52709C13.2757 3.63735 13.2347 3.74761 13.1869 3.85504C13.0481 4.16627 13.0481 4.16627 13.009 4.21103L13.0038 4.20655C12.8102 4.57196 12.2348 5.5683 10.526 8.52696C10.4558 8.64829 10.4372 8.78918 10.473 8.92394C10.5093 9.0587 10.5963 9.17226 10.7166 9.24176C11.0903 9.45639 11.602 9.31785 11.815 8.94679L13.2425 6.47534C13.3278 6.32809 13.5002 6.25577 13.6656 6.30053C13.8301 6.34459 13.9443 6.49372 13.9443 6.66382V14.4333C13.9443 14.7999 14.2209 15.1163 14.5609 15.1387C14.7569 15.1491 14.9398 15.0833 15.0771 14.9462C15.202 14.8214 15.2708 14.655 15.2708 14.4772V9.39578C15.2708 9.18798 15.4392 9.01953 15.647 9.01953C15.8548 9.01953 16.0233 9.18775 16.0233 9.39578L16.023 15.6321C16.023 15.9978 16.3206 16.2954 16.6862 16.2954C16.8639 16.2954 17.0307 16.2266 17.1558 16.1017C17.2807 15.9766 17.3495 15.8098 17.3495 15.6321V9.39577C17.3495 9.18798 17.5177 9.01952 17.7257 9.01952C17.9335 9.01952 18.102 9.18774 18.102 9.39577L18.1017 14.4187V14.4771C18.1017 14.8425 18.3993 15.1401 18.7652 15.1401C18.9426 15.1401 19.1089 15.0711 19.2347 14.9457C19.3596 14.8211 19.4284 14.6548 19.4284 14.4769V9.39551C19.4284 9.18771 19.5966 9.01926 19.8046 9.01926C20.0124 9.01926 20.1809 9.18748 20.1809 9.39551L20.1804 13.2311C20.1804 13.5969 20.478 13.8945 20.8434 13.8945C21.0212 13.8945 21.1876 13.8255 21.3124 13.7008C21.4378 13.5755 21.5063 13.4087 21.5063 13.2311L21.5066 5.45671C21.5066 2.86397 19.5874 0.754154 17.2283 0.754154L17.2283 0.754076Z" fill="#2E52E8"/>
<path d="M6.06096 20.05L11.5207 16.7747C12.1789 16.3793 13.0259 16.5473 13.4481 17.1573C13.6022 17.3794 13.6809 17.6384 13.6931 17.902C13.8967 17.7958 14.1181 17.738 14.3436 17.738C14.459 17.738 14.575 17.7524 14.6895 17.7809C15.0563 17.8726 15.3654 18.1018 15.5598 18.426C15.7544 18.7506 15.8112 19.1311 15.7195 19.4975C15.6349 19.8365 15.4288 20.1219 15.1421 20.3176C15.3426 20.4359 15.5155 20.5973 15.6385 20.8027C15.8331 21.1274 15.8899 21.5077 15.7984 21.8745C15.7068 22.2408 15.4776 22.5499 15.1529 22.7448L15.151 22.746C15.348 22.864 15.5178 23.0238 15.6394 23.2261C15.8343 23.5508 15.891 23.9313 15.7994 24.2981C15.7075 24.6647 15.4783 24.9738 15.1541 25.1684L8.48769 29.1677C7.2435 29.9138 5.80515 30.1714 4.43822 29.8922C3.05904 29.6104 1.91683 28.8176 1.22232 27.6599C0.12324 25.8281 0.287954 23.6639 1.65135 22.0121C1.71379 21.9367 1.77527 21.8599 1.83111 21.7803C1.89025 21.6962 1.95928 21.5972 1.98284 21.5633C2.12396 21.3112 4.42672 17.1623 4.42648 17.1628C4.65902 16.7432 5.09487 16.5057 5.54438 16.5059C5.75407 16.5059 5.96681 16.5575 6.16307 16.6663C6.40009 16.7988 6.59917 16.9917 6.73841 17.2242C7.02466 17.7013 7.03479 18.2984 6.76526 18.7815L6.06096 20.05ZM6.09371 17.611C6.02068 17.4892 5.92031 17.3922 5.79756 17.3234C5.54382 17.1829 5.22435 17.2744 5.08466 17.5272C3.43691 20.4957 2.87521 21.5073 2.65845 21.8673L2.66339 21.8685C2.64525 21.9288 2.64525 21.9288 2.44688 22.2123C2.3795 22.3081 2.30623 22.4003 2.23155 22.491C1.05918 23.9114 0.923054 25.6989 1.86707 27.2729C2.45183 28.2478 3.41827 28.9162 4.58846 29.1551C5.77138 29.3956 7.01817 29.1718 8.10031 28.5225L14.7673 24.523C14.9195 24.4319 15.0269 24.287 15.0698 24.1152C15.1127 23.9437 15.0861 23.7654 14.9947 23.6132C14.8067 23.2998 14.3984 23.1969 14.085 23.3856L10.7961 25.3587C10.618 25.4657 10.3866 25.4082 10.2799 25.2298C10.1729 25.0517 10.2307 24.8206 10.4088 24.7136L13.6979 22.7405L14.7661 22.0997C14.9183 22.0083 15.026 21.8634 15.0689 21.6921C15.1118 21.5203 15.0851 21.3418 14.9937 21.1898C14.8055 20.8762 14.3972 20.7742 14.0841 20.9622L9.72671 23.5762C9.54813 23.6834 9.31747 23.6254 9.21051 23.4473C9.10355 23.2692 9.16151 23.0381 9.33938 22.9311L14.6872 19.723C14.8394 19.6316 14.9469 19.4869 14.9897 19.3152C15.0326 19.1437 15.006 18.9653 14.9148 18.8131C14.8236 18.6612 14.6787 18.5537 14.507 18.5109C14.3343 18.468 14.1567 18.4946 14.0049 18.5855L13.015 19.1795C13.0147 19.1795 13.0147 19.1797 13.0145 19.1797H13.0142L8.65711 21.7937C8.47853 21.9011 8.24764 21.8432 8.14091 21.6648C8.03396 21.4867 8.09191 21.2556 8.26979 21.1486L12.6272 18.5347C12.7794 18.4432 12.887 18.2984 12.9299 18.1271C12.977 17.9391 12.9412 17.7468 12.8295 17.5857C12.6359 17.3055 12.2217 17.2311 11.9077 17.4198L5.24547 21.4165C5.09964 21.5037 4.91281 21.4825 4.79053 21.3644C4.66802 21.2462 4.64045 21.0603 4.72291 20.9116L6.10824 18.4157C6.24725 18.1662 6.24183 17.858 6.09364 17.6111L6.09371 17.611Z" fill="#2E52E8"/>
<path d="M32.1501 27.6597C31.4558 28.8176 30.3139 29.6102 28.9344 29.892C27.5673 30.1707 26.1294 29.9137 24.885 29.1675L18.218 25.168C17.8935 24.9734 17.6641 24.6643 17.5722 24.2972C17.481 23.9309 17.538 23.5504 17.7324 23.2262C17.8537 23.0236 18.0238 22.8639 18.221 22.7458L18.2191 22.7446C17.8947 22.55 17.6652 22.2409 17.5738 21.8743C17.482 21.5077 17.539 21.127 17.7336 20.8024C17.8589 20.5939 18.0307 20.4308 18.2267 20.3152C17.9421 20.1194 17.7371 19.835 17.6528 19.4976C17.5609 19.1308 17.6179 18.7503 17.8125 18.4261C18.0069 18.1017 18.3162 17.8724 18.6828 17.7808C18.7973 17.7521 18.9135 17.7379 19.0284 17.7379C19.2541 17.7382 19.4756 17.7954 19.6792 17.9019C19.6916 17.6383 19.7701 17.3794 19.9242 17.1572C20.3466 16.5477 21.1929 16.379 21.8521 16.7746L27.3116 20.0494L26.6079 18.7818C26.3379 18.2979 26.3478 17.7009 26.634 17.2236C26.7735 16.9913 26.9728 16.7983 27.211 16.6648C27.4068 16.5564 27.6188 16.505 27.828 16.505C28.2773 16.5053 28.7137 16.7423 28.9459 17.1619C29.7554 18.6205 31.2831 21.3713 31.3905 21.5634C31.4133 21.5966 31.4824 21.6955 31.5415 21.7796C31.5978 21.8595 31.6586 21.9358 31.7215 22.0117C33.0847 23.6642 33.2491 25.8281 32.15 27.6597L32.1501 27.6597ZM31.141 22.4912C31.0661 22.4005 30.9926 22.3079 30.9257 22.2125C30.7222 21.9236 30.717 21.9161 30.7017 21.8404C30.4637 21.4468 29.8832 20.4017 28.2875 17.5269C28.1476 17.2745 27.8295 17.1824 27.5762 17.3224C27.4516 17.3921 27.3515 17.4894 27.2784 17.6112C27.1305 17.8579 27.1248 18.166 27.2645 18.4163L28.6494 20.9115C28.7321 21.0604 28.7045 21.246 28.5822 21.3643C28.4602 21.4828 28.2736 21.5035 28.1271 21.4164L21.4649 17.4197C21.1508 17.2314 20.7369 17.3052 20.5428 17.5855C20.4311 17.7467 20.3955 17.9389 20.4422 18.1267C20.485 18.2982 20.5927 18.4429 20.7451 18.5343C20.7456 18.5345 20.7458 18.535 20.7463 18.5352L25.1023 21.1485C25.2804 21.2554 25.3381 21.4863 25.2312 21.6647C25.1242 21.8425 24.8936 21.9007 24.715 21.7935L19.3671 18.5854C19.2154 18.4945 19.0368 18.4676 18.8653 18.5107C18.6933 18.5536 18.5487 18.661 18.4575 18.8135C18.3661 18.9654 18.3397 19.1438 18.3821 19.3153C18.425 19.4868 18.5327 19.6317 18.6848 19.7231L19.7255 20.3472L24.0324 22.9313C24.2106 23.0382 24.2683 23.2691 24.1613 23.4475C24.0544 23.6254 23.8237 23.6833 23.6451 23.5763L19.2882 20.9624C18.9749 20.7739 18.5668 20.8762 18.3783 21.19C18.2869 21.3422 18.2605 21.5205 18.303 21.692C18.3458 21.8635 18.4535 22.0082 18.6059 22.0998L19.6741 22.7407L22.9628 24.7138C23.1409 24.8208 23.1987 25.0517 23.0917 25.23C22.9847 25.4079 22.7541 25.4663 22.5755 25.3589L19.2868 23.3857C19.1351 23.2948 18.9572 23.2679 18.7848 23.311C18.6132 23.3539 18.4681 23.4614 18.3769 23.6133C18.2858 23.7655 18.2591 23.9441 18.3015 24.1154C18.3444 24.2869 18.4521 24.4316 18.6045 24.5232L25.2715 28.5227C26.3534 29.1718 27.6011 29.3965 28.7834 29.1552C29.9533 28.9163 30.9198 28.248 31.5045 27.2731C32.4495 25.6988 32.3136 23.9111 31.1415 22.4911L31.141 22.4912Z" fill="#2E52E8"/>
</svg>
