<svg width="16" height="15" viewBox="0 0 16 15" fill="none" xmlns="http://www.w3.org/2000/svg">
<g clip-path="url(#clip0_167_216)">
<path d="M14.8761 13.49H15.018L14.7461 13.0788C14.9123 13.0788 15.0005 12.9731 15.0017 12.8438C15.0017 12.8388 15.0017 12.8331 15.0011 12.8281C15.0011 12.6519 14.8948 12.5675 14.6767 12.5675H14.3242V13.49H14.4567V13.0881H14.6198L14.8761 13.49ZM14.6105 12.9838H14.4567V12.6719H14.6517C14.7523 12.6719 14.8673 12.6881 14.8673 12.82C14.8673 12.9713 14.7517 12.9838 14.6105 12.9838Z" fill="white"/>
<path d="M11.3069 11.9206H9.4275V8.97751C9.4275 8.27564 9.415 7.37251 8.45 7.37251C7.47125 7.37251 7.32125 8.13689 7.32125 8.92689V11.9206H5.4425V5.86814H7.24687V6.69501H7.27187C7.64 6.06626 8.32375 5.69064 9.05188 5.71751C10.9569 5.71751 11.3075 6.97064 11.3075 8.60001L11.3069 11.9206ZM3.32187 5.04064C2.71937 5.04064 2.23125 4.55251 2.23125 3.95001C2.23125 3.34751 2.71937 2.85939 3.32187 2.85939C3.92437 2.85939 4.4125 3.34751 4.4125 3.95001C4.4125 4.55251 3.92437 5.04064 3.32187 5.04064ZM4.26125 11.9206H2.38V5.86814H4.26125V11.9206ZM12.2438 1.11439H1.43562C0.925 1.10876 0.50625 1.51814 0.5 2.02876V12.8813C0.50625 13.3925 0.925 13.8019 1.43562 13.7963H12.2438C12.7556 13.8025 13.1762 13.3931 13.1831 12.8813V2.02814C13.1756 1.51626 12.755 1.10689 12.2438 1.11376" fill="white"/>
<path d="M14.6268 12.1569C14.1493 12.1613 13.7656 12.5525 13.7706 13.03C13.7749 13.5075 14.1662 13.8913 14.6437 13.8863C15.1212 13.8819 15.5049 13.4906 15.4999 13.0131C15.4956 12.5419 15.1143 12.1613 14.6437 12.1569H14.6268ZM14.6468 13.7869C14.2281 13.7938 13.8631 13.4606 13.8562 13.0419C13.8493 12.6231 14.1831 12.2781 14.6018 12.2713C15.0206 12.2644 15.3656 12.5981 15.3724 13.0169C15.3724 13.0213 15.3724 13.025 15.3724 13.0294C15.3812 13.4388 15.0562 13.7781 14.6468 13.7869H14.6274H14.6468Z" fill="white"/>
</g>
<defs>
<clipPath id="clip0_167_216">
<rect width="15" height="15" fill="white" transform="translate(0.5)"/>
</clipPath>
</defs>
</svg>
