<svg width="512" height="580" viewBox="0 0 512 580" fill="none" xmlns="http://www.w3.org/2000/svg">
<path d="M436.436 579.64C436.436 579.834 353.214 580 250.589 580C147.964 580 64.7061 579.834 64.7061 579.64C64.7061 579.447 147.916 579.281 250.589 579.281C353.262 579.281 436.436 579.461 436.436 579.64Z" fill="#263238"/>
<path d="M355.347 410.318C336.831 395.394 332.636 367.69 333.367 342.78C333.487 338.631 333.091 334.232 334.805 330.595C336.519 326.957 340.522 324.454 343.746 326.196C346.418 327.649 347.581 331.245 349.079 334.218C351.078 338.179 354.007 341.406 357.528 343.527C359.817 344.91 362.658 345.74 364.923 344.301C368.039 342.324 368.398 337.386 368.374 333.236C368.374 325.519 368.334 317.81 368.254 310.111C368.039 305.976 368.403 301.829 369.333 297.828C370.448 293.9 372.929 290.263 376.32 289.156C379.712 288.05 383.942 290.332 384.709 294.371C384.842 296.081 384.878 297.8 384.817 299.516C384.913 301.245 385.608 303.14 387.011 303.665C388.413 304.191 389.875 302.988 390.954 301.77C394.645 297.621 397.162 292.213 399.499 286.874C401.836 281.535 404.125 276.044 407.48 271.494C410.836 266.943 415.474 263.333 420.664 262.988C425.853 262.642 431.258 266.321 432.552 272.13C433.847 277.939 430.911 283.873 427.759 288.589C423.002 295.59 417.396 301.763 411.112 306.916C409.885 307.689 408.906 308.896 408.319 310.36C407.54 313.126 409.805 315.892 412.166 316.763C414.839 317.787 417.739 317.469 420.556 317.856C423.372 318.243 426.368 319.654 427.435 322.697C428.897 326.929 425.829 331.355 422.821 334.26C416.781 340.069 409.922 344.64 402.543 347.773C399.906 348.88 397.138 349.862 395.004 351.992C392.871 354.122 391.601 357.842 392.883 360.761C394.165 363.679 397.461 364.606 400.23 364.011C402.998 363.416 405.455 361.701 408.092 360.553C413.017 358.409 419.369 358.797 422.473 363.707C423.435 365.398 424.044 367.324 424.252 369.333C424.46 371.341 424.261 373.378 423.672 375.284C422.472 379.075 420.626 382.551 418.243 385.505C410.393 396.328 400.194 404.552 388.688 409.336C377.267 413.9 366.684 415.145 355.335 410.346" fill="#2E52E8"/>
<path d="M427.281 266.404C427.281 266.404 427.173 266.542 426.933 266.791L425.866 267.884C424.932 268.852 423.553 270.263 421.816 272.13C416.889 277.41 412.313 283.11 408.129 289.184C405.456 293.015 402.688 297.358 399.74 302.075C396.791 306.791 393.747 311.881 390.727 317.289C387.507 322.992 384.559 328.893 381.894 334.965C380.504 338.133 379.282 341.438 378.023 344.813L374.308 355.117C369.411 368.097 365.146 381.382 361.532 394.91C358.622 405.979 356.616 417.338 355.54 428.838C354.843 436.599 354.731 444.415 355.204 452.199C355.396 454.965 355.576 457.081 355.744 458.52C355.816 459.212 355.864 459.765 355.912 460.166V460.733C355.86 460.553 355.824 460.368 355.804 460.18C355.744 459.779 355.672 459.239 355.576 458.548C355.36 457.164 355.133 454.979 354.917 452.213C354.339 444.415 354.379 436.572 355.037 428.783C356.046 417.233 358.008 405.821 360.897 394.703C364.48 381.136 368.734 367.818 373.637 354.813L377.448 344.55C378.707 341.189 379.941 337.856 381.343 334.675C384.026 328.584 386.999 322.669 390.248 316.957C393.316 311.425 396.408 306.418 399.32 301.743C402.233 297.068 405.049 292.697 407.71 288.88C411.936 282.822 416.573 277.161 421.576 271.95C423.35 270.111 424.764 268.727 425.723 267.801L426.837 266.763C426.974 266.626 427.122 266.506 427.281 266.404Z" fill="#263238"/>
<path d="M381.498 334.647C381.329 334.077 381.213 333.489 381.151 332.891C380.959 331.743 380.743 330.124 380.492 328.022C379.976 323.873 379.449 318.188 378.886 311.895C378.322 305.602 377.687 299.903 377.16 295.795C376.884 293.748 376.644 292.102 376.477 290.954C376.346 290.367 376.277 289.763 376.273 289.156C376.479 289.71 376.628 290.291 376.716 290.885C376.98 292.019 377.28 293.651 377.615 295.712C378.298 299.862 378.969 305.505 379.533 311.812C380.096 318.119 380.575 323.651 380.947 327.953C381.127 329.889 381.283 331.535 381.402 332.849C381.496 333.442 381.528 334.046 381.498 334.647Z" fill="#263238"/>
<path d="M427.616 324.716C427.033 324.863 426.439 324.946 425.843 324.965C424.644 325.09 422.942 325.256 420.833 325.532C416.614 326.058 410.814 327.026 404.45 328.409C398.086 329.792 392.369 331.355 388.259 332.559C386.209 333.167 384.555 333.721 383.465 334.094C382.882 334.333 382.28 334.5 381.667 334.592C382.221 334.271 382.798 334.007 383.393 333.804C384.519 333.347 386.149 332.711 388.187 332.033C392.273 330.65 397.99 329.004 404.378 327.593C409.789 326.399 415.249 325.522 420.737 324.965C422.859 324.758 424.572 324.675 425.771 324.647C426.387 324.599 427.005 324.622 427.616 324.716Z" fill="#263238"/>
<path d="M361.484 393.734C361.356 393.534 361.251 393.316 361.172 393.084L360.381 391.162C359.698 389.488 358.775 387.012 357.673 383.983C355.444 377.898 352.603 369.377 349.583 359.917C346.563 350.456 343.782 341.936 341.673 335.781C340.642 332.794 339.792 330.346 339.156 328.52L338.485 326.542C338.392 326.314 338.328 326.072 338.293 325.823C338.421 326.023 338.526 326.242 338.605 326.473L339.396 328.395C340.067 330.069 341.002 332.545 342.105 335.574C344.334 341.66 347.174 350.18 350.194 359.64C353.214 369.101 355.995 377.621 358.104 383.776C359.135 386.763 359.986 389.211 360.609 391.037C360.885 391.826 361.112 392.42 361.292 393.015C361.385 393.243 361.45 393.485 361.484 393.734Z" fill="#263238"/>
<path d="M422.702 370.954C422.51 371.081 422.305 371.179 422.091 371.245L420.317 371.936L413.762 374.384C408.225 376.459 400.578 379.419 392.189 382.683C383.8 385.947 376.117 388.852 370.545 390.788C367.764 391.77 365.499 392.517 363.929 393.015L362.119 393.554C361.909 393.632 361.692 393.683 361.472 393.707C361.664 393.58 361.87 393.482 362.083 393.416L363.857 392.725L370.413 390.276C375.95 388.202 383.596 385.242 391.985 381.978C400.375 378.714 408.045 375.809 413.618 373.873C416.41 372.891 418.663 372.144 420.245 371.646L422.055 371.106C422.265 371.029 422.482 370.978 422.702 370.954Z" fill="#263238"/>
<path d="M397.726 35.4494L391.553 37.9944L388.905 28.6859C384.039 11.5213 368.531 2.40655 354.281 8.20184C340.031 13.9971 332.445 32.8215 337.311 49.9861L339.959 59.2945L333.763 61.8533C331.4 62.9109 329.482 64.9786 328.406 67.6266C327.33 70.2746 327.18 73.2993 327.986 76.0718L345.161 136.639C345.517 138.011 346.109 139.287 346.901 140.39C347.693 141.494 348.67 142.402 349.772 143.061C350.874 143.721 352.08 144.118 353.318 144.228C354.556 144.339 355.8 144.162 356.978 143.707L420.94 117.303C423.334 116.247 425.28 114.161 426.368 111.483C427.457 108.806 427.603 105.745 426.777 102.946L409.59 42.3789C409.225 41.0102 408.624 39.7406 407.824 38.6458C407.023 37.551 406.04 36.6535 404.933 36.0068C403.826 35.36 402.617 34.9774 401.378 34.8816C400.14 34.7859 398.898 34.979 397.726 35.4494ZM348.972 45.1313C347.66 40.6682 347.895 35.7924 349.629 31.5253C351.363 27.2582 354.46 23.9309 358.272 22.2406C360.154 21.4973 362.147 21.1993 364.131 21.3642C366.116 21.5291 368.051 22.1537 369.821 23.2006C371.592 24.2474 373.162 25.6952 374.437 27.4575C375.712 29.2197 376.667 31.2604 377.244 33.4577L379.88 42.7662L351.608 54.4397L348.972 45.1313ZM384.926 98.8795L389.312 114.343C389.393 114.653 389.367 114.987 389.24 115.275C389.112 115.564 388.894 115.785 388.629 115.892L382.481 118.423C382.236 118.501 381.975 118.467 381.751 118.328C381.528 118.189 381.36 117.955 381.283 117.676L376.86 102.282C374.422 102.129 372.082 101.119 370.154 99.389C368.227 97.6587 366.803 95.29 366.074 92.6002C365.032 89.0441 365.222 85.1605 366.605 81.7625C367.987 78.3645 370.456 75.7157 373.492 74.3706C374.992 73.7793 376.579 73.5425 378.16 73.6743C379.74 73.806 381.281 74.3036 382.692 75.1374C384.102 75.9711 385.352 77.1241 386.368 78.5274C387.384 79.9307 388.145 81.5557 388.605 83.3056C389.376 86.038 389.44 88.9706 388.789 91.7443C388.137 94.5179 386.799 97.012 384.938 98.921L384.926 98.8795Z" fill="#2E52E8"/>
<path d="M391.277 37.8284C391.277 38.022 379.831 42.9875 365.593 48.8934C351.356 54.7994 339.742 59.5435 339.682 59.4052C339.622 59.2668 351.128 54.2599 365.378 48.3402C379.628 42.4204 391.217 37.6486 391.277 37.8284Z" fill="#263238"/>
<path d="M404.868 40.3735C404.921 40.4936 404.965 40.6185 405 40.747C405.096 41.0236 405.204 41.3832 405.347 41.8258C405.659 42.8355 406.09 44.2325 406.63 45.9752L411.232 61.4385C413.149 67.9946 415.439 75.7677 417.979 84.3984C419.178 88.7276 420.592 93.2366 421.91 97.9807C422.616 100.425 422.921 103 422.809 105.574C422.708 106.913 422.378 108.215 421.838 109.405C421.262 110.592 420.493 111.639 419.573 112.49C417.722 114.05 415.666 115.259 413.485 116.072L407.313 118.631L395.628 123.458L375.841 131.591L362.478 137.013L358.882 138.396L357.924 138.755C357.821 138.808 357.712 138.841 357.6 138.852C357.6 138.852 357.696 138.852 357.9 138.686L358.835 138.257L362.43 136.694L375.721 131.051L395.472 122.752L407.133 117.884L413.305 115.311C415.425 114.531 417.42 113.359 419.214 111.84C420.07 111.051 420.786 110.079 421.323 108.977C421.831 107.875 422.137 106.665 422.222 105.422C422.332 102.942 422.04 100.461 421.359 98.1052C420.065 93.4026 418.698 88.8521 417.464 84.5229C414.971 75.8784 412.67 68.0775 410.848 61.5215C409.027 54.9655 407.493 49.6958 406.438 45.989C405.935 44.1771 405.551 42.7663 405.24 41.7428L404.952 40.6363C404.916 40.5525 404.888 40.4644 404.868 40.3735Z" fill="#263238"/>
<path d="M371.119 21.3003C371.119 21.3003 370.483 20.9406 369.309 20.3874C367.635 19.645 365.864 19.2336 364.072 19.1702C361.414 19.0651 358.77 19.6414 356.329 20.8577C353.361 22.3721 350.823 24.8218 349.007 27.9254C347.178 31.0202 346.197 34.6775 346.19 38.4234C346.215 41.4935 346.619 44.5439 347.389 47.4828C348.012 50.0001 348.659 52.0057 349.091 53.4026C349.345 54.1122 349.553 54.8426 349.714 55.5879C349.373 54.9245 349.088 54.2252 348.863 53.4994C348.372 52.1163 347.664 50.1523 346.969 47.6211C346.116 44.6514 345.652 41.5513 345.591 38.4234C345.559 34.536 346.563 30.7312 348.467 27.5243C350.347 24.3073 352.989 21.7819 356.078 20.2491C358.595 19.0262 361.321 18.4867 364.048 18.6723C365.879 18.78 367.678 19.2722 369.357 20.1246C369.806 20.3635 370.238 20.6409 370.651 20.9545C370.822 21.0409 370.979 21.1576 371.119 21.3003Z" fill="#263238"/>
<path d="M371.67 75.4219C371.862 75.2881 372.062 75.1725 372.27 75.0761C372.87 74.7637 373.491 74.5093 374.127 74.3154C375.137 73.9713 376.179 73.767 377.231 73.7068C378.662 73.6181 380.094 73.8675 381.438 74.4399C384.506 75.6847 387.322 79.2947 388.713 84.1218C389.379 86.7122 389.379 89.4705 388.713 92.0609C387.973 94.8725 386.648 97.4321 384.854 99.516L384.925 99.1425C386.519 104.191 388.257 109.668 390.055 115.38L390.163 115.726L389.863 115.851L387.119 116.902L381.126 119.212L380.827 119.322L380.731 118.977C379.089 113.25 377.291 107.912 375.937 102.669L376.201 102.905C373.858 102.68 371.624 101.665 369.777 99.9862C368.106 98.5009 366.736 96.6129 365.762 94.4537C364.883 92.5389 364.446 90.3957 364.492 88.2296C364.547 86.0159 365.026 83.8437 365.894 81.8686C366.762 79.8935 367.998 78.1643 369.513 76.805C370.137 76.2208 370.837 75.754 371.587 75.4219C370.91 75.8855 370.253 76.3886 369.621 76.9295C367.957 78.5545 366.682 80.6451 365.918 83.0014C365.262 84.7783 364.955 86.7006 365.02 88.6304C365.084 90.5602 365.517 92.4497 366.289 94.1633C367.247 96.2404 368.584 98.0526 370.208 99.4745C371.97 101.07 374.1 102.032 376.332 102.241H376.536L376.596 102.448C377.914 107.593 379.724 112.974 381.39 118.728L380.994 118.506L386.987 116.196L389.719 115.131L389.528 115.602C387.742 109.889 386.016 104.398 384.434 99.35V99.1425L384.578 98.9765C386.32 96.9791 387.619 94.5262 388.365 91.8258C389.001 89.3478 389.001 86.7104 388.365 84.2324C387.059 79.5851 384.362 76.0581 381.438 74.8133C380.144 74.2373 378.762 73.9691 377.375 74.025C376.34 74.0523 375.311 74.2147 374.307 74.509C372.521 75.0208 371.682 75.4911 371.67 75.4219Z" fill="#263238"/>
<path d="M334.627 474.785L214.911 474.149C207.998 474.105 201.382 470.897 196.517 465.228C191.652 459.559 188.935 451.893 188.964 443.914L190.234 97.5657C190.249 93.6128 190.938 89.7019 192.262 86.0564C193.587 82.411 195.521 79.1027 197.954 76.3204C200.387 73.5381 203.271 71.3365 206.442 69.8414C209.613 68.3464 213.008 67.5872 216.433 67.6072L336.137 68.2434C343.05 68.2837 349.667 71.489 354.534 77.1554C359.401 82.8218 362.121 90.486 362.095 98.4647L360.825 444.799C360.811 448.754 360.122 452.666 358.798 456.313C357.474 459.96 355.54 463.27 353.107 466.054C350.674 468.839 347.79 471.043 344.619 472.541C341.448 474.039 338.053 474.802 334.627 474.785Z" fill="#455A64"/>
<path d="M335.957 80.1522H312.754C311.997 80.1683 311.25 80.3565 310.556 80.7059C309.862 81.0553 309.235 81.559 308.709 82.1884C308.184 82.8178 307.771 83.5604 307.495 84.3739C307.218 85.1874 307.083 86.0558 307.098 86.9295V91.7842C307.112 92.6573 306.977 93.525 306.7 94.3377C306.423 95.1504 306.01 95.8921 305.485 96.5203C304.96 97.1486 304.332 97.6511 303.638 97.9989C302.944 98.3468 302.197 98.5333 301.441 98.5477L256.21 98.3126C254.68 98.2655 253.229 97.5195 252.175 96.2384C251.121 94.9573 250.551 93.2459 250.589 91.48V86.6252C250.628 84.8616 250.06 83.1522 249.008 81.8715C247.957 80.5908 246.509 79.8432 244.981 79.7925H236.819L216.505 79.6819C211.673 79.6487 207.027 81.8264 203.583 85.7382C200.14 89.6501 198.18 94.9772 198.132 100.553L196.934 438.617C196.923 441.383 197.384 444.125 198.291 446.685C199.198 449.246 200.533 451.575 202.221 453.54C203.908 455.505 205.914 457.068 208.124 458.138C210.334 459.208 212.706 459.766 215.103 459.779L334.567 460.415C336.965 460.428 339.342 459.895 341.563 458.847C343.783 457.8 345.803 456.258 347.506 454.31C349.21 452.361 350.565 450.045 351.493 447.492C352.421 444.939 352.904 442.201 352.915 439.433L354.114 101.369C354.142 95.7775 352.246 90.4014 348.841 86.4228C345.436 82.4442 340.802 80.1887 335.957 80.1522Z" fill="white"/>
<path d="M319.885 415.311L231.054 414.868C230.131 414.868 229.388 413.707 229.4 412.296L229.496 385.477C229.496 384.094 230.251 382.904 231.174 382.904L320.005 383.375C320.516 383.477 320.974 383.803 321.282 384.285C321.59 384.766 321.725 385.367 321.659 385.961L321.575 412.752C321.575 414.177 320.808 415.325 319.885 415.311Z" fill="#2E52E8"/>
<path d="M263.738 402.034C263.443 402.034 263.16 401.987 262.889 401.892C262.621 401.794 262.413 401.67 262.266 401.519L262.43 401.196C262.57 401.332 262.757 401.447 262.99 401.542C263.228 401.632 263.477 401.677 263.738 401.677C263.987 401.677 264.189 401.647 264.343 401.587C264.502 401.523 264.617 401.438 264.688 401.332C264.764 401.226 264.802 401.11 264.802 400.981C264.802 400.827 264.756 400.702 264.666 400.608C264.579 400.513 264.464 400.44 264.321 400.387C264.177 400.33 264.019 400.281 263.845 400.24C263.672 400.198 263.498 400.155 263.324 400.11C263.151 400.061 262.99 399.996 262.843 399.917C262.7 399.838 262.583 399.734 262.492 399.606C262.406 399.474 262.362 399.302 262.362 399.091C262.362 398.895 262.413 398.715 262.515 398.553C262.621 398.387 262.781 398.255 262.996 398.157C263.211 398.055 263.487 398.004 263.823 398.004C264.045 398.004 264.266 398.036 264.485 398.1C264.704 398.161 264.892 398.246 265.051 398.355L264.909 398.689C264.739 398.576 264.558 398.493 264.366 398.44C264.177 398.387 263.994 398.361 263.817 398.361C263.579 398.361 263.383 398.393 263.228 398.457C263.074 398.521 262.958 398.608 262.883 398.717C262.811 398.823 262.775 398.944 262.775 399.079C262.775 399.234 262.819 399.359 262.906 399.453C262.996 399.547 263.113 399.621 263.257 399.674C263.404 399.727 263.564 399.774 263.738 399.815C263.911 399.857 264.083 399.902 264.253 399.951C264.426 400 264.585 400.064 264.728 400.144C264.875 400.219 264.992 400.321 265.079 400.449C265.17 400.577 265.215 400.745 265.215 400.953C265.215 401.145 265.162 401.325 265.056 401.491C264.951 401.653 264.788 401.785 264.57 401.887C264.355 401.985 264.077 402.034 263.738 402.034ZM266.127 402V398.038H266.546V402H266.127ZM267.835 402V398.038H268.181L270.914 401.479H270.733V398.038H271.146V402H270.801L268.073 398.559H268.254V402H267.835ZM274.177 402.034C273.875 402.034 273.596 401.985 273.34 401.887C273.087 401.785 272.866 401.643 272.677 401.462C272.492 401.281 272.347 401.068 272.241 400.823C272.14 400.577 272.089 400.31 272.089 400.019C272.089 399.728 272.14 399.461 272.241 399.215C272.347 398.97 272.494 398.757 272.683 398.576C272.872 398.395 273.092 398.255 273.345 398.157C273.602 398.055 273.881 398.004 274.183 398.004C274.485 398.004 274.76 398.051 275.009 398.146C275.262 398.24 275.477 398.383 275.654 398.576L275.394 398.842C275.228 398.676 275.045 398.557 274.845 398.485C274.645 398.413 274.43 398.378 274.2 398.378C273.955 398.378 273.728 398.419 273.521 398.502C273.317 398.581 273.138 398.696 272.983 398.847C272.832 398.995 272.713 399.168 272.626 399.368C272.543 399.564 272.502 399.781 272.502 400.019C272.502 400.253 272.543 400.47 272.626 400.67C272.713 400.87 272.832 401.045 272.983 401.196C273.138 401.343 273.317 401.459 273.521 401.542C273.728 401.621 273.953 401.66 274.194 401.66C274.421 401.66 274.634 401.626 274.834 401.559C275.037 401.491 275.224 401.376 275.394 401.213L275.632 401.53C275.443 401.696 275.222 401.823 274.97 401.909C274.717 401.992 274.453 402.034 274.177 402.034ZM275.23 401.479V400.019H275.632V401.53L275.23 401.479ZM279.895 402.034C279.389 402.034 278.991 401.889 278.7 401.598C278.41 401.308 278.265 400.877 278.265 400.308V398.038H278.683V400.291C278.683 400.759 278.789 401.104 279 401.326C279.212 401.549 279.51 401.66 279.895 401.66C280.283 401.66 280.583 401.549 280.795 401.326C281.006 401.104 281.111 400.759 281.111 400.291V398.038H281.519V400.308C281.519 400.877 281.374 401.308 281.083 401.598C280.796 401.889 280.4 402.034 279.895 402.034ZM282.781 402V398.038H284.264C284.6 398.038 284.889 398.093 285.13 398.202C285.371 398.308 285.556 398.463 285.685 398.666C285.817 398.866 285.883 399.11 285.883 399.396C285.883 399.676 285.817 399.917 285.685 400.121C285.556 400.321 285.371 400.476 285.13 400.585C284.889 400.694 284.6 400.749 284.264 400.749H283.013L283.2 400.551V402H282.781ZM283.2 400.585L283.013 400.381H284.253C284.649 400.381 284.949 400.296 285.153 400.127C285.36 399.953 285.464 399.71 285.464 399.396C285.464 399.079 285.36 398.834 285.153 398.661C284.949 398.487 284.649 398.4 284.253 398.4H283.013L283.2 398.202V400.585Z" fill="#E8E8E3"/>
<path d="M248.772 179.53L217.947 179.369L217.922 185.897L248.746 186.058L248.772 179.53Z" fill="#2E52E8"/>
<path opacity="0.1" d="M248.85 179.161L218.026 179L218 185.528L248.825 185.69L248.85 179.161Z" fill="black"/>
<path d="M339.132 219.613C339.374 219.584 339.612 219.519 339.839 219.419C340.171 219.269 340.459 219.015 340.671 218.684C340.883 218.354 341.01 217.962 341.038 217.552C341.038 215.353 341.038 212.144 341.038 208.022C341.038 205.961 341.038 203.651 341.038 201.106C341.038 200.484 341.038 199.834 341.038 199.184C341.116 198.553 340.997 197.911 340.702 197.372C340.537 197.114 340.323 196.903 340.075 196.757C339.828 196.61 339.554 196.532 339.276 196.528H337.406H320.088L219.848 196.1C219.591 196.095 219.338 196.161 219.108 196.293C218.879 196.426 218.68 196.62 218.53 196.86C218.24 197.401 218.13 198.045 218.218 198.672C218.218 200.055 218.218 201.438 218.218 202.822C218.218 205.588 218.218 208.354 218.218 211.12C218.218 212.503 218.218 213.887 218.218 215.27C218.168 215.914 218.168 216.562 218.218 217.206C218.281 217.482 218.398 217.738 218.56 217.954C218.722 218.17 218.925 218.34 219.153 218.451C219.389 218.559 219.642 218.611 219.896 218.603H225.996L252.614 218.769L297.677 219.087L328.058 219.364L336.316 219.474H338.461C338.952 219.474 339.192 219.474 339.192 219.474H338.461H336.316H328.058H297.677L252.614 219.308L225.996 219.184H219.896C219.56 219.2 219.225 219.134 218.913 218.99C218.598 218.835 218.317 218.598 218.093 218.299C217.868 217.999 217.706 217.644 217.619 217.261C217.549 216.898 217.525 216.526 217.547 216.155V215.131C217.547 213.748 217.547 212.365 217.547 210.982C217.547 208.216 217.547 205.449 217.547 202.683C217.547 201.3 217.547 199.917 217.547 198.534C217.524 198.165 217.524 197.796 217.547 197.427C217.592 197.02 217.728 196.634 217.942 196.307C218.149 195.973 218.423 195.702 218.74 195.516C219.057 195.331 219.409 195.237 219.764 195.242L320.005 195.878L337.323 196.017H339.192C339.522 196.017 339.846 196.109 340.138 196.285C340.43 196.46 340.681 196.715 340.87 197.026C341.208 197.628 341.344 198.35 341.254 199.059C341.254 199.71 341.254 200.36 341.254 200.982C341.254 203.499 341.254 205.809 341.254 207.898C341.254 212.047 341.17 215.228 341.146 217.441C341.116 217.867 340.982 218.274 340.759 218.614C340.536 218.955 340.234 219.215 339.887 219.364C339.66 219.526 339.399 219.612 339.132 219.613Z" fill="#E0E0E0"/>
<path d="M283.583 203.043H227.207V209.143H283.583V203.043Z" fill="#2E52E8"/>
<path opacity="0.2" d="M283.583 203.043H227.207V209.143H283.583V203.043Z" fill="white"/>
<path d="M248.562 239.086L217.738 238.924L217.712 245.453L248.537 245.614L248.562 239.086Z" fill="#2E52E8"/>
<path opacity="0.1" d="M248.562 239.086L217.738 238.924L217.712 245.453L248.537 245.614L248.562 239.086Z" fill="black"/>
<path d="M338.353 279.17C338.595 279.136 338.835 279.085 339.072 279.018C339.406 278.895 339.714 278.691 339.975 278.419C340.235 278.147 340.442 277.813 340.582 277.441C340.77 276.883 340.844 276.281 340.797 275.685C340.797 275.021 340.797 274.301 340.797 273.499C340.797 271.895 340.797 270.069 340.797 267.967V259.184C340.855 258.548 340.733 257.908 340.45 257.358C340.154 256.794 339.689 256.376 339.144 256.183C338.547 256.06 337.939 256.022 337.334 256.072H320.088L220.195 255.643C219.658 255.645 219.139 255.871 218.736 256.281C218.332 256.69 218.072 257.255 218.002 257.87C218.002 259.184 218.002 260.636 218.002 262.019C218.002 264.786 218.002 267.552 218.002 270.318C218.002 271.701 218.002 273.084 218.002 274.467C217.957 275.114 217.981 275.764 218.074 276.404C218.223 276.965 218.531 277.452 218.949 277.787C219.391 278.111 219.911 278.266 220.435 278.23H222.101H225.564L252.087 278.382L296.993 278.7L327.267 278.976L335.5 279.087H327.267H296.993L252.063 279.032L225.54 278.921H220.327C219.679 278.965 219.035 278.767 218.493 278.354C217.948 277.918 217.55 277.278 217.367 276.542C217.259 275.839 217.227 275.124 217.271 274.412C217.271 273.029 217.271 271.646 217.271 270.263C217.271 267.496 217.271 264.73 217.271 261.964C217.271 260.581 217.271 259.198 217.271 257.815C217.358 257.024 217.693 256.297 218.211 255.77C218.729 255.243 219.396 254.952 220.087 254.952L319.98 255.588L337.226 255.74C337.868 255.694 338.513 255.746 339.144 255.892C339.766 256.127 340.291 256.62 340.618 257.275C340.928 257.884 341.062 258.592 341.001 259.295C341.001 259.945 341.001 260.581 341.001 261.217C341.001 263.721 341.001 266.017 341.001 268.133C341.001 270.249 341.001 272.033 341.001 273.665C341.001 274.454 341.001 275.187 341.001 275.864C341.045 276.483 340.958 277.104 340.75 277.676C340.594 278.058 340.369 278.396 340.09 278.668C339.81 278.941 339.484 279.14 339.132 279.253C338.87 279.278 338.606 279.25 338.353 279.17Z" fill="#E0E0E0"/>
<path d="M248.33 301.228L217.505 301.066L217.48 307.594L248.304 307.756L248.33 301.228Z" fill="#2E52E8"/>
<path opacity="0.1" d="M248.33 301.228L217.505 301.066L217.48 307.594L248.304 307.756L248.33 301.228Z" fill="black"/>
<path d="M338.114 341.286C338.356 341.253 338.596 341.202 338.833 341.134C339.166 341.012 339.473 340.809 339.733 340.54C339.994 340.27 340.201 339.94 340.343 339.571C340.531 339.012 340.604 338.411 340.559 337.815C340.559 337.137 340.559 336.431 340.559 335.615C340.559 334.025 340.559 332.185 340.559 330.083V321.3C340.616 320.664 340.494 320.024 340.211 319.474C339.908 318.921 339.445 318.509 338.905 318.312C338.308 318.185 337.7 318.143 337.095 318.188H319.849L219.956 317.759C219.419 317.761 218.9 317.987 218.497 318.397C218.093 318.806 217.832 319.371 217.763 319.986C217.763 321.369 217.763 322.752 217.763 324.135C217.763 326.902 217.763 329.668 217.763 332.434C217.763 333.817 217.763 335.2 217.763 336.584C217.718 337.225 217.742 337.871 217.835 338.506C217.978 339.07 218.288 339.559 218.71 339.889C219.149 340.221 219.672 340.376 220.196 340.332H225.409L251.931 340.498L296.838 340.816L327.112 341.093L335.345 341.203H327.112H296.838L251.931 341.051L225.409 340.927H220.196C219.547 340.977 218.902 340.778 218.362 340.359C217.817 339.923 217.419 339.283 217.235 338.548C217.128 337.845 217.096 337.129 217.14 336.418C217.14 335.034 217.14 333.651 217.14 332.268C217.14 329.502 217.14 326.736 217.14 323.969C217.14 322.586 217.14 321.203 217.14 319.751C217.224 318.961 217.556 318.234 218.072 317.707C218.589 317.18 219.254 316.889 219.944 316.888L319.837 317.524L337.083 317.676C337.725 317.631 338.37 317.682 339.001 317.828C339.623 318.063 340.148 318.556 340.475 319.211C340.785 319.821 340.919 320.528 340.858 321.231C340.858 321.881 340.858 322.531 340.858 323.153C340.858 325.657 340.858 327.953 340.858 330.069C340.858 332.185 340.858 333.969 340.858 335.602C340.858 336.39 340.858 337.123 340.858 337.801C340.904 338.419 340.818 339.042 340.606 339.613C340.451 339.994 340.226 340.333 339.947 340.605C339.667 340.877 339.341 341.076 338.989 341.189C338.708 341.3 338.408 341.333 338.114 341.286Z" fill="#E0E0E0"/>
<path d="M282.379 264.325L226.004 264.029L225.98 270.129L282.355 270.424L282.379 264.325Z" fill="#2E52E8"/>
<path opacity="0.2" d="M282.379 264.325L226.004 264.029L225.98 270.129L282.355 270.424L282.379 264.325Z" fill="white"/>
<path d="M231.101 330C231.066 330.556 230.89 331.088 230.595 331.53C230.3 331.972 229.899 332.304 229.442 332.486C228.985 332.667 228.492 332.69 228.024 332.551C227.555 332.411 227.133 332.117 226.809 331.703C226.484 331.29 226.272 330.775 226.199 330.224C226.126 329.672 226.194 329.108 226.396 328.601C226.598 328.095 226.924 327.667 227.335 327.372C227.745 327.078 228.221 326.928 228.705 326.943C229.372 326.986 229.998 327.331 230.447 327.903C230.896 328.476 231.131 329.229 231.101 330Z" fill="#2E52E8"/>
<path d="M238.736 330.041C238.76 330.431 238.713 330.823 238.6 331.191C238.487 331.56 238.31 331.897 238.079 332.183C237.848 332.469 237.568 332.697 237.257 332.853C236.947 333.009 236.612 333.089 236.273 333.089C235.934 333.089 235.599 333.009 235.289 332.853C234.978 332.697 234.699 332.469 234.468 332.183C234.237 331.897 234.059 331.56 233.946 331.191C233.833 330.823 233.787 330.431 233.81 330.041C233.787 329.651 233.833 329.26 233.946 328.892C234.059 328.523 234.237 328.186 234.468 327.9C234.699 327.614 234.978 327.386 235.289 327.23C235.599 327.074 235.934 326.994 236.273 326.994C236.612 326.994 236.947 327.074 237.257 327.23C237.568 327.386 237.848 327.614 238.079 327.9C238.31 328.186 238.487 328.523 238.6 328.892C238.713 329.26 238.76 329.651 238.736 330.041Z" fill="#2E52E8"/>
<path d="M246.382 330.083C246.346 330.639 246.17 331.171 245.875 331.613C245.58 332.055 245.179 332.387 244.722 332.569C244.265 332.75 243.772 332.773 243.304 332.634C242.836 332.494 242.413 332.2 242.089 331.786C241.765 331.373 241.553 330.858 241.479 330.307C241.406 329.755 241.474 329.191 241.676 328.684C241.878 328.178 242.205 327.75 242.615 327.455C243.025 327.161 243.502 327.011 243.985 327.026C244.651 327.073 245.276 327.419 245.724 327.99C246.172 328.561 246.408 329.313 246.382 330.083Z" fill="#2E52E8"/>
<path d="M254.016 330.124C253.981 330.681 253.805 331.213 253.51 331.655C253.215 332.097 252.814 332.429 252.357 332.61C251.899 332.792 251.406 332.814 250.938 332.675C250.47 332.536 250.048 332.241 249.723 331.828C249.399 331.414 249.187 330.9 249.114 330.348C249.04 329.797 249.109 329.233 249.311 328.726C249.512 328.219 249.839 327.792 250.249 327.497C250.66 327.202 251.136 327.053 251.619 327.068C252.286 327.114 252.91 327.46 253.358 328.032C253.806 328.603 254.042 329.354 254.016 330.124Z" fill="#2E52E8"/>
<path d="M261.65 330.152C261.617 330.709 261.443 331.243 261.149 331.687C260.855 332.131 260.455 332.465 259.998 332.649C259.541 332.832 259.047 332.856 258.578 332.719C258.109 332.581 257.686 332.287 257.36 331.874C257.035 331.461 256.822 330.946 256.747 330.394C256.673 329.842 256.741 329.278 256.943 328.77C257.145 328.262 257.471 327.834 257.882 327.539C258.293 327.244 258.77 327.094 259.253 327.109C259.918 327.156 260.54 327.5 260.988 328.068C261.436 328.637 261.673 329.384 261.65 330.152Z" fill="#2E52E8"/>
<path d="M269.297 330.194C269.265 330.748 269.092 331.279 268.801 331.722C268.51 332.164 268.114 332.499 267.66 332.685C267.206 332.871 266.715 332.9 266.248 332.768C265.78 332.636 265.356 332.349 265.028 331.942C264.7 331.536 264.482 331.027 264.401 330.48C264.319 329.932 264.379 329.369 264.571 328.86C264.764 328.351 265.081 327.918 265.485 327.614C265.888 327.31 266.359 327.149 266.84 327.151C267.515 327.179 268.153 327.516 268.614 328.086C269.074 328.657 269.32 329.414 269.297 330.194Z" fill="#2E52E8"/>
<path d="M276.931 330.235C276.955 330.625 276.909 331.016 276.796 331.385C276.682 331.753 276.505 332.091 276.274 332.377C276.043 332.663 275.763 332.891 275.453 333.046C275.142 333.202 274.807 333.283 274.468 333.283C274.13 333.283 273.795 333.202 273.484 333.046C273.173 332.891 272.894 332.663 272.663 332.377C272.432 332.091 272.254 331.753 272.141 331.385C272.028 331.016 271.982 330.625 272.006 330.235C271.982 329.845 272.028 329.454 272.141 329.085C272.254 328.717 272.432 328.379 272.663 328.093C272.894 327.808 273.173 327.58 273.484 327.424C273.795 327.268 274.13 327.188 274.468 327.188C274.807 327.188 275.142 327.268 275.453 327.424C275.763 327.58 276.043 327.808 276.274 328.093C276.505 328.379 276.682 328.717 276.796 329.085C276.909 329.454 276.955 329.845 276.931 330.235Z" fill="#2E52E8"/>
<path d="M284.566 330.277C284.534 330.831 284.361 331.362 284.07 331.805C283.779 332.247 283.383 332.582 282.929 332.768C282.475 332.954 281.984 332.983 281.517 332.851C281.049 332.719 280.625 332.432 280.297 332.025C279.969 331.619 279.751 331.111 279.67 330.563C279.588 330.015 279.648 329.452 279.84 328.943C280.033 328.434 280.35 328.001 280.754 327.697C281.157 327.393 281.628 327.232 282.109 327.234C282.784 327.263 283.422 327.599 283.883 328.169C284.343 328.74 284.589 329.497 284.566 330.277Z" fill="#2E52E8"/>
<path d="M292.2 330.318C292.167 330.875 291.993 331.409 291.699 331.853C291.405 332.297 291.005 332.631 290.548 332.814C290.091 332.998 289.597 333.022 289.128 332.885C288.659 332.747 288.236 332.453 287.91 332.04C287.585 331.627 287.371 331.112 287.297 330.56C287.223 330.008 287.291 329.444 287.493 328.936C287.694 328.428 288.021 328 288.432 327.705C288.842 327.41 289.319 327.26 289.803 327.275C290.467 327.322 291.09 327.666 291.538 328.234C291.985 328.803 292.223 329.55 292.2 330.318Z" fill="#2E52E8"/>
<g opacity="0.2">
<path d="M231.101 330C231.066 330.556 230.89 331.088 230.595 331.53C230.3 331.972 229.899 332.304 229.442 332.486C228.985 332.667 228.492 332.69 228.024 332.551C227.555 332.411 227.133 332.117 226.809 331.703C226.484 331.29 226.272 330.775 226.199 330.224C226.126 329.672 226.194 329.108 226.396 328.601C226.598 328.095 226.924 327.667 227.335 327.372C227.745 327.078 228.221 326.928 228.705 326.943C229.372 326.986 229.998 327.331 230.447 327.903C230.896 328.476 231.131 329.229 231.101 330Z" fill="white"/>
<path d="M238.735 330.041C238.759 330.431 238.713 330.823 238.6 331.191C238.487 331.56 238.309 331.897 238.078 332.183C237.847 332.469 237.568 332.697 237.257 332.853C236.946 333.009 236.611 333.089 236.273 333.089C235.934 333.089 235.599 333.009 235.288 332.853C234.978 332.697 234.698 332.469 234.467 332.183C234.236 331.897 234.058 331.56 233.945 331.191C233.832 330.823 233.786 330.431 233.81 330.041C233.786 329.651 233.832 329.26 233.945 328.892C234.058 328.523 234.236 328.186 234.467 327.9C234.698 327.614 234.978 327.386 235.288 327.23C235.599 327.074 235.934 326.994 236.273 326.994C236.611 326.994 236.946 327.074 237.257 327.23C237.568 327.386 237.847 327.614 238.078 327.9C238.309 328.186 238.487 328.523 238.6 328.892C238.713 329.26 238.759 329.651 238.735 330.041Z" fill="white"/>
<path d="M246.382 330.083C246.346 330.639 246.17 331.171 245.875 331.613C245.58 332.055 245.179 332.387 244.722 332.569C244.265 332.75 243.772 332.773 243.304 332.634C242.836 332.494 242.413 332.2 242.089 331.786C241.765 331.373 241.553 330.858 241.479 330.307C241.406 329.755 241.474 329.191 241.676 328.684C241.878 328.178 242.205 327.75 242.615 327.455C243.025 327.161 243.502 327.011 243.985 327.026C244.651 327.073 245.276 327.419 245.724 327.99C246.172 328.561 246.408 329.313 246.382 330.083Z" fill="white"/>
<path d="M254.016 330.124C253.981 330.681 253.805 331.213 253.51 331.655C253.215 332.097 252.814 332.429 252.357 332.61C251.899 332.792 251.406 332.814 250.938 332.675C250.47 332.536 250.048 332.241 249.723 331.828C249.399 331.414 249.187 330.9 249.114 330.348C249.04 329.797 249.109 329.233 249.311 328.726C249.512 328.219 249.839 327.792 250.249 327.497C250.66 327.202 251.136 327.053 251.619 327.068C252.286 327.114 252.91 327.46 253.358 328.032C253.806 328.603 254.042 329.354 254.016 330.124Z" fill="white"/>
<path d="M261.65 330.152C261.617 330.709 261.442 331.243 261.149 331.687C260.855 332.131 260.455 332.465 259.998 332.648C259.541 332.832 259.047 332.856 258.578 332.719C258.109 332.581 257.685 332.287 257.36 331.874C257.034 331.461 256.821 330.946 256.747 330.394C256.673 329.842 256.741 329.278 256.942 328.77C257.144 328.262 257.471 327.834 257.881 327.539C258.292 327.244 258.769 327.094 259.253 327.109C259.917 327.156 260.54 327.5 260.987 328.068C261.435 328.636 261.673 329.384 261.65 330.152Z" fill="white"/>
<path d="M269.297 330.193C269.264 330.748 269.092 331.279 268.801 331.722C268.51 332.164 268.113 332.499 267.659 332.685C267.206 332.871 266.715 332.899 266.247 332.767C265.78 332.636 265.356 332.349 265.027 331.942C264.699 331.536 264.481 331.027 264.4 330.48C264.319 329.932 264.378 329.369 264.571 328.86C264.764 328.351 265.081 327.918 265.484 327.614C265.887 327.31 266.358 327.149 266.84 327.151C267.515 327.179 268.153 327.516 268.613 328.086C269.074 328.657 269.319 329.414 269.297 330.193Z" fill="white"/>
<path d="M276.931 330.235C276.955 330.625 276.909 331.016 276.796 331.385C276.682 331.753 276.505 332.091 276.274 332.377C276.043 332.663 275.763 332.891 275.453 333.046C275.142 333.202 274.807 333.283 274.468 333.283C274.13 333.283 273.795 333.202 273.484 333.046C273.173 332.891 272.894 332.663 272.663 332.377C272.432 332.091 272.254 331.753 272.141 331.385C272.028 331.016 271.982 330.625 272.006 330.235C271.982 329.845 272.028 329.454 272.141 329.085C272.254 328.717 272.432 328.379 272.663 328.093C272.894 327.807 273.173 327.58 273.484 327.424C273.795 327.268 274.13 327.187 274.468 327.187C274.807 327.187 275.142 327.268 275.453 327.424C275.763 327.58 276.043 327.807 276.274 328.093C276.505 328.379 276.682 328.717 276.796 329.085C276.909 329.454 276.955 329.845 276.931 330.235Z" fill="white"/>
<path d="M284.566 330.277C284.533 330.831 284.361 331.362 284.07 331.805C283.779 332.247 283.382 332.582 282.928 332.768C282.475 332.954 281.984 332.983 281.516 332.851C281.049 332.719 280.625 332.432 280.296 332.025C279.968 331.619 279.75 331.11 279.669 330.563C279.588 330.015 279.647 329.452 279.84 328.943C280.033 328.434 280.35 328.001 280.753 327.697C281.156 327.393 281.628 327.232 282.109 327.234C282.784 327.262 283.422 327.599 283.882 328.169C284.343 328.74 284.588 329.497 284.566 330.277Z" fill="white"/>
<path d="M292.2 330.318C292.167 330.875 291.993 331.409 291.699 331.853C291.405 332.296 291.005 332.631 290.548 332.814C290.091 332.998 289.597 333.022 289.128 332.885C288.659 332.747 288.236 332.453 287.91 332.04C287.585 331.627 287.371 331.112 287.297 330.56C287.223 330.008 287.291 329.443 287.493 328.936C287.694 328.428 288.021 328 288.432 327.705C288.842 327.41 289.319 327.26 289.803 327.275C290.467 327.321 291.09 327.666 291.538 328.234C291.985 328.802 292.223 329.55 292.2 330.318Z" fill="white"/>
</g>
<path d="M281.354 130.65C282.186 130.227 282.893 129.531 283.385 128.648C283.877 127.765 284.133 126.734 284.122 125.685C284.153 125.002 284.063 124.32 283.859 123.678C283.654 123.037 283.338 122.451 282.93 121.955C282.523 121.46 282.032 121.065 281.488 120.795C280.944 120.525 280.358 120.386 279.766 120.386C279.174 120.386 278.588 120.525 278.044 120.795C277.5 121.065 277.009 121.46 276.601 121.955C276.194 122.451 275.878 123.037 275.673 123.678C275.468 124.32 275.378 125.002 275.409 125.685C275.391 126.745 275.645 127.788 276.14 128.681C276.635 129.575 277.348 130.279 278.19 130.705C271.478 131.867 271.778 140.277 271.778 140.277L287.646 140.36C287.646 140.36 288.017 131.798 281.354 130.65Z" fill="#2E52E8"/>
<path opacity="0.1" d="M281.354 130.65C282.186 130.227 282.893 129.531 283.385 128.648C283.877 127.765 284.133 126.734 284.122 125.685C284.153 125.002 284.063 124.32 283.859 123.678C283.654 123.037 283.338 122.451 282.93 121.955C282.523 121.46 282.032 121.065 281.488 120.795C280.944 120.525 280.358 120.386 279.766 120.386C279.174 120.386 278.588 120.525 278.044 120.795C277.5 121.065 277.009 121.46 276.601 121.955C276.194 122.451 275.878 123.037 275.673 123.678C275.468 124.32 275.378 125.002 275.409 125.685C275.391 126.745 275.645 127.788 276.14 128.681C276.635 129.575 277.348 130.279 278.19 130.705C271.478 131.867 271.778 140.277 271.778 140.277L287.646 140.36C287.646 140.36 288.017 131.798 281.354 130.65Z" fill="black"/>
<path d="M307.138 145.783L250.583 145.487L250.552 153.288L307.108 153.584L307.138 145.783Z" fill="#2E52E8"/>
<path opacity="0.2" d="M307.138 145.783L250.583 145.487L250.552 153.288L307.108 153.584L307.138 145.783Z" fill="white"/>
<path d="M99.2215 186.21H98.6582L97.0283 186.348C96.1462 186.41 95.2691 186.544 94.4036 186.75C93.843 186.84 93.287 186.965 92.7377 187.123L90.8801 187.718C87.7183 188.837 84.7352 190.542 82.0474 192.766C78.4961 195.741 75.5308 199.55 73.3464 203.942C72.0626 206.474 71.0408 209.171 70.3023 211.978C69.5263 215.029 69.0795 218.178 68.972 221.355C68.9006 223.024 68.9246 224.697 69.0439 226.362C69.0439 227.206 69.2477 228.05 69.3435 228.907C69.4242 229.772 69.5645 230.627 69.763 231.466C70.8407 237.016 73.0274 242.199 76.1486 246.601C79.2698 251.002 83.2392 254.502 87.7401 256.819C90.9977 258.441 94.4892 259.346 98.035 259.488C101.697 259.721 105.363 259.114 108.821 257.704L109.876 257.248H110.02L110.14 257.331L125.252 266.183L124.809 266.625C123.191 260.844 121.633 255.242 120.123 249.862V249.654L120.255 249.502C123.921 245.241 126.642 240.022 128.189 234.288C129.589 229.046 129.998 223.518 129.387 218.077C128.844 213.243 127.497 208.574 125.42 204.329C123.63 200.682 121.321 197.409 118.589 194.647C116.335 192.461 113.841 190.629 111.17 189.198C109.15 188.192 107.045 187.427 104.89 186.916L102.493 186.459L100.756 186.307L99.7009 186.224H99.3413C99.4608 186.209 99.5814 186.209 99.7009 186.224H100.767L102.505 186.307L104.902 186.708C107.084 187.182 109.217 187.92 111.266 188.907C113.982 190.321 116.522 192.149 118.817 194.343C121.598 197.093 123.957 200.366 125.792 204.025C127.927 208.316 129.316 213.047 129.878 217.953C130.54 223.477 130.16 229.101 128.764 234.44C127.208 240.293 124.444 245.623 120.71 249.972L120.782 249.613C122.292 254.993 123.862 260.595 125.492 266.362L125.72 267.206L125.037 266.805L109.924 257.967H110.187L109.109 258.423C105.584 259.855 101.85 260.475 98.1189 260.249C94.4967 260.09 90.9321 259.152 87.6083 257.483C81.268 254.349 75.9929 248.902 72.5914 241.978C71.0261 238.78 69.883 235.33 69.1997 231.743C69.0126 230.882 68.8725 230.009 68.7803 229.129C68.6844 228.257 68.5286 227.4 68.4926 226.542C68.1683 221.621 68.619 216.672 69.8229 211.936C70.5798 209.091 71.63 206.36 72.951 203.804C75.1874 199.371 78.2145 195.539 81.8316 192.559C84.5637 190.329 87.597 188.637 90.8082 187.552L92.6898 186.999C93.2436 186.85 93.8036 186.735 94.3677 186.653C95.2421 186.466 96.1275 186.355 97.0163 186.321L98.6582 186.252C98.8449 186.223 99.0331 186.209 99.2215 186.21Z" fill="#2E52E8"/>
<path d="M106.053 218.465H103.836L99.0421 210.692V205.588C99.0421 205.588 95.6144 205.339 96.0219 212.019C96.4294 218.7 96.0219 216.999 96.0219 216.999C96.0219 216.999 88.7472 216.999 88.1479 217.759C87.5487 218.52 87.5127 226.625 87.4288 231.148C87.3829 232.238 87.654 233.315 88.199 234.207C88.744 235.099 89.5317 235.756 90.437 236.072C90.6908 236.153 90.9527 236.195 91.216 236.196C93.0377 236.196 102.302 234.495 102.302 234.495H106.125L106.053 218.465Z" fill="#2E52E8"/>
<path d="M112.393 217.095L111.027 234.578H107.24V217.455L112.393 217.095Z" fill="#2E52E8"/>
<path d="M158.074 573.491V561.665L139.702 561.513L139.546 579.396L140.684 579.493C145.754 579.867 166.476 580.42 169.879 579.203C173.666 577.847 158.074 573.491 158.074 573.491Z" fill="#2E52E8"/>
<path d="M169.8 577.621C169.8 577.814 162.92 577.98 154.447 577.98C145.974 577.98 139.095 577.814 139.095 577.621C139.095 577.427 145.974 577.261 154.447 577.261C162.92 577.261 169.8 577.427 169.8 577.621Z" fill="#263238"/>
<path d="M157.886 575.436C157.73 575.339 157.886 574.716 158.258 574.053C158.629 573.389 159.133 573.112 159.252 573.25C159.372 573.389 159.121 573.914 158.761 574.481C158.402 575.048 158.042 575.532 157.886 575.436Z" fill="#263238"/>
<path d="M159.062 576.21C158.894 576.21 158.978 575.435 159.337 574.702C159.697 573.969 160.176 573.527 160.308 573.637C160.44 573.748 160.224 574.37 159.888 575.02C159.553 575.671 159.217 576.279 159.062 576.21Z" fill="#263238"/>
<path d="M144.631 577.565C144.559 577.565 144.283 577.317 143.888 576.791C143.405 576.115 142.867 575.495 142.282 574.938C141.706 574.407 141.02 574.059 140.292 573.928C139.729 573.845 139.37 573.928 139.334 573.845C139.298 573.762 139.645 573.471 140.304 573.416C141.174 573.395 142.023 573.728 142.701 574.357C143.337 574.955 143.873 575.681 144.283 576.5C144.559 577.109 144.703 577.51 144.631 577.565Z" fill="#263238"/>
<path d="M157.947 573.209C158.031 573.375 157.719 573.79 157.192 574.011C156.664 574.232 156.197 574.149 156.173 574.011C156.149 573.873 156.521 573.582 156.976 573.388C157.431 573.195 157.851 573.043 157.947 573.209Z" fill="#263238"/>
<path d="M157.659 572.061C157.659 572.268 157.18 572.434 156.557 572.448C155.934 572.462 155.442 572.296 155.454 572.102C155.466 571.909 155.958 571.729 156.557 571.715C157.156 571.701 157.636 571.867 157.659 572.061Z" fill="#263238"/>
<path d="M202.805 573.015V561.189L184.433 561.037L184.277 578.741L185.415 578.838C190.485 579.212 211.219 579.945 214.61 578.727C218.397 577.372 202.805 573.015 202.805 573.015Z" fill="#2E52E8"/>
<path d="M215.042 577.649C215.042 577.842 208.174 578.008 199.689 578.008C191.204 578.008 184.349 577.842 184.349 577.649C184.349 577.455 191.216 577.289 199.689 577.289C208.162 577.289 215.042 577.455 215.042 577.649Z" fill="#263238"/>
<path d="M203.129 575.436C202.985 575.339 203.129 574.716 203.5 574.053C203.872 573.389 204.375 573.112 204.495 573.25C204.615 573.389 204.363 573.914 204.004 574.481C203.644 575.048 203.284 575.532 203.129 575.436Z" fill="#263238"/>
<path d="M204.304 576.21C204.148 576.21 204.22 575.435 204.591 574.702C204.963 573.969 205.43 573.527 205.562 573.637C205.694 573.748 205.466 574.37 205.131 575.02C204.795 575.671 204.472 576.279 204.304 576.21Z" fill="#263238"/>
<path d="M189.874 577.565C189.802 577.565 189.538 577.317 189.13 576.791C188.648 576.115 188.11 575.495 187.525 574.938C186.949 574.407 186.263 574.059 185.535 573.928C184.984 573.845 184.612 573.928 184.576 573.845C184.54 573.762 184.888 573.471 185.547 573.416C186.417 573.395 187.266 573.728 187.944 574.357C188.583 574.951 189.12 575.678 189.526 576.5C189.802 577.109 189.945 577.51 189.874 577.565Z" fill="#263238"/>
<path d="M203.188 573.209C203.272 573.375 202.96 573.79 202.433 574.011C201.906 574.232 201.438 574.149 201.414 574.011C201.39 573.873 201.762 573.582 202.217 573.388C202.673 573.195 203.092 573.043 203.188 573.209Z" fill="#263238"/>
<path d="M202.926 572.061C202.926 572.268 202.446 572.434 201.823 572.448C201.2 572.462 200.721 572.296 200.733 572.102C200.745 571.909 201.224 571.729 201.823 571.715C202.422 571.701 202.926 571.867 202.926 572.061Z" fill="#263238"/>
<path d="M270.496 221.839C270.016 221.272 268.83 221.549 268.83 221.549C268.949 220.753 268.949 219.939 268.83 219.142C268.614 218.368 267.104 218.52 267.104 218.52C267.034 217.868 267.034 217.208 267.104 216.556C267.116 216.411 267.089 216.266 267.027 216.14C266.965 216.014 266.87 215.913 266.756 215.851C266.042 215.514 265.275 215.354 264.503 215.38C263.581 214.62 267.32 208.575 268.71 206.639C270.1 204.703 269.849 203.195 268.614 203.195C267.763 203.195 263.401 209.004 262.058 210.954C260.716 212.904 257.157 218.326 257.037 213.997C256.917 209.668 255.407 206.404 254.46 205.851C253.513 205.297 252.507 206.597 253.022 207.801C253.475 209.168 253.757 210.602 253.861 212.061C253.991 213.223 253.946 214.402 253.729 215.546C253.332 217.676 252.791 219.766 252.111 221.798H252.015C252.015 221.798 225.864 250.747 223.971 252.808C222.281 254.661 188.292 250.608 181.473 249.779C179.156 249.387 176.816 249.202 174.474 249.225C171.514 249.378 170.986 249.862 168.038 249.903C160.592 249.998 153.164 250.752 145.818 252.158C142.492 252.81 139.385 254.505 136.836 257.056C134.287 259.607 132.395 262.917 131.365 266.625C124.497 291.383 108.941 349.986 106.197 382.904C104.123 387.245 102.25 391.709 100.588 396.279C98.6582 402.337 99.1256 402.545 99.7727 402.683C101.523 403.057 103.512 392.185 104.255 394.813C104.998 397.441 100.48 407.773 102.314 408.077C104.71 408.465 106.616 397.012 106.844 396.099C107.071 395.187 108.258 395.477 108.042 396.335C107.695 397.552 104.327 410.456 106.676 410.871C107.97 411.093 108.114 408.368 108.114 408.368C108.114 408.368 110.511 396.016 111.602 396.265C112.692 396.514 111.53 403.803 110.978 406.238C110.427 408.672 111.194 409.903 112.321 409.308C113.088 408.893 114.921 401.494 115.425 399.087C115.928 396.68 117.187 390.014 118.876 393.873C120.566 397.732 123.131 399.972 124.186 400.028C124.423 399.996 124.647 399.883 124.829 399.703C125.01 399.523 125.141 399.285 125.204 399.019C125.268 398.752 125.26 398.47 125.183 398.209C125.106 397.948 124.964 397.719 124.773 397.552C123.866 396.529 123.087 395.366 122.46 394.094C121.901 393.103 121.495 392.008 121.261 390.857C120.778 388.563 120.497 386.218 120.422 383.859L120.231 382.476C122.915 367.137 130.645 322.116 141.803 293.361L146.382 304.232L148.371 312.282L136.17 347.04L188.208 346.252L180.442 311.756L189.874 275.795C200.073 276.058 226.26 276.501 230.622 274.218C236.111 271.452 264.503 230.069 264.503 230.069C266.354 228.409 268.126 226.636 269.813 224.758C269.813 224.758 271.538 223.084 270.496 221.839Z" fill="#FFBE9D"/>
<path d="M133.881 321.355C135.391 315.408 143.145 286.003 143.145 286.003C143.145 286.003 146.956 309.972 145.95 312.863C145.024 315.338 143.93 317.724 142.678 320C133.881 335.45 135.032 343.181 135.032 343.181L188.184 341.314C188.304 332.739 183.905 312.794 182.995 309.613C182.084 306.432 185.116 296.017 185.116 296.017C185.116 296.017 191.108 288.976 190.892 285.353C190.779 282.098 190.43 278.859 189.85 275.671L222.209 277.054L221.19 251.743L174.713 246.376C173.095 251.646 158.462 249.059 158.462 249.059C142.666 249.668 141.683 253.015 135.116 258.907C128.548 264.799 117.678 315.367 117.678 315.367L133.881 321.355Z" fill="#2E52E8"/>
<path d="M165.304 315.367C164.383 315.556 163.445 315.612 162.512 315.532C160.774 315.532 158.389 315.394 155.764 315.09C153.14 314.786 150.767 314.357 149.077 313.97C148.145 313.831 147.232 313.562 146.356 313.167C147.293 313.168 148.228 313.27 149.149 313.472C150.851 313.721 153.212 314.066 155.824 314.371C158.437 314.675 160.81 314.882 162.524 315.021C163.458 315.034 164.389 315.15 165.304 315.367Z" fill="#263238"/>
<path d="M168.948 310.152C168.027 310.673 167.053 311.059 166.048 311.3C161.267 312.75 156.334 313.425 151.391 313.306C150.368 313.344 149.345 313.233 148.347 312.974C149.356 312.827 150.374 312.767 151.391 312.794C153.272 312.725 155.861 312.573 158.713 312.185C161.566 311.798 164.107 311.245 165.904 310.802C166.903 310.495 167.921 310.277 168.948 310.152Z" fill="#263238"/>
<path d="M186.83 286.888C186.806 287.943 186.681 288.991 186.458 290.014C186.147 291.936 185.667 294.564 185.056 297.441C184.445 300.318 183.858 302.974 183.33 304.772C183.118 305.801 182.805 306.799 182.396 307.746C182.462 306.694 182.631 305.655 182.899 304.647C183.354 302.49 183.87 300 184.445 297.275C185.02 294.551 185.571 292.061 186.027 289.903C186.189 288.865 186.459 287.852 186.83 286.888Z" fill="#263238"/>
<path d="M134.444 317.828C131.672 317.334 128.935 316.599 126.259 315.629C123.524 314.891 120.84 313.92 118.229 312.725C121 313.227 123.736 313.962 126.415 314.924C129.15 315.659 131.834 316.63 134.444 317.828Z" fill="#263238"/>
<path d="M190.426 275.366C189.973 275.456 189.511 275.456 189.059 275.366C187.807 275.218 186.578 274.879 185.404 274.357C183.443 273.507 181.659 272.192 180.164 270.499C178.67 268.805 177.499 266.77 176.727 264.523C175.874 262.051 175.509 259.391 175.66 256.736C175.714 254.546 176.281 252.414 177.302 250.567C178.02 249.323 179.093 248.408 180.334 247.981C180.666 247.875 181.009 247.824 181.353 247.828C181.593 247.828 181.713 247.828 181.713 247.828C181.713 247.828 181.209 247.828 180.406 248.202C179.267 248.687 178.302 249.598 177.662 250.788C176.032 253.748 175.576 259.156 177.314 264.205C178.123 266.585 179.389 268.723 181.017 270.456C182.352 271.875 183.888 273.017 185.56 273.831C187.128 274.547 188.76 275.061 190.426 275.366Z" fill="#263238"/>
<path d="M218.361 276.556C218.061 272.315 217.965 268.057 218.073 263.804C217.979 259.554 218.091 255.301 218.409 251.065C218.709 255.302 218.805 259.555 218.696 263.804C218.797 268.058 218.685 272.316 218.361 276.556Z" fill="#263238"/>
<path d="M174.401 247.925C174.533 244.841 174.809 241.355 174.809 241.355C174.809 241.355 181.425 240.512 181.82 232.628C182.215 224.744 181.82 206.556 181.82 206.556L169.835 199.474L156.532 211.549L158.582 250.968L170.782 251.867C171.715 251.897 172.619 251.499 173.298 250.76C173.976 250.021 174.373 249.001 174.401 247.925Z" fill="#FFBE9D"/>
<path d="M175.588 226.39C175.588 226.39 175.588 226.542 175.48 226.722C175.391 226.852 175.276 226.956 175.144 227.023C175.013 227.091 174.869 227.12 174.725 227.109C173.958 227.109 173.215 226.086 172.951 224.896C172.826 224.32 172.826 223.716 172.951 223.14C172.976 222.888 173.055 222.647 173.18 222.44C173.306 222.232 173.474 222.064 173.67 221.95C173.832 221.873 174.013 221.873 174.174 221.95C174.293 222.019 174.39 222.13 174.45 222.268C174.533 222.503 174.45 222.656 174.45 222.642C174.45 222.628 174.449 222.503 174.33 222.365C174.267 222.266 174.175 222.197 174.071 222.172C173.967 222.146 173.859 222.166 173.766 222.227C173.619 222.329 173.497 222.473 173.411 222.645C173.325 222.817 173.278 223.011 173.275 223.209C173.174 223.723 173.174 224.257 173.275 224.772C173.515 225.851 174.162 226.722 174.737 226.805C174.85 226.823 174.964 226.813 175.073 226.778C175.183 226.742 175.284 226.681 175.372 226.598C175.516 226.487 175.564 226.376 175.588 226.39Z" fill="#EB996E"/>
<path d="M185.93 202.296C185.008 198.672 181.664 196.874 178.62 195.878C173.982 194.357 168.972 193.693 164.442 195.616C159.912 197.538 154.471 200.913 154.471 206.681C151.798 206.432 150.264 209.129 149.209 212.476C148.535 214.515 148.131 216.66 148.011 218.838C147.675 226.39 145.842 236.819 141.599 242.351C139.202 245.436 135.882 247.566 134.516 251.411C133.317 254.744 133.941 258.7 132.826 262.075C131.831 265.049 129.638 267.165 128.032 269.751C126.396 272.685 125.433 276.051 125.234 279.533C125.035 283.015 125.606 286.497 126.894 289.654C128.191 292.73 130.017 295.469 132.26 297.704C134.504 299.94 137.119 301.624 139.945 302.656C145.543 304.621 151.513 304.688 157.143 302.849C161.369 301.683 165.31 299.428 168.672 296.252C172.112 293.01 174.475 288.495 175.36 283.472C176.211 277.829 174.845 272.089 173.826 266.473C170.638 248.728 171.549 247.801 175.576 231.328C175.671 231.037 175.719 230.733 175.791 230.443C175.863 230.152 175.899 230.014 175.947 229.793C176.062 229.141 176.122 228.479 176.127 227.815C175.539 228.067 174.9 228.121 174.287 227.969C173.673 227.817 173.11 227.466 172.663 226.957C172.216 226.415 171.903 225.743 171.76 225.012C171.616 224.282 171.647 223.52 171.848 222.808C172.131 222.029 172.552 221.327 173.085 220.748C173.618 220.169 174.25 219.726 174.94 219.447C176.271 218.811 177.697 218.479 179.003 217.773C181.772 216.252 183.689 213.098 184.996 209.793C186.07 207.502 186.401 204.844 185.93 202.296Z" fill="#263238"/>
<path d="M176.067 226.764C176.32 227.195 176.529 227.659 176.69 228.147C177.049 229.018 177.529 230.249 178.056 231.674L178.152 231.936H177.9L176.702 232.061C175.875 232.061 175.18 232.241 174.365 232.227C174.294 232.208 174.228 232.17 174.174 232.114C174.119 232.058 174.078 231.988 174.053 231.909C174.017 231.783 174.017 231.647 174.053 231.522C174.081 231.335 174.117 231.15 174.161 230.968L174.377 229.986C174.485 229.331 174.654 228.691 174.88 228.078C174.858 228.745 174.773 229.408 174.628 230.055L174.461 231.037C174.401 231.369 174.293 231.881 174.461 231.84C175.06 231.84 175.911 231.687 176.702 231.632L177.9 231.508L177.744 231.812C177.229 230.429 176.798 229.129 176.546 228.23C176.325 227.77 176.164 227.277 176.067 226.764Z" fill="#4A249D"/>
<path d="M135.031 343.181L188.184 341.314L211.314 445.519L207.06 565.048H178.955L182.395 448.064L161.841 375.519L165.005 569.682L136.601 570.166L133.617 387.662C133.485 382.586 132.047 371.148 132.586 366.113L135.031 343.181Z" fill="#263238"/>
<path d="M168.912 376.999C168.042 377.062 167.169 377.001 166.312 376.819C164.706 376.598 162.513 376.21 160.104 375.657C157.695 375.104 155.537 374.468 153.979 373.956C153.147 373.745 152.341 373.41 151.583 372.96C151.583 372.752 155.49 373.831 160.283 374.952C165.077 376.072 168.936 376.791 168.912 376.999Z" fill="#455A64"/>
<path d="M206.772 558.492C206.772 558.686 200.408 558.852 192.558 558.852C184.708 558.852 178.333 558.686 178.333 558.492C178.333 558.299 184.696 558.133 192.558 558.133C200.42 558.133 206.772 558.285 206.772 558.492Z" fill="#455A64"/>
<path d="M164.754 564.633C164.754 564.841 158.57 564.993 150.947 564.993C143.325 564.993 137.153 564.841 137.153 564.633C137.153 564.426 143.337 564.274 150.947 564.274C158.558 564.274 164.754 564.44 164.754 564.633Z" fill="#455A64"/>
<path d="M161.086 565.136C160.918 565.136 160.175 522.715 159.42 470.391C158.665 418.068 158.222 375.62 158.378 375.62C158.534 375.62 159.301 418.026 160.044 470.378C160.787 522.729 161.266 565.136 161.086 565.136Z" fill="#455A64"/>
<path d="M202.997 558.492C202.984 558.303 202.984 558.114 202.997 557.925V556.265C202.997 554.772 203.093 552.628 203.165 549.903C203.333 544.371 203.572 536.335 203.872 526.487C204.519 506.68 205.43 479.377 206.425 449.239C206.425 448.949 206.425 448.672 206.425 448.423V448.52C200.133 419.474 194.44 393.112 190.305 374.039L185.511 351.48C184.96 348.838 184.541 346.777 184.241 345.339C184.097 344.661 184.001 344.135 183.917 343.734C183.871 343.554 183.843 343.369 183.833 343.181C183.896 343.355 183.944 343.536 183.977 343.72C184.073 344.108 184.193 344.633 184.361 345.297C184.684 346.68 185.152 348.783 185.751 351.411C186.95 356.75 188.639 364.44 190.749 373.914C194.919 392.974 200.672 419.267 207.048 448.354V448.451C207.048 448.7 207.048 448.99 207.048 449.267C205.981 479.405 205.01 506.694 204.303 526.501C203.932 536.362 203.62 544.343 203.405 549.903C203.285 552.669 203.189 554.772 203.129 556.265C203.129 556.971 203.057 557.524 203.045 557.925C203.047 558.116 203.031 558.306 202.997 558.492Z" fill="#455A64"/>
<path d="M193.828 445.989C191.81 446.755 189.73 447.288 187.62 447.579C185.031 448.091 182.826 448.451 181.831 448.506V448.229C182.155 448.34 182.323 448.409 182.323 448.465C182.323 448.52 182.119 448.465 181.784 448.465H181.064L181.784 448.216C182.718 447.898 184.924 447.372 187.512 446.833C189.588 446.313 191.704 446.03 193.828 445.989Z" fill="#455A64"/>
<path d="M193.338 449.958C191.468 450.057 189.595 449.96 187.741 449.668C185.869 449.624 184.004 449.388 182.168 448.963C185.913 448.61 189.684 448.946 193.338 449.958Z" fill="#455A64"/>
<path opacity="0.2" d="M134.804 345.38C135.433 346.313 136.226 347.082 137.131 347.638C138.035 348.193 139.031 348.522 140.053 348.603C142.194 348.896 144.359 348.849 146.489 348.465C160.211 346.708 174.749 345.09 188.184 341.314C170.794 342.434 152.421 342.061 135.031 343.181L134.852 344.896" fill="black"/>
<g opacity="0.2">
<path d="M152.721 373.665L162.525 417.566L161.842 375.519L152.721 373.665Z" fill="black"/>
</g>
</svg>
