<svg width="36" height="31" viewBox="0 0 36 31" fill="none" xmlns="http://www.w3.org/2000/svg">
<path d="M21.4163 10.0109C21.1042 10.0109 20.8506 9.75763 20.8506 9.44521V8.48389C20.8506 8.17186 21.1038 7.91821 21.4163 7.91821C21.7283 7.91821 21.9819 8.17146 21.9819 8.48389V9.44521C21.9819 9.75763 21.7283 10.0109 21.4163 10.0109Z" fill="#2E52E8"/>
<path d="M19.0378 10.0109C18.7258 10.0109 18.4722 9.75763 18.4722 9.44521V8.48389C18.4722 8.17186 18.7254 7.91821 19.0378 7.91821C19.3499 7.91821 19.6035 8.17146 19.6035 8.48389V9.44521C19.6031 9.75763 19.3503 10.0109 19.0378 10.0109Z" fill="#2E52E8"/>
<path d="M16.6599 10.0109C16.3479 10.0109 16.0942 9.75763 16.0942 9.44521V8.48389C16.0942 8.17186 16.3475 7.91821 16.6599 7.91821C16.9719 7.91821 17.2256 8.17146 17.2256 8.48389V9.44521C17.2256 9.75763 16.9723 10.0109 16.6599 10.0109Z" fill="#2E52E8"/>
<path d="M21.4163 13.9421C21.1042 13.9421 20.8506 13.6889 20.8506 13.3765V12.4155C20.8506 12.1035 21.1038 11.8499 21.4163 11.8499C21.7283 11.8499 21.9819 12.1031 21.9819 12.4155V13.3765C21.9819 13.6889 21.7283 13.9421 21.4163 13.9421Z" fill="#2E52E8"/>
<path d="M19.0378 13.9421C18.7258 13.9421 18.4722 13.6889 18.4722 13.3765V12.4155C18.4722 12.1035 18.7254 11.8499 19.0378 11.8499C19.3499 11.8499 19.6035 12.1031 19.6035 12.4155V13.3765C19.6031 13.6889 19.3503 13.9421 19.0378 13.9421Z" fill="#2E52E8"/>
<path d="M16.6599 13.9421C16.3479 13.9421 16.0942 13.6889 16.0942 13.3765V12.4155C16.0942 12.1035 16.3475 11.8499 16.6599 11.8499C16.9719 11.8499 17.2256 12.1031 17.2256 12.4155V13.3765C17.2256 13.6889 16.9723 13.9421 16.6599 13.9421Z" fill="#2E52E8"/>
<path d="M21.4163 17.8734C21.1042 17.8734 20.8506 17.6202 20.8506 17.3078V16.3464C20.8506 16.0344 21.1038 15.7808 21.4163 15.7808C21.7283 15.7808 21.9819 16.034 21.9819 16.3464V17.3078C21.9819 17.6202 21.7283 17.8734 21.4163 17.8734Z" fill="#2E52E8"/>
<path d="M19.0378 17.8734C18.7258 17.8734 18.4722 17.6202 18.4722 17.3078V16.3464C18.4722 16.0344 18.7254 15.7808 19.0378 15.7808C19.3499 15.7808 19.6035 16.034 19.6035 16.3464V17.3078C19.6031 17.6202 19.3503 17.8734 19.0378 17.8734Z" fill="#2E52E8"/>
<path d="M16.6599 17.8734C16.3479 17.8734 16.0942 17.6202 16.0942 17.3078V16.3464C16.0942 16.0344 16.3475 15.7808 16.6599 15.7808C16.9719 15.7808 17.2256 16.034 17.2256 16.3464V17.3078C17.2256 17.6202 16.9723 17.8734 16.6599 17.8734Z" fill="#2E52E8"/>
<path d="M21.4163 21.8039C21.1042 21.8039 20.8506 21.5506 20.8506 21.2382V20.2769C20.8506 19.9648 21.1038 19.7112 21.4163 19.7112C21.7283 19.7112 21.9819 19.9644 21.9819 20.2769V21.2382C21.9819 21.5506 21.7283 21.8039 21.4163 21.8039Z" fill="#2E52E8"/>
<path d="M19.0378 21.8039C18.7258 21.8039 18.4722 21.5506 18.4722 21.2382V20.2769C18.4722 19.9648 18.7254 19.7112 19.0378 19.7112C19.3499 19.7112 19.6035 19.9644 19.6035 20.2769V21.2382C19.6031 21.5506 19.3503 21.8039 19.0378 21.8039Z" fill="#2E52E8"/>
<path d="M16.6599 21.8039C16.3479 21.8039 16.0942 21.5506 16.0942 21.2382V20.2769C16.0942 19.9648 16.3475 19.7112 16.6599 19.7112C16.9719 19.7112 17.2256 19.9644 17.2256 20.2769V21.2382C17.2256 21.5506 16.9723 21.8039 16.6599 21.8039Z" fill="#2E52E8"/>
<path d="M21.4163 25.7349C21.1042 25.7349 20.8506 25.4816 20.8506 25.1692V24.2083C20.8506 23.8962 21.1038 23.6426 21.4163 23.6426C21.7283 23.6426 21.9819 23.8958 21.9819 24.2083V25.1692C21.9819 25.4812 21.7283 25.7349 21.4163 25.7349Z" fill="#2E52E8"/>
<path d="M19.0378 25.7349C18.7258 25.7349 18.4722 25.4816 18.4722 25.1692V24.2083C18.4722 23.8962 18.7254 23.6426 19.0378 23.6426C19.3499 23.6426 19.6035 23.8958 19.6035 24.2083V25.1692C19.6031 25.4812 19.3503 25.7349 19.0378 25.7349Z" fill="#2E52E8"/>
<path d="M16.6599 25.7349C16.3479 25.7349 16.0942 25.4816 16.0942 25.1692L16.0946 24.2083C16.0946 23.8962 16.3479 23.6426 16.6603 23.6426C16.9723 23.6426 17.226 23.8958 17.226 24.2083V25.1692C17.2256 25.4812 16.9723 25.7349 16.6599 25.7349Z" fill="#2E52E8"/>
<path d="M0.000474596 29.6471C0.000474596 29.9592 0.253724 30.2128 0.566149 30.2128H35.0139C35.3259 30.2128 35.5796 29.9596 35.5796 29.6471C35.5796 29.3351 35.3263 29.0815 35.0139 29.0815H33.9682V12.8402C33.9682 12.5281 33.715 12.2745 33.4025 12.2745L24.1668 12.2749V0.565762C24.1668 0.367742 24.0635 0.184709 23.8946 0.0821389C23.7262 -0.0208145 23.5156 -0.0271258 23.3404 0.0639933L12.8401 5.53098C12.6527 5.62841 12.5359 5.8217 12.5359 6.03275V16.2604H2.37388C2.06186 16.2604 1.8082 16.5137 1.8082 16.8261V29.0816H0.564887C0.252866 29.0812 0 29.3344 0 29.6468L0.000474596 29.6471ZM24.167 20.8422H32.8374V29.0819L24.167 29.0815V20.8422ZM24.167 16.9113H32.8374V19.7113L24.167 19.7109V16.9113ZM24.167 13.4056H32.8374V15.7808H24.167V13.4056ZM13.6667 6.37622L23.0353 1.49818V29.081H13.6667V6.37622ZM5.73588 24.5635C5.73588 23.3895 6.66603 22.4341 7.80959 22.4341C8.95314 22.4341 9.88371 23.3891 9.88371 24.5635V29.0817H5.73588V24.5635ZM2.93952 17.3916H12.5358V29.0815H11.015V24.5633C11.015 22.7657 9.57762 21.303 7.80959 21.303C6.04236 21.303 4.60495 22.7653 4.60495 24.5633V29.0815H2.93952V17.3916Z" fill="#2E52E8"/>
</svg>
