<?xml version="1.0" standalone="no"?>
<!DOCTYPE svg PUBLIC "-//W3C//DTD SVG 20010904//EN"
 "http://www.w3.org/TR/2001/REC-SVG-20010904/DTD/svg10.dtd">
<svg version="1.0" xmlns="http://www.w3.org/2000/svg"
 width="672.000000pt" height="672.000000pt" viewBox="0 0 672.000000 672.000000"
 preserveAspectRatio="xMidYMid meet">
<metadata>
Created by potrace 1.14, written by Peter Selinger 2001-2017
</metadata>
<g transform="translate(0.000000,672.000000) scale(0.100000,-0.100000)"
fill="#000000" stroke="none">
<path d="M3650 6548 c-3 -86 -1 -2971 2 -2973 4 -4 72 28 360 168 97 48 187
91 200 97 13 5 30 14 38 19 17 11 252 125 260 127 3 0 111 52 240 116 224 110
346 170 860 420 124 61 284 139 356 174 72 35 136 64 142 64 7 0 12 5 12 10 0
6 5 10 10 10 6 0 124 55 263 123 138 68 267 130 285 138 17 7 32 17 32 21 0 4
-51 32 -112 61 -62 30 -210 102 -328 160 -118 57 -298 145 -400 194 -102 50
-277 136 -390 190 -225 110 -461 225 -818 399 -129 63 -237 114 -242 114 -4 0
-13 7 -20 15 -7 9 -15 13 -17 11 -3 -2 -43 15 -90 40 -47 24 -92 44 -99 44 -8
0 -14 5 -14 10 0 6 -4 10 -9 10 -7 0 -437 206 -503 241 -13 7 -18 6 -18 -3z"/>
<path d="M2982 6515 c-35 -19 -72 -37 -84 -41 -12 -3 -26 -10 -32 -15 -6 -5
-129 -68 -273 -140 -145 -72 -264 -134 -264 -137 -1 -4 -3 -107 -4 -229 -1
-122 -5 -229 -8 -237 -4 -9 -2 -18 4 -21 5 -4 7 -10 4 -15 -3 -5 -8 -276 -11
-602 -3 -326 -6 -713 -8 -860 l-2 -266 380 -191 c209 -105 381 -189 383 -187
2 2 5 672 6 1490 2 1315 0 1486 -13 1486 -8 -1 -43 -16 -78 -35z"/>
<path d="M1795 5880 c-55 -27 -104 -50 -109 -50 -5 0 -17 -7 -27 -16 -9 -8
-23 -17 -31 -18 -7 -1 -98 -44 -203 -95 -104 -51 -209 -102 -232 -113 l-41
-19 0 -558 0 -557 86 -41 c84 -40 410 -198 581 -282 46 -22 88 -41 92 -41 4 0
8 25 8 55 0 30 2 59 5 64 4 5 2 12 -4 16 -6 4 -8 10 -5 15 5 8 9 202 4 225 -1
6 -1 14 0 18 1 8 1 79 1 300 -1 43 2 82 5 87 3 6 2 10 -3 10 -5 0 -6 17 -2 40
4 22 4 40 0 40 -4 0 -4 18 0 40 4 22 4 40 0 40 -4 0 -4 18 0 40 4 22 4 40 0
40 -4 0 -4 18 0 40 4 22 4 40 0 40 -4 0 -4 18 0 40 4 22 4 40 0 40 -4 0 -4 18
0 40 4 23 3 40 -2 40 -5 0 -6 5 -3 10 4 6 6 57 5 113 -1 56 0 116 0 132 1 17
2 36 1 43 -2 23 -2 37 -2 97 0 33 0 67 -1 75 0 8 1 20 2 25 7 27 -1 75 -12 75
-7 -1 -58 -23 -113 -50z"/>
<path d="M735 5307 c-19 -11 -228 -110 -345 -164 -30 -14 -100 -47 -155 -72
-55 -26 -128 -61 -163 -77 -34 -16 -62 -32 -62 -35 0 -5 111 -60 130 -64 3 -1
55 -25 115 -54 61 -29 137 -66 170 -81 33 -15 114 -54 180 -85 66 -31 130 -61
142 -65 l21 -9 1 354 c0 195 -3 356 -7 359 -4 2 -16 -1 -27 -7z"/>
<path d="M0 3187 l0 -1513 88 -44 c48 -24 89 -44 92 -45 3 0 140 -68 305 -149
165 -82 467 -231 670 -331 204 -100 532 -262 730 -360 198 -98 511 -252 695
-342 184 -91 370 -183 413 -204 l77 -38 0 47 c1 26 1 706 2 1512 l0 1465 -183
92 c-168 84 -364 181 -1424 703 -192 95 -505 249 -695 343 -190 94 -347 171
-350 172 -3 1 -92 45 -198 97 -107 53 -200 99 -208 102 -12 5 -14 -209 -14
-1507z"/>
<path d="M6512 4600 c-111 -55 -205 -100 -210 -101 -4 0 -15 -8 -24 -16 -10
-9 -18 -12 -18 -8 0 4 -8 1 -17 -7 -10 -9 -27 -18 -39 -22 -11 -3 -72 -33
-135 -65 l-114 -58 -2 -1512 c-1 -831 1 -1511 3 -1511 3 0 107 50 232 112 125
62 229 113 232 113 3 0 16 7 30 15 14 7 66 33 115 57 50 24 105 51 123 61 l32
17 0 1512 c0 832 -1 1513 -2 1513 -2 0 -94 -45 -206 -100z"/>
<path d="M5308 3955 c-135 -68 -249 -121 -252 -117 -3 3 -6 1 -6 -4 0 -5 -56
-36 -124 -69 -69 -33 -126 -67 -128 -75 -2 -8 -1 -31 2 -50 3 -19 3 -55 0 -80
-3 -25 -3 -61 0 -80 3 -19 3 -49 -1 -67 -4 -18 -4 -34 -2 -37 8 -7 9 -96 2
-96 -3 0 -3 -19 1 -43 3 -24 3 -54 0 -68 -4 -13 -4 -33 0 -43 4 -11 4 -36 1
-55 -4 -20 -4 -52 -1 -71 3 -19 3 -55 0 -80 -3 -25 -3 -61 0 -80 3 -19 3 -49
-1 -67 -4 -18 -4 -34 -2 -37 8 -7 9 -96 2 -96 -3 0 -3 -19 1 -43 3 -24 3 -54
0 -68 -4 -13 -4 -33 0 -43 4 -11 4 -36 1 -55 -4 -20 -4 -52 -1 -71 3 -19 3
-55 0 -80 -3 -25 -3 -61 0 -80 3 -19 3 -49 -1 -67 -4 -18 -4 -34 -2 -37 8 -7
9 -96 2 -96 -3 0 -3 -19 1 -43 3 -24 3 -54 0 -68 -4 -13 -4 -33 0 -43 4 -11 4
-36 1 -55 -4 -20 -4 -52 -1 -71 3 -19 3 -73 0 -120 -3 -47 -3 -101 0 -120 3
-19 3 -46 -1 -60 -3 -14 -3 -34 1 -45 4 -11 4 -31 1 -44 -4 -13 -4 -48 -1 -77
3 -30 3 -54 0 -54 -4 0 -4 -19 -1 -43 4 -23 4 -58 1 -77 -3 -19 -3 -54 1 -78
3 -24 3 -61 -1 -83 -4 -22 -4 -42 0 -44 4 -3 4 -21 0 -40 -4 -20 -4 -38 1 -41
5 -3 7 -10 4 -15 -7 -11 -9 -88 -3 -95 3 -2 32 9 64 25 32 16 64 30 69 31 6 1
18 9 29 18 10 9 20 16 22 14 2 -1 134 62 293 140 l289 142 0 1508 c0 829 -3
1510 -6 1512 -4 2 -118 -52 -254 -119z"/>
<path d="M4400 3562 c0 -7 -4 -12 -9 -12 -5 0 -174 -81 -375 -181 -313 -154
-366 -184 -366 -202 -1 -26 -1 -2915 0 -2969 l0 -37 60 28 c33 16 67 34 75 41
8 6 20 13 27 15 37 9 58 18 58 26 0 5 3 8 8 7 9 -2 225 102 232 112 3 5 14 10
25 12 11 1 22 5 25 8 3 3 61 33 130 67 l125 61 0 1510 c0 831 -3 1514 -7 1518
-5 4 -8 2 -8 -4z"/>
</g>
</svg>
