<svg width="54" height="29" viewBox="0 0 54 29" fill="none" xmlns="http://www.w3.org/2000/svg">
<path d="M47.4029 8.09622C47.0364 7.94513 46.5957 7.97221 46.262 8.16641L27.2724 19.2155L15.0428 9.96169C14.6272 9.64735 13.9825 9.64205 13.559 9.94931L3.36292 17.3501C3.13198 17.5179 3 17.7567 3 18.0073V28.1151C3 28.6034 3.49093 28.9993 4.09643 28.9993H46.9036C47.5091 28.9993 48 28.6034 48 28.1151V8.88339C48 8.55137 47.7693 8.24742 47.4029 8.09622ZM7.81359 27.2308H5.19286V18.401L7.81359 16.4987V27.2308ZM12.5471 27.2308H10.0064V14.9071L12.5471 13.063V27.2308ZM17.2806 27.2308H14.7399V12.1575L17.2806 14.0799V27.2308ZM22.0141 27.2308H19.4734V15.7391L22.0141 17.6616V27.2308ZM26.7966 27.2308H24.207V19.321L26.4309 21.0039C26.5393 21.0858 26.6642 21.1462 26.7965 21.1862L26.7966 27.2308ZM31.5791 27.2308H28.9893V20.3972L31.5791 18.8903V27.2308ZM36.3617 27.2308H33.7719V17.6143L36.3616 16.1075V27.2308H36.3617ZM41.1442 27.2308H38.5544V14.8316L41.1442 13.3247V27.2308ZM45.8071 27.2308H43.3372V12.0489L45.8071 10.6117V27.2308Z" fill="#2E52E8"/>
<path d="M53.8218 0.378292C53.6209 0.134503 53.2766 -0.00804701 52.9195 -0.0004428L45.8392 0.154819C45.3545 0.165488 44.9414 0.443892 44.8391 0.829096C44.7369 1.21441 44.9718 1.60654 45.4081 1.7786L47.0625 2.4312L27.5076 13.7623L14.1827 3.94444C13.521 3.45686 12.5131 3.45391 11.8472 3.9374L0.582795 12.1142C-0.13632 12.6362 -0.198469 13.533 0.443832 14.1173C1.08599 14.7015 2.18945 14.7522 2.90871 14.2302L13.0013 6.90406L26.2039 16.6317C26.5347 16.8753 26.9547 16.9993 27.3768 16.9993C27.7304 16.9993 28.0854 16.9122 28.39 16.7357L48.9959 4.79588L49.0938 6.05273C49.1245 6.44588 49.4816 6.77104 49.9587 6.84028C50.0207 6.84924 50.0828 6.85367 50.1441 6.85367C50.5545 6.85367 50.9349 6.658 51.1057 6.34487L53.9097 1.20045C54.056 0.932264 54.0229 0.621967 53.8218 0.378292Z" fill="#2E52E8"/>
</svg>
