<svg width="16" height="15" viewBox="0 0 16 15" fill="none" xmlns="http://www.w3.org/2000/svg">
<path fill-rule="evenodd" clip-rule="evenodd" d="M13.2894 2.18C11.8856 0.775 10.0194 0.000625 8.03127 0C3.93439 0 0.60002 3.33375 0.598145 7.4325C0.59752 8.7425 0.94002 10.0212 1.59064 11.1487L0.535645 15L4.47564 13.9663C5.56127 14.5588 6.78377 14.8706 8.02752 14.8713H8.03065C12.1269 14.8713 15.4619 11.5369 15.4638 7.43813C15.465 5.4525 14.6925 3.58437 13.2894 2.18ZM8.03127 13.6156H8.02877C6.92002 13.6156 5.83314 13.3175 4.88439 12.7544L4.65877 12.6206L2.32064 13.2337L2.94502 10.9537L2.79814 10.72C2.17939 9.73625 1.85314 8.59938 1.85377 7.4325C1.85502 4.02625 4.62689 1.255 8.0344 1.255C9.6844 1.255 11.2356 1.89875 12.4019 3.06625C13.5681 4.23438 14.21 5.78625 14.2094 7.43688C14.2075 10.8444 11.4363 13.6156 8.03127 13.6156ZM11.42 8.98875C11.2344 8.89562 10.3213 8.44625 10.1506 8.38437C9.98065 8.3225 9.8569 8.29125 9.73252 8.47687C9.60815 8.6625 9.25315 9.08125 9.1444 9.20563C9.03627 9.32938 8.92752 9.345 8.7419 9.25188C8.55627 9.15875 7.95752 8.96313 7.24815 8.33C6.69627 7.8375 6.32315 7.22938 6.21502 7.04313C6.1069 6.85688 6.20377 6.75688 6.29627 6.66438C6.38002 6.58125 6.4819 6.4475 6.57502 6.33875C6.66877 6.23125 6.6994 6.15375 6.7619 6.02938C6.82377 5.90563 6.79315 5.79688 6.74627 5.70375C6.6994 5.61125 6.32815 4.69688 6.17377 4.325C6.02314 3.9625 5.87002 4.01187 5.75565 4.00625C5.64752 4.00062 5.52377 4 5.3994 4C5.27565 4 5.07439 4.04625 4.90439 4.2325C4.73439 4.41875 4.25439 4.86813 4.25439 5.78188C4.25439 6.69625 4.92002 7.57937 5.01252 7.70312C5.10502 7.82687 6.32189 9.70313 8.18502 10.5075C8.62814 10.6988 8.9744 10.8131 9.24377 10.8987C9.68877 11.04 10.0938 11.02 10.4138 10.9725C10.7706 10.9194 11.5125 10.5231 11.6675 10.0894C11.8225 9.65562 11.8225 9.28312 11.7756 9.20625C11.7294 9.12812 11.6056 9.08187 11.42 8.98875Z" fill="white"/>
</svg>
