<svg width="16" height="15" viewBox="0 0 16 15" fill="none" xmlns="http://www.w3.org/2000/svg">
<g clip-path="url(#clip0_167_222)">
<path d="M15.1862 3.86625C15.0137 3.21687 14.5056 2.705 13.86 2.53125C12.6906 2.21625 8 2.21625 8 2.21625C8 2.21625 3.30937 2.21625 2.13937 2.53125C1.49437 2.705 0.98625 3.21625 0.81375 3.86625C0.5 5.04375 0.5 7.5 0.5 7.5C0.5 7.5 0.5 9.95625 0.81375 11.1337C0.98625 11.7831 1.49438 12.295 2.14 12.4687C3.30938 12.7837 8 12.7837 8 12.7837C8 12.7837 12.6906 12.7837 13.8606 12.4687C14.5056 12.295 15.0138 11.7837 15.1869 11.1337C15.5 9.95625 15.5 7.5 15.5 7.5C15.5 7.5 15.5 5.04375 15.1862 3.86625ZM6.46625 9.73062V5.26937L10.3862 7.5L6.46625 9.73062Z" fill="white"/>
</g>
<defs>
<clipPath id="clip0_167_222">
<rect width="15" height="15" fill="white" transform="translate(0.5)"/>
</clipPath>
</defs>
</svg>
